<svg xmlns="http://www.w3.org/2000/svg" width="56" height="56" viewBox="0 0 56 56">
  <g id="Group_1186" data-name="Group 1186" transform="translate(-170 -1702)">
    <rect id="Rectangle" width="56" height="56" rx="28" transform="translate(170 1702)" fill="#ecf1f5"/>
    <g id="Group_1577" data-name="Group 1577" transform="translate(186.117 1718.117)">
      <rect id="Rectangle_519" data-name="Rectangle 519" width="24" height="24" transform="translate(-0.116 -0.116)" fill="#22577a" stroke="#22577a" stroke-width="0.5" opacity="0"/>
      <path id="_34_Online_Education_Computer_Distance_Learning_E_Learning" data-name="34 Online Education, Computer, Distance Learning, E Learning" d="M26.531,7.641H25.245v.88h1.294a1.356,1.356,0,0,1,1.347,1.356V20.844h-.88v-11a.44.44,0,0,0-.44-.44h-1.32v.88h.88V20.844h-1.76V6.32A1.32,1.32,0,0,0,23.045,5h-4.4a2.2,2.2,0,0,0-1.76.88A2.2,2.2,0,0,0,15.123,5h-4.4A1.32,1.32,0,0,0,9.4,6.32V20.844H7.641V10.281h.88V9.4H7.2a.44.44,0,0,0-.44.44v11H5.88V9.877A1.356,1.356,0,0,1,7.236,8.521H8.521v-.88H7.245A2.24,2.24,0,0,0,5,9.877V23.01a2.24,2.24,0,0,0,2.236,2.236h7.447v2.641h-1.76v.88h7.922v-.88h-1.76V25.245h7.447a2.24,2.24,0,0,0,2.236-2.236V9.877a2.24,2.24,0,0,0-2.236-2.236ZM18.644,5.88h4.4a.44.44,0,0,1,.44.44V20.844H17.323V7.2A1.32,1.32,0,0,1,18.644,5.88Zm-4.4,0V7.892l-.555-.559a.387.387,0,0,0-.326-.132.44.44,0,0,0-.312.128l-.568.577V5.88Zm-3.961.44a.44.44,0,0,1,.44-.44h.88V8.961a.44.44,0,0,0,.748.312l1.012-1.012,1,1.008a.44.44,0,0,0,.321.132.37.37,0,0,0,.167-.035.44.44,0,0,0,.273-.4V5.88a1.32,1.32,0,0,1,1.32,1.32V20.844H10.281ZM18.2,27.886H15.563V25.245H18.2Zm8.327-3.521H7.236A1.356,1.356,0,0,1,5.88,23.01V21.725H27.886V23.01a1.356,1.356,0,0,1-1.356,1.356ZM15.123,22.6h3.521v.88H15.123ZM11.6,11.162h3.521v.88H11.6Zm0,2.641h3.521v.88H11.6Zm0,2.641h3.521v.88H11.6Zm10.563-4.4H18.644v-.88h3.521Zm0,2.641H18.644V13.8h3.521Zm0,2.641H18.644v-.88h3.521Z" transform="translate(-5 -5)" fill="#22577a" stroke="#22577a" stroke-width="0.5"/>
    </g>
  </g>
</svg>
