<svg xmlns="http://www.w3.org/2000/svg" width="80" height="80" viewBox="0 0 80 80">
  <g id="Group_12903" data-name="Group 12903" transform="translate(0.188)">
    <rect id="Rectangle" width="80" height="80" rx="40" transform="translate(-0.188)" fill="#fff"/>
    <g id="Group_2525" data-name="Group 2525" transform="translate(25.217 24.281)">
      <path id="Path_9042" data-name="Path 9042" d="M21.719,4H9.368A3.368,3.368,0,0,0,6,7.368v24.7a3.368,3.368,0,0,0,3.368,3.368H31.824a3.368,3.368,0,0,0,3.368-3.368V19.719a3.368,3.368,0,0,0-3.368-3.368H25.087V7.368A3.368,3.368,0,0,0,21.719,4Z" transform="translate(-6 -4)" fill="#22577a" opacity="0.3"/>
      <g id="building">
        <path id="Path_8417" data-name="Path 8417" d="M21.719,4H9.368A3.368,3.368,0,0,0,6,7.368v24.7a3.368,3.368,0,0,0,3.368,3.368H31.824a3.368,3.368,0,0,0,3.368-3.368V19.719a3.368,3.368,0,0,0-3.368-3.368H25.087V7.368A3.368,3.368,0,0,0,21.719,4ZM7.123,32.069V7.368A2.246,2.246,0,0,1,9.368,5.123h12.35a2.246,2.246,0,0,1,2.246,2.246V34.315H19.473v-7.3a.561.561,0,0,0-.561-.561H12.175a.561.561,0,0,0-.561.561v7.3H9.368A2.246,2.246,0,0,1,7.123,32.069Zm5.614,2.246V27.578H18.35v6.737ZM31.824,17.473a2.246,2.246,0,0,1,2.246,2.246v12.35a2.246,2.246,0,0,1-2.246,2.246H25.087V17.473Z" transform="translate(-6 -4)" fill="#22577a"/>
        <path id="Path_8418" data-name="Path 8418" d="M12.561,13.368h2.246a.561.561,0,0,0,.561-.561V10.561A.561.561,0,0,0,14.807,10H12.561a.561.561,0,0,0-.561.561v2.246A.561.561,0,0,0,12.561,13.368Zm.561-2.246h1.123v1.123H13.123Zm-.561,7.859h2.246a.561.561,0,0,0,.561-.561V16.175a.561.561,0,0,0-.561-.561H12.561a.561.561,0,0,0-.561.561v2.246A.561.561,0,0,0,12.561,18.982Zm.561-2.246h1.123v1.123H13.123ZM14.807,24.6a.561.561,0,0,0,.561-.561V21.789a.561.561,0,0,0-.561-.561H12.561a.561.561,0,0,0-.561.561v2.246a.561.561,0,0,0,.561.561ZM13.123,22.35h1.123v1.123H13.123Zm8.421-8.982h2.246a.561.561,0,0,0,.561-.561V10.561A.561.561,0,0,0,23.789,10H21.543a.561.561,0,0,0-.561.561v2.246A.561.561,0,0,0,21.543,13.368Zm.561-2.246h1.123v1.123H22.1Zm-.561,7.859h2.246a.561.561,0,0,0,.561-.561V16.175a.561.561,0,0,0-.561-.561H21.543a.561.561,0,0,0-.561.561v2.246A.561.561,0,0,0,21.543,18.982Zm.561-2.246h1.123v1.123H22.1ZM21.543,24.6h2.246a.561.561,0,0,0,.561-.561V21.789a.561.561,0,0,0-.561-.561H21.543a.561.561,0,0,0-.561.561v2.246A.561.561,0,0,0,21.543,24.6ZM22.1,22.35h1.123v1.123H22.1Zm9.543,3.368h2.246a.561.561,0,0,0,.561-.561V22.912a.561.561,0,0,0-.561-.561H31.648a.561.561,0,0,0-.561.561v2.246A.561.561,0,0,0,31.648,25.719Zm.561-2.246h1.123V24.6H32.21Zm-.561,7.859h2.246a.561.561,0,0,0,.561-.561V28.526a.561.561,0,0,0-.561-.561H31.648a.561.561,0,0,0-.561.561v2.246A.561.561,0,0,0,31.648,31.332Zm.561-2.246h1.123V30.21H32.21Z" transform="translate(-8.632 -6.632)" fill="#22577a"/>
      </g>
    </g>
  </g>
</svg>
