<svg xmlns="http://www.w3.org/2000/svg" width="41.59" height="41.59" viewBox="0 0 41.59 41.59">
  <g id="_28-Human_resources" data-name="28-Human resources" transform="translate(-0.25 -0.25)">
    <path id="Path_8473" data-name="Path 8473" d="M42.587,27.743v3.486l-1.743,1.743H37.358l-1.743-1.743V27.743A1.743,1.743,0,0,0,37.358,26S37.358,27.743,42.587,27.743Zm-1.743,5.229v2.615h2.615L45.2,37.33v2.615H33.872m3.486-6.972v2.615H34.743L33,37.33" transform="translate(-4.111 -3.212)" fill="none" stroke="#22577a" stroke-width="1.5"/>
    <path id="Path_8474" data-name="Path 8474" d="M35.872,27.1,35,26.229v-.872a4.358,4.358,0,1,1,8.715,0v.872l-.872.872" transform="translate(-4.368 -2.57)" fill="none" stroke="#22577a" stroke-width="1.5"/>
    <path id="Path_8475" data-name="Path 8475" d="M38,37l1.743,1.743L41.486,37" transform="translate(-4.754 -4.625)" fill="none" stroke="#22577a" stroke-width="1.5"/>
    <line id="Line_10" data-name="Line 10" y2="3" transform="translate(35.045 34.045)" fill="none" stroke="#22577a" stroke-width="1.5"/>
    <path id="Path_8476" data-name="Path 8476" d="M19,23.615v6.1l2.615,2.615H25.1l2.615-2.615v-6.1A2.562,2.562,0,0,1,25.1,21S25.1,23.615,19,23.615Z" transform="translate(-2.313 -2.57)" fill="none" stroke="#22577a" stroke-width="1.5"/>
    <line id="Line_11" data-name="Line 11" x1="2" transform="translate(22.045 24.045)" fill="none" stroke="#22577a" stroke-width="1.5"/>
    <line id="Line_12" data-name="Line 12" x1="2" transform="translate(18.045 24.045)" fill="none" stroke="#22577a" stroke-width="1.5"/>
    <path id="Path_8477" data-name="Path 8477" d="M24.458,27.2a1.743,1.743,0,1,1-3.486,0m-4.358-4.358V21.1a6.1,6.1,0,1,1,12.2,0v1.743m-10.458,0H15.743v1.743a1.743,1.743,0,0,0,1.743,1.743h.872m8.715-3.486h2.615v1.743a1.743,1.743,0,0,1-1.743,1.743h-.872m-2.615,5.229v2.615h5.229l1.743,1.743v6.972H14V35.916l1.743-1.743h5.229V31.559" transform="translate(-1.67 -1.799)" fill="none" stroke="#22577a" stroke-width="1.5"/>
    <line id="Line_13" data-name="Line 13" y1="5" transform="translate(26.045 36.045)" fill="none" stroke="#22577a" stroke-width="1.5"/>
    <line id="Line_14" data-name="Line 14" y1="5" transform="translate(16.045 36.045)" fill="none" stroke="#22577a" stroke-width="1.5"/>
    <path id="Path_8478" data-name="Path 8478" d="M25.486,37l-1.743,1.743L22,37" transform="translate(-2.698 -4.625)" fill="none" stroke="#22577a" stroke-width="1.5"/>
    <line id="Line_15" data-name="Line 15" y2="7" transform="translate(21.045 34.045)" fill="none" stroke="#22577a" stroke-width="1.5"/>
    <path id="Path_8479" data-name="Path 8479" d="M12.33,21.916H9.715v4.358L5.358,21.916H1V1H21.916v9.587" fill="none" stroke="#22577a" stroke-width="1.5"/>
    <path id="Path_8480" data-name="Path 8480" d="M6,13.229l3.486,3.486L18.2,8" transform="translate(-0.642 -0.899)" fill="none" stroke="#22577a" stroke-width="1.5"/>
    <path id="Path_8481" data-name="Path 8481" d="M25,3H44.173V13.458H35.458v3.486l-3.486-3.486H30.229" transform="translate(-3.084 -0.257)" fill="none" stroke="#22577a" stroke-width="1.5"/>
    <line id="Line_16" data-name="Line 16" x2="2" transform="translate(24.045 6.045)" fill="none" stroke="#22577a" stroke-width="1.5"/>
    <line id="Line_17" data-name="Line 17" x2="10" transform="translate(28.045 6.045)" fill="none" stroke="#22577a" stroke-width="1.5"/>
    <line id="Line_18" data-name="Line 18" x2="14" transform="translate(24.045 10.045)" fill="none" stroke="#22577a" stroke-width="1.5"/>
  </g>
</svg>
