<svg xmlns="http://www.w3.org/2000/svg" width="26.492" height="39.367" viewBox="0 0 26.492 39.367">
  <path id="education-app" d="M13.029,38.867H34.163a2.436,2.436,0,0,0,2.429-2.429V2.429A2.436,2.436,0,0,0,34.163,0H13.029A2.436,2.436,0,0,0,10.6,2.429V36.438A2.436,2.436,0,0,0,13.029,38.867Zm22.348-6.984H11.815V6.012H35.438l-.061,25.871ZM11.815,2.429a1.218,1.218,0,0,1,1.215-1.215H34.163a1.218,1.218,0,0,1,1.215,1.215V4.8H11.815Zm0,30.668H35.438v3.34a1.218,1.218,0,0,1-1.215,1.215H13.029a1.218,1.218,0,0,1-1.215-1.215Zm11.782.729a1.518,1.518,0,1,1-1.518,1.518A1.5,1.5,0,0,1,23.6,33.826ZM25.418,2.733H21.774a.574.574,0,0,0-.607.607.574.574,0,0,0,.607.607h3.644a.574.574,0,0,0,.607-.607A.609.609,0,0,0,25.418,2.733ZM13.272,15.243l2.186.911v5.951a.646.646,0,0,0,.547.607,11.848,11.848,0,0,1,7.166,3.765.66.66,0,0,0,.911,0,11.535,11.535,0,0,1,7.105-3.765.646.646,0,0,0,.547-.607V16.154l1.336-.547v3.765a.607.607,0,1,0,1.215,0V14.7a.531.531,0,0,0-.364-.547L23.839,10.081a.665.665,0,0,0-.486,0L13.272,14.15A.592.592,0,0,0,13.272,15.243Zm17.247,6.316A12.737,12.737,0,0,0,23.6,25.142a12.737,12.737,0,0,0-6.923-3.583V16.64l6.68,2.733a.665.665,0,0,0,.486,0l6.68-2.733ZM23.6,11.3l8.441,3.4L23.6,18.158l-8.441-3.4Zm10.081,9.292a.574.574,0,0,0-.607.607v.3a.607.607,0,1,0,1.215,0v-.3A.609.609,0,0,0,33.677,20.587Z" transform="translate(-10.35 0.25)" fill="#22577a" stroke="#22577a" stroke-width="0.5"/>
</svg>
