<svg xmlns="http://www.w3.org/2000/svg" width="80" height="80" viewBox="0 0 80 80">
  <g id="Group_12911" data-name="Group 12911" transform="translate(-0.406)">
    <rect id="Rectangle" width="80" height="80" rx="40" transform="translate(0.406)" fill="#fff"/>
    <g id="Group_2524" data-name="Group 2524" transform="translate(25.639 20.048)">
      <g id="learning" opacity="0.3">
        <path id="Path_8419" data-name="Path 8419" d="M32.6,17.764a.6.6,0,0,0-.872,0,1.391,1.391,0,0,1-1.992,0,.616.616,0,0,0-.872.872,2.708,2.708,0,0,0,3.735,0A.6.6,0,0,0,32.6,17.764Zm.125-1.619h1.121a.623.623,0,0,0,0-1.245H32.727a.588.588,0,0,0-.623.623A.624.624,0,0,0,32.727,16.145Zm-3.362-.623a.588.588,0,0,0-.623-.623H27.623a.623.623,0,1,0,0,1.245h1.121A.669.669,0,0,0,29.366,15.523Z" transform="translate(-16.043 -6.247)" fill="#22577a"/>
        <path id="Path_8420" data-name="Path 8420" d="M37.663,24.1a9.929,9.929,0,0,0-1.681-.747V19.116a1.284,1.284,0,0,0-.623-1.058A1.263,1.263,0,0,0,34.115,18l-1.245.623a3.774,3.774,0,0,0-2.988-1.556H27.827l-.747-1.121a8.045,8.045,0,0,0,2.864-3.486c1.743-.311,2.241-3.424.809-4.482C30.566,3.8,27.952,1,24.092,1s-6.474,2.8-6.661,6.972C16,9.031,16.5,12.143,18.24,12.455c.422.959,3.827,2.239,3.752,3.486l-1.564,1.513-2.188-.33a3.607,3.607,0,0,0-2.988,1.556l-1.245-.623a1.3,1.3,0,0,0-1.868,1.121v4.233c-.56.187-1.121.5-1.681.747A1.875,1.875,0,0,0,9.4,25.839v3.673a1.9,1.9,0,0,0,1.058,1.681c.5.249,1.058.5,1.619.747h.062v2.241a1.24,1.24,0,0,0,.685,1.121l10.957,5.6h0a.677.677,0,0,1,.311-.062.374.374,0,0,0,.249-.062h0l10.957-5.6a1.176,1.176,0,0,0,.685-1.121V31.816c.56-.187,1.121-.5,1.681-.747a1.875,1.875,0,0,0,1.058-1.681V25.715A1.748,1.748,0,0,0,37.663,24.1ZM10.707,29.388v0Zm2.864-10.4Z" transform="translate(-9.4 -1)" fill="#22577a"/>
      </g>
      <g id="learning-2" data-name="learning">
        <path id="Path_8419-2" data-name="Path 8419" d="M32.6,17.764a.6.6,0,0,0-.872,0,1.391,1.391,0,0,1-1.992,0,.616.616,0,0,0-.872.872,2.708,2.708,0,0,0,3.735,0A.6.6,0,0,0,32.6,17.764Zm.125-1.619h1.121a.623.623,0,0,0,0-1.245H32.727a.588.588,0,0,0-.623.623A.624.624,0,0,0,32.727,16.145Zm-3.362-.623a.588.588,0,0,0-.623-.623H27.623a.623.623,0,1,0,0,1.245h1.121A.669.669,0,0,0,29.366,15.523Z" transform="translate(-16.043 -6.247)" fill="#22577a"/>
        <path id="Path_8420-2" data-name="Path 8420" d="M37.663,24.1a9.929,9.929,0,0,0-1.681-.747V19.116a1.284,1.284,0,0,0-.623-1.058A1.263,1.263,0,0,0,34.115,18l-1.245.623a3.774,3.774,0,0,0-2.988-1.556H27.827l-.747-1.121a8.045,8.045,0,0,0,2.864-3.486c1.743-.311,2.241-3.424.809-4.482C30.566,3.8,27.952,1,24.092,1s-6.474,2.8-6.661,6.972C16,9.031,16.5,12.143,18.24,12.455A7.7,7.7,0,0,0,21.1,15.941l-.809,1.183H18.24a3.607,3.607,0,0,0-2.988,1.556l-1.245-.623a1.3,1.3,0,0,0-1.868,1.121v4.233c-.56.187-1.121.5-1.681.747A1.875,1.875,0,0,0,9.4,25.839v3.673a1.9,1.9,0,0,0,1.058,1.681c.5.249,1.058.5,1.619.747h.062v2.241a1.24,1.24,0,0,0,.685,1.121l10.957,5.6h0a.677.677,0,0,1,.311-.062.374.374,0,0,0,.249-.062h0l10.957-5.6a1.176,1.176,0,0,0,.685-1.121V31.816c.56-.187,1.121-.5,1.681-.747a1.875,1.875,0,0,0,1.058-1.681V25.715A1.748,1.748,0,0,0,37.663,24.1ZM24.092,2.245a5.051,5.051,0,0,1,5.043,3.611l-.374-.5a.606.606,0,0,0-.809-.187,6.644,6.644,0,0,1-7.657,0,.554.554,0,0,0-.809.187l-.374.5A4.926,4.926,0,0,1,24.092,2.245ZM19.3,11.583a.665.665,0,0,0-.56-.436h-.187c-.187,0-.56-.374-.623-1.058s.187-1.121.374-1.183a.606.606,0,0,0,.374-.311L20.17,6.478a7.643,7.643,0,0,0,7.969,0l1.494,2.117a.638.638,0,0,0,.374.311c.187.062.436.5.374,1.183s-.436,1.058-.623,1.058h0a.71.71,0,0,0-.747.374c-.934,2.49-2.8,3.984-4.794,3.984A5.518,5.518,0,0,1,19.3,11.583Zm4.794,5.292a6.52,6.52,0,0,0,1.868-.311l.934,1.37a3.871,3.871,0,0,1-2.8,2.552,3.754,3.754,0,0,1-2.8-2.552l.934-1.37A6.52,6.52,0,0,0,24.092,16.875ZM18.24,18.369h1.868a5.258,5.258,0,0,0,3.735,3.362h.311a5.136,5.136,0,0,0,3.8-3.362h1.868a2.334,2.334,0,0,1,1.868.872l-7.595,3.922L16.372,19.24A2.334,2.334,0,0,1,18.24,18.369ZM11.081,29.948a.715.715,0,0,1-.374-.56V25.715a.6.6,0,0,1,.374-.56A8.284,8.284,0,0,1,14.194,24.1h.062a.719.719,0,0,1,.747.747.757.757,0,0,1-.747.747h-.125l-1.494.311a.646.646,0,0,0-.5.747.606.606,0,0,0,.623.5h.125l1.37-.311A.707.707,0,0,1,15,27.52a.8.8,0,0,1-.747.747l-1.37-.249a.635.635,0,1,0-.249,1.245l1.494.311h.125a.607.607,0,0,1,.56.249.707.707,0,0,1,.187.5c0,.374-.436.685-.872.685v.623l-.062-.623a3.783,3.783,0,0,1-1.556-.374A7.011,7.011,0,0,1,11.081,29.948Zm2.366,2.241a2.554,2.554,0,0,0,.685.062h.062a2.057,2.057,0,0,0,2.117-1.868,1.708,1.708,0,0,0-.5-1.432h0a2.1,2.1,0,0,0,.56-1.37,1.931,1.931,0,0,0-.56-1.37,2.1,2.1,0,0,0,.56-1.37,2.037,2.037,0,0,0-1.93-1.992H14.38a3.289,3.289,0,0,0-.809.062V18.991l9.9,5.229V39.162l-10.023-5.1Zm21.291,1.868L24.714,39.224V24.283l8.218-4.233h0l1.805-.934v3.922a3.55,3.55,0,0,0-.809-.062h-.062a2.037,2.037,0,0,0-1.93,1.992,1.931,1.931,0,0,0,.56,1.37,2.1,2.1,0,0,0-.56,1.37,1.931,1.931,0,0,0,.56,1.37h0a1.778,1.778,0,0,0-.5,1.432,2.057,2.057,0,0,0,2.117,1.868h.062C35.422,32.189,34.3,32.251,34.737,34.057Zm2.739-4.607a.6.6,0,0,1-.374.56,7.764,7.764,0,0,1-3.05,1.058H33.99a.878.878,0,0,1-.872-.685.707.707,0,0,1,.187-.5.676.676,0,0,1,.56-.249h0a11.422,11.422,0,0,0,1.619-.311.646.646,0,0,0,.5-.747c-.187-.934-1.432-.249-2.117-.187a.719.719,0,0,1-.747-.747.707.707,0,0,1,.747-.685c.623.062,1.93.747,2.117-.187a.63.63,0,0,0-.5-.747l-1.432-.374h-.125a.719.719,0,0,1-.747-.747.757.757,0,0,1,.747-.747h.062A7.138,7.138,0,0,1,37.1,25.217a.715.715,0,0,1,.374.56Z" transform="translate(-9.4 -1)" fill="#22577a"/>
      </g>
    </g>
  </g>
</svg>
