<svg xmlns="http://www.w3.org/2000/svg" width="41.335" height="41.333" viewBox="0 0 41.335 41.333">
  <g id="Group_1695" data-name="Group 1695" transform="translate(-79.333 -51.333)">
    <path id="emi-calculator" d="M27.926,17.534H24.74a1.4,1.4,0,0,0-1.394,1.394v1.991a1.4,1.4,0,0,0,1.394,1.394h3.185a1.4,1.4,0,0,0,1.394-1.394V18.927A1.4,1.4,0,0,0,27.926,17.534Zm.2,3.385a.2.2,0,0,1-.2.2H24.74a.2.2,0,0,1-.2-.2V18.927a.2.2,0,0,1,.2-.2h3.185a.2.2,0,0,1,.2.2ZM14.17,28.8c0-.011,0-.021,0-.032s0-.017,0-.025-.007-.028-.01-.041l0-.015c0-.013-.009-.025-.013-.037l-.006-.018c0-.01-.009-.02-.014-.03L14.1,28.58l-.014-.023-.017-.027-.012-.017-.023-.03-.012-.013L14,28.44l-.027-.025-.016-.014a.6.6,0,0,0-.048-.036h0l-.006,0-.045-.027-.017-.008L13.8,28.31,13.78,28.3l-.03-.011-.031-.008-.025-.006-.039-.006-.019,0-.051,0h-.008a.6.6,0,0,0-.06,0l-.025,0-.032,0-.039.01-.017,0-.036.013-.019.007-.029.014-.024.012-.022.013-.029.018-.015.011L13.2,28.4l-.011.01-.031.029-.02.022-.019.021a.6.6,0,0,0-.036.048h0l-1.892,2.838L9.295,28.531h0a.6.6,0,0,0-.036-.048l-.013-.014-.026-.029-.028-.026L9.177,28.4l-.029-.022-.018-.013L9.1,28.35l-.025-.015-.02-.01-.033-.015L9.012,28.3l-.041-.015-.008,0-.048-.012h0a.6.6,0,0,0-.066-.009l-.048,0H8.783l-.044,0-.023,0-.035.005-.029.007-.028.007-.033.012-.022.008-.038.018-.015.007-.045.027-.006,0h0a.6.6,0,0,0-.048.036l-.016.014-.027.025-.027.03-.012.013-.023.03L8.3,28.53l-.017.027-.014.023L8.26,28.6c0,.01-.01.02-.014.03l-.006.018c0,.012-.009.025-.013.037l0,.015c0,.014-.008.027-.01.041s0,.017,0,.025,0,.021,0,.032,0,.04,0,.06h0V35.87a.6.6,0,0,0,1.195,0V30.834l1.295,1.942a.6.6,0,0,0,.994,0l1.295-1.942V35.87a.6.6,0,0,0,1.195,0V28.862h0C14.173,28.841,14.172,28.821,14.17,28.8Zm6.692.658a.6.6,0,1,0,0-1.195H16.085a.6.6,0,1,0,0,1.195h1.792v5.813H16.085a.6.6,0,1,0,0,1.195h4.778a.6.6,0,1,0,0-1.195H19.071V29.459Zm-.1-11.925H17.573a1.4,1.4,0,0,0-1.394,1.394v1.991a1.4,1.4,0,0,0,1.394,1.394h3.185a1.4,1.4,0,0,0,1.394-1.394V18.927A1.4,1.4,0,0,0,20.759,17.534Zm.2,3.385a.2.2,0,0,1-.2.2H17.573a.2.2,0,0,1-.2-.2V18.927a.2.2,0,0,1,.2-.2h3.185a.2.2,0,0,1,.2.2ZM6.409,29.459a.6.6,0,1,0,0-1.195H2.825a.6.6,0,0,0-.6.6V35.87a.6.6,0,0,0,.6.6H6.409a.6.6,0,1,0,0-1.195H3.422V32.963H6.409a.6.6,0,1,0,0-1.195H3.422V29.459ZM34.695,2.866H17.971A1.794,1.794,0,0,0,16.18,4.658v9.112a1.794,1.794,0,0,0,1.792,1.792H34.695a1.794,1.794,0,0,0,1.792-1.792V4.658A1.794,1.794,0,0,0,34.695,2.866Zm.6,10.9a.6.6,0,0,1-.6.6H17.971a.6.6,0,0,1-.6-.6V4.658a.6.6,0,0,1,.6-.6H34.695a.6.6,0,0,1,.6.6ZM39.194.093A2.967,2.967,0,0,0,37.083-.78h-.006l-21.5.057A2.991,2.991,0,0,0,12.6,2.264V24.679H2.222A2.99,2.99,0,0,0-.764,27.665v9.4a2.99,2.99,0,0,0,2.986,2.986H21.466a3,3,0,0,0,.329-.019l15.3-.041a2.991,2.991,0,0,0,2.981-2.986V2.206A2.966,2.966,0,0,0,39.194.093ZM23.258,37.067a1.794,1.794,0,0,1-1.792,1.792H2.222A1.794,1.794,0,0,1,.43,37.067v-9.4a1.794,1.794,0,0,1,1.792-1.792H21.466a1.794,1.794,0,0,1,1.792,1.792Zm15.618-.059A1.794,1.794,0,0,1,37.087,38.8l-13.216.035a2.97,2.97,0,0,0,.581-1.768v-.625a1.393,1.393,0,0,0,.288.03h3.185a1.4,1.4,0,0,0,1.394-1.394V33.088a1.4,1.4,0,0,0-1.394-1.394H24.74a1.394,1.394,0,0,0-.288.03V29.449a1.394,1.394,0,0,0,.288.03h3.185a1.4,1.4,0,0,0,1.394-1.394V26.095A1.4,1.4,0,0,0,27.926,24.7H24.74a1.394,1.394,0,0,0-1.247.775,2.975,2.975,0,0,0-2.028-.8H13.79V2.264A1.794,1.794,0,0,1,15.579.472L37.08.415h0a1.792,1.792,0,0,1,1.792,1.792ZM24.541,35.079V33.088a.2.2,0,0,1,.2-.2h3.185a.2.2,0,0,1,.2.2v1.991a.2.2,0,0,1-.2.2H24.74A.2.2,0,0,1,24.541,35.079Zm0-6.993V26.095a.2.2,0,0,1,.2-.2h3.185a.2.2,0,0,1,.2.2v1.991a.2.2,0,0,1-.2.2H24.74a.2.2,0,0,1-.2-.2ZM35.093,17.534H31.908a1.4,1.4,0,0,0-1.394,1.394v1.991a1.4,1.4,0,0,0,1.394,1.394h3.185a1.4,1.4,0,0,0,1.394-1.394V18.927A1.4,1.4,0,0,0,35.093,17.534Zm.2,3.385a.2.2,0,0,1-.2.2H31.908a.2.2,0,0,1-.2-.2V18.927a.2.2,0,0,1,.2-.2h3.185a.2.2,0,0,1,.2.2Zm-.2,3.783H31.908a1.4,1.4,0,0,0-1.394,1.394v8.984a1.4,1.4,0,0,0,1.394,1.394h3.185a1.4,1.4,0,0,0,1.394-1.394V26.095A1.4,1.4,0,0,0,35.093,24.7Zm.2,10.378a.2.2,0,0,1-.2.2H31.908a.2.2,0,0,1-.2-.2V26.095a.2.2,0,0,1,.2-.2h3.185a.2.2,0,0,1,.2.2Z" transform="translate(80.348 52.363)" fill="#22577a" stroke="#22577a" stroke-width="0.5"/>
    <path id="track-it-refund" d="M21.05,15.819a.353.353,0,0,0-.354-.353H17.525a.353.353,0,1,0,0,.707H18.1a1.379,1.379,0,0,1,1.33,1.023H17.525a.353.353,0,1,0,0,.707h1.907a1.379,1.379,0,0,1-1.33,1.023h-.577a.354.354,0,0,0-.256.6l2.307,2.415a.354.354,0,1,0,.511-.488l-1.749-1.831A2.088,2.088,0,0,0,20.154,17.9H20.7a.353.353,0,1,0,0-.707h-.542a2.077,2.077,0,0,0-.491-1.023H20.7a.353.353,0,0,0,.353-.354ZM19.11,23.787Z" transform="translate(87.978 43.434)" fill="#22577a" stroke="#22577a" stroke-width="0.5"/>
  </g>
</svg>
