<svg xmlns="http://www.w3.org/2000/svg" width="40.82" height="40.907" viewBox="0 0 40.82 40.907">
  <g id="opportunity" transform="translate(-0.937 -0.749)">
    <path id="Path_8470" data-name="Path 8470" d="M47.9,50.214h-.017a3.225,3.225,0,0,0,.669-1.955,3.259,3.259,0,0,0-6.517,0,3.225,3.225,0,0,0,.669,1.955h-.017a3.247,3.247,0,0,0-2.607,1.324,3.247,3.247,0,0,0-2.607-1.324h-.017a3.225,3.225,0,0,0,.669-1.955,3.259,3.259,0,0,0-6.517,0,3.225,3.225,0,0,0,.669,1.955h-.017A3.262,3.262,0,0,0,29,53.472v3.259h1.3V53.472a1.958,1.958,0,0,1,1.955-1.955h5.214a1.958,1.958,0,0,1,1.955,1.955v3.259h1.3V53.472a1.958,1.958,0,0,1,1.955-1.955H47.9a1.958,1.958,0,0,1,1.955,1.955v3.259h1.3V53.472A3.262,3.262,0,0,0,47.9,50.214ZM32.91,48.259a1.955,1.955,0,1,1,1.955,1.955A1.958,1.958,0,0,1,32.91,48.259Zm10.427,0a1.955,1.955,0,1,1,1.955,1.955A1.958,1.958,0,0,1,43.338,48.259Z" transform="translate(-9.651 -15.325)" fill="#22577a" stroke="#22577a" stroke-width="0.5"/>
    <rect id="Rectangle_780" data-name="Rectangle 780" width="1.303" height="3.259" transform="translate(31.732 38.148)" fill="#22577a" stroke="#22577a" stroke-width="0.5"/>
    <rect id="Rectangle_781" data-name="Rectangle 781" width="1.303" height="3.259" transform="translate(38.249 38.148)" fill="#22577a" stroke="#22577a" stroke-width="0.5"/>
    <rect id="Rectangle_782" data-name="Rectangle 782" width="1.303" height="3.259" transform="translate(21.304 38.148)" fill="#22577a" stroke="#22577a" stroke-width="0.5"/>
    <rect id="Rectangle_783" data-name="Rectangle 783" width="1.303" height="3.259" transform="translate(27.821 38.148)" fill="#22577a" stroke="#22577a" stroke-width="0.5"/>
    <path id="Path_8471" data-name="Path 8471" d="M39.519,3.63,38.66,5.46l-1.908.291a.652.652,0,0,0-.368,1.1l1.4,1.434-.332,2.033a.652.652,0,0,0,.959.676l1.7-.94,1.7.939a.652.652,0,0,0,.959-.676l-.332-2.033,1.4-1.434a.652.652,0,0,0-.368-1.1L41.557,5.46,40.7,3.629a.651.651,0,0,0-1.178,0Zm.59,1.81.417.888a.654.654,0,0,0,.491.368l1,.153-.744.762a.651.651,0,0,0-.177.56L41.264,9.2l-.839-.464a.651.651,0,0,0-.631,0l-.839.464.169-1.033a.653.653,0,0,0-.177-.56L38.2,6.848l1-.153a.654.654,0,0,0,.491-.368Zm4.063-1.189,1.016-.817a6.58,6.58,0,0,0-1.034-1.026l-.811,1.021A5.236,5.236,0,0,1,44.173,4.251Zm-1.8,7.963.566,1.174a6.536,6.536,0,0,0,1.234-.777l-.813-1.018A5.318,5.318,0,0,1,42.375,12.215ZM40.093,2.3l0-1.3a6.542,6.542,0,0,0-1.449.166l.293,1.27A5.269,5.269,0,0,1,40.093,2.3Zm5.1,4.032,1.27-.293a6.445,6.445,0,0,0-.488-1.376L44.8,5.237A5.145,5.145,0,0,1,45.189,6.336Zm0,2.341,1.27.289a6.534,6.534,0,0,0,.162-1.449V7.492l-1.3.025A5.221,5.221,0,0,1,45.194,8.677Zm-11.437.3a6.546,6.546,0,0,0,.484,1.376l1.174-.568a5.234,5.234,0,0,1-.388-1.1Zm11.449,2.6a6.482,6.482,0,0,0,.776-1.235l-1.174-.566a5.248,5.248,0,0,1-.621.988ZM42.917,1.635a6.46,6.46,0,0,0-1.379-.478L41.253,2.43a5.15,5.15,0,0,1,1.1.381ZM37.834,2.824l-.57-1.172a6.562,6.562,0,0,0-1.232.78l.816,1.017A5.291,5.291,0,0,1,37.834,2.824Zm2.281,11.21a6.525,6.525,0,0,0,1.45-.163l-.29-1.271a5.205,5.205,0,0,1-1.159.13v1.3ZM35.023,6.368l-1.271-.285a6.54,6.54,0,0,0-.159,1.435V7.53l1.3-.012A5.232,5.232,0,0,1,35.023,6.368Zm1-2.092L35,3.467A6.608,6.608,0,0,0,34.23,4.7l1.175.564A5.308,5.308,0,0,1,36.025,4.276Zm1.263,9.117a6.493,6.493,0,0,0,1.379.481l.287-1.271a5.145,5.145,0,0,1-1.1-.384Zm-1.236-.775.812-1.019a5.263,5.263,0,0,1-.827-.824l-1.017.815A6.56,6.56,0,0,0,36.052,12.618Z" transform="translate(-5.119)" fill="#22577a" stroke="#22577a" stroke-width="0.5"/>
    <path id="Path_8472" data-name="Path 8472" d="M8.64,24.293h1.3v.839c-.066.088-.135.173-.2.265a6.519,6.519,0,0,0,5.4,10.151,6.584,6.584,0,0,0,1.271-.124,6.476,6.476,0,0,0,4.868-8.6l4.088-3.865.9.947a.652.652,0,0,0,1.126-.429l.155-5.528a.651.651,0,0,0-.633-.669l-5.528-.155h-.018a.651.651,0,0,0-.473,1.1l.9.947-2.722,2.574v-4.87l7.46-3.73a.652.652,0,0,0,.327-.789L26.2,10.4a.651.651,0,0,0-.34-.383A.659.659,0,0,0,25.351,10l-8.207,3.157a3.261,3.261,0,1,0-5.229.059h-.669a3.262,3.262,0,0,0-3.259,3.259v7.169A.652.652,0,0,0,8.64,24.293Zm10.847,7.641a5.214,5.214,0,0,1-8.659-5.812,5.233,5.233,0,0,1,.41-.526h.008v-.009a5.174,5.174,0,0,1,2.9-1.675,5.282,5.282,0,0,1,1.017-.1,5.218,5.218,0,0,1,5.1,4.209h0A5.18,5.18,0,0,1,19.487,31.934Zm3.7-13.185-.262-.278,3.3.093-.093,3.3-.263-.278a.654.654,0,0,0-.922-.026L20.691,25.59A6.476,6.476,0,0,0,18.9,23.7l4.26-4.028a.652.652,0,0,0,.026-.921Zm-8.68-2.511.594,2.079-.594.891-.594-.891ZM12.55,11.259a1.955,1.955,0,1,1,1.955,1.955A1.958,1.958,0,0,1,12.55,11.259ZM9.291,16.472a1.958,1.958,0,0,1,1.955-1.955h2.394l-1.066,3.731a.654.654,0,0,0,.085.541l1.3,1.955a.652.652,0,0,0,1.084,0l1.3-1.955a.653.653,0,0,0,.085-.541l-1.066-3.731h1.743a.653.653,0,0,0,.234-.043l7.835-3.014.258.772L18.123,15.89a.652.652,0,0,0-.36.583v6.5l-.057.053a6.5,6.5,0,0,0-6.46.79V16.472h-1.3v6.517H9.291V16.472Z" transform="translate(-2.333 -2.438)" fill="#22577a" stroke="#22577a" stroke-width="0.5"/>
    <rect id="Rectangle_784" data-name="Rectangle 784" width="8.29" height="1.303" transform="matrix(0.706, -0.708, 0.708, 0.706, 1.291, 37.689)" fill="#22577a" stroke="#22577a" stroke-width="0.5"/>
    <rect id="Rectangle_785" data-name="Rectangle 785" width="5.525" height="1.303" transform="matrix(0.706, -0.708, 0.708, 0.706, 1.291, 33.126)" fill="#22577a" stroke="#22577a" stroke-width="0.5"/>
    <rect id="Rectangle_786" data-name="Rectangle 786" width="5.525" height="1.303" transform="matrix(0.706, -0.708, 0.708, 0.706, 5.854, 37.687)" fill="#22577a" stroke="#22577a" stroke-width="0.5"/>
  </g>
</svg>
