<?xml version="1.0" encoding="utf-8"?>
<!-- Generator: Adobe Illustrator 26.0.1, SVG Export Plug-In . SVG Version: 6.00 Build 0)  -->
<svg version="1.1" id="Layer_1" xmlns="http://www.w3.org/2000/svg" xmlns:xlink="http://www.w3.org/1999/xlink" x="0px" y="0px"
	 width="80px" height="80px" viewBox="0 0 80 80" style="enable-background:new 0 0 80 80;" xml:space="preserve">
<style type="text/css">
	.st0{fill:#22577A;}
</style>
<g>
	<g>
		<g>
			<g>
				<path class="st0" d="M44.8,54.5c-0.2-2.3-0.9-4.6-2.3-6.5c-0.7-0.9-1.4-1.7-2.3-2.4c-0.5-0.4-1-0.7-1.5-1s-1.1-0.7-1.7-0.8
					c-0.8-0.1-1.3,0.5-1.9,0.9c-0.6,0.5-2.7,1.9-2.9,2.1c-0.2,0.3-0.4,0.7-0.6,1c-0.4,0.7-0.7,1.4-1.1,2.1c-0.1,0.2-0.2,0.5-0.4,0.7
					c-0.5-0.9-1-1.9-1.5-2.8c-0.2-0.3-0.4-0.7-0.6-1s-0.5-0.5-0.8-0.8c-0.6-0.5-2.9-2.3-3.4-2.2c-0.3,0.1-1.6,0.7-1.9,0.9
					c-1.7,1-2.8,1.8-3.7,2.9c-1.7,2.1-2.4,4.6-2.7,7.2c0,0.6-0.1,1.1-0.1,1.7c0,0.4,0.1,0.9,0.5,1.1c0.4,0.2,0.8,0.2,1.2,0.2
					c0.8,0,1.5,0,2.3,0c6.7,0,13.2,0,19.9,0c0.8,0,1.7,0,2.5,0c0.4,0,0.8,0,1.2,0c0.3,0,0.6,0,0.9-0.1c0.6-0.1,0.8-0.6,0.9-1.1
					C45,55.9,44.9,55.2,44.8,54.5z M43.6,56.7C43.6,56.7,43.4,56.7,43.6,56.7c-0.2,0-0.4,0-0.5,0c-0.7,0-1.5,0-2.1,0
					c-6,0-12.1,0-18.1,0c-1.5,0-3,0-4.5,0c-0.3,0-0.6,0-0.9,0c-0.1,0-0.2,0-0.3,0c0,0,0,0-0.1,0l0,0l0,0v-0.1l0,0c0-0.1,0-0.1,0-0.2
					c-0.1-1.1,0.1-2.2,0.3-3.3c0.2-1.1,0.6-2.2,1.1-3.2c0.6-1,1.3-2,2.1-2.8c1-0.9,3.2-2.1,3.3-2.1c0.1,0,1.7,1,2.9,2.1
					c0.2,0.2,0.8,1,1.1,1.6c0.3,0.6,0.8,1.3,1,2c0.2,0.4,0.9,1.9,1.3,2.2c0.4,0,1.9-3.1,2.5-4.2c0.3-0.6,0.6-1.2,1.1-1.6
					c0.5-0.4,2.7-2.1,2.9-2.1c0.5,0.2,1,0.5,1.5,0.8c0.9,0.5,1.7,1.2,2.3,1.9c1.4,1.5,2.1,3.3,2.6,5.3c0.1,0.5,0.2,1.1,0.3,1.7
					c0,0.4,0.1,0.7,0.1,1.1C43.6,56.1,43.7,56.4,43.6,56.7z"/>
			</g>
			<g>
				<path class="st0" d="M30.3,44.7c-2.9,0-5.5-1.8-6.5-4.5c-1-2.8-0.1-5.9,2.1-7.8c2.3-1.9,5.5-2,8-0.5c2.4,1.5,3.7,4.5,3.2,7.3
					c-0.6,2.8-2.9,5-5.8,5.5C31.1,44.7,30.7,44.7,30.3,44.7c-0.8,0-0.8,1.2,0,1.2c3.4,0,6.5-2.1,7.7-5.3c1.2-3.1,0.2-6.9-2.4-9
					c-2.6-2.2-6.4-2.5-9.4-0.8c-3,1.8-4.5,5.2-3.8,8.6c0.6,3.2,3.3,5.9,6.6,6.4c0.4,0.1,0.9,0.1,1.3,0.1
					C31.1,46,31.1,44.8,30.3,44.7z"/>
			</g>
		</g>
		<g>
			<path class="st0" d="M64.3,45.2c-0.1-0.2-0.2-0.4-0.4-0.6c-0.8-0.9-2.3-0.6-3.5-0.6v-1c0.1-2.1-1.3-1.8-2-1.9h-5.8
				c-2.2,0-1.9,1.2-2,1.9v1.1h-2.1c-0.7,0-1.3,0.1-1.6,0.9c-0.2,0.5-0.2,1-0.1,1.5c0,0.8,0,9.1,0,9.5s0.1,0.8,0.3,1.2
				c0.3,0.4,0.9,0.5,1.4,0.4c0.6,0,11.5,0,12.5,0c0.9,0,2.3,0.1,2.6-0.3c0.7-0.5,0.7-1.6,0.7-2.4c0-0.7,0-1.5,0-2.2
				c0-1.8,0-3.7,0-5.4C64.4,46.6,64.5,45.9,64.3,45.2z M52.3,42.1c0.5,0,6.4,0,6.9,0.1c0.4,0.1,0.4,0.3,0.4,1.1c0,0.1,0,0.8,0,0.8
				s-8.1,0-7.9,0C51.6,42.5,51.5,42.1,52.3,42.1z M47.9,47.1c0-0.3,0-0.4,0-0.7s0,0,0-0.3c0-0.8,0.2-0.9,0.2-0.9
				c0.2-0.2,0.6-0.1,1-0.1s1,0,1.4,0c0.7,0,1.3,0,2,0c0.8,0,1.6,0,2.4,0c0.8,0,1.6,0,2.4,0c0.7,0,1.5,0,2.2,0c0.5,0,1.2,0,1.7,0
				c0.4,0,1-0.1,1.4,0.1c0.3,0.2,0.4,0.6,0.4,0.9c0,0.3,0,1.5,0,1.7c-0.1,0.3-5.1,2.9-5.3,2.8c-0.1-0.8-0.5-0.7-1.1-0.8
				c-0.5,0-1.6,0-2.2,0c-0.6,0.1-0.9,0.6-0.9,0.9c-1.3-0.6-5.6-2.7-5.6-2.8C47.9,47.7,47.9,47.4,47.9,47.1z M56.7,51v2.2h-2.2V51
				H56.7z M62.9,56.3c-0.4,0.2-1.8,0.2-2.4,0.1c-0.6,0-1.2,0-1.8,0c-2,0-3.8,0-5.8,0c-0.8,0-4,0.1-4.3,0c-0.6-0.1-0.8-0.5-0.7-1.1
				c0-0.6,0-5.9,0.1-6.3c1,0.5,2,1,3,1.5c0.6,0.3,1.2,0.6,1.8,0.9c0.2,0.1,0.6,0.3,0.8,0.4c0,1.6-0.2,2.1,0.5,2.4c0.2,0,2.6,0,3.1,0
				c0.8-0.2,0.6-0.7,0.6-1.3c0-0.4,0-0.6,0-1l5.5-2.8c0,1.4,0,2.9,0,4.3c0,0.4,0,0.7,0,1.1C63.3,54.8,63.4,56.2,62.9,56.3z"/>
		</g>
	</g>
	<g>
		<path class="st0" d="M51.8,37.7c0,0.1,0,0.1,0,0.2c0.1,0.4,0.3,0.8,0.4,1.2v0.1c0.1,0.2,0,0.2-0.2,0.3s-0.5,0.2-0.7,0.3
			c-0.7,0.2-1.4,0.5-2,0.7c-0.2,0.1-0.3,0.1-0.4-0.2c-0.2-0.5-0.4-0.9-0.6-1.4c-0.1-0.2-0.3-0.3-0.5-0.4c-0.4,0-0.8-0.1-1.2-0.1
			c-0.2,0-0.4,0.1-0.6,0.3c-0.2,0.5-0.5,0.9-0.7,1.4c-0.1,0.2-0.2,0.2-0.4,0.1c-0.9-0.5-1.8-0.9-2.7-1.4c-0.2-0.1-0.2-0.2-0.1-0.4
			c0.2-0.5,0.5-0.9,0.7-1.4c0.1-0.3,0.1-0.4-0.1-0.7c-0.2-0.3-0.5-0.6-0.7-0.9c-0.2-0.2-0.4-0.3-0.7-0.2c-0.5,0.2-1,0.3-1.5,0.5
			c-0.2,0.1-0.3,0-0.4-0.2c-0.3-0.9-0.6-1.9-0.9-2.8c-0.1-0.2,0-0.3,0.2-0.4c0.5-0.2,1-0.3,1.5-0.5c0.3-0.1,0.4-0.2,0.4-0.5
			c0-0.4,0.1-0.8,0.1-1.2c0-0.2-0.1-0.4-0.3-0.5c-0.5-0.2-0.9-0.5-1.4-0.7c-0.2-0.1-0.2-0.2-0.1-0.4c0.5-0.9,0.9-1.8,1.4-2.7
			c0.1-0.2,0.2-0.2,0.4-0.1c0.5,0.2,0.9,0.5,1.4,0.7c0.3,0.1,0.4,0.1,0.7-0.1c0.3-0.3,0.6-0.5,0.9-0.7c0.2-0.2,0.3-0.4,0.2-0.6
			c-0.2-0.5-0.3-1-0.5-1.5c-0.1-0.2,0-0.3,0.2-0.4c1-0.3,1.9-0.6,2.9-0.9c0.2-0.1,0.3,0,0.4,0.2c0.2,0.5,0.3,1,0.5,1.5
			c0.1,0.3,0.3,0.4,0.6,0.4c0.4,0,0.7,0,1.1,0.1c0.3,0,0.5,0,0.6-0.3c0.2-0.5,0.5-0.9,0.7-1.4c0.1-0.2,0.2-0.2,0.4-0.1
			c0.9,0.5,1.8,0.9,2.7,1.4c0.2,0.1,0.2,0.2,0.1,0.4c-0.2,0.5-0.5,0.9-0.7,1.4c-0.1,0.3-0.1,0.4,0.1,0.7c0.2,0.3,0.5,0.6,0.7,0.9
			c0.2,0.2,0.4,0.3,0.6,0.2c0.5-0.2,1-0.3,1.5-0.5c0.2-0.1,0.3,0,0.4,0.2c0.3,1,0.6,1.9,0.9,2.9c0.1,0.2,0,0.3-0.2,0.4
			c-0.5,0.2-1,0.3-1.5,0.5c-0.3,0.1-0.4,0.2-0.4,0.5c0,0.4-0.1,0.8-0.1,1.2c0,0.2,0.1,0.4,0.3,0.5c0.5,0.2,0.9,0.5,1.4,0.7
			c0.2,0.1,0.2,0.2,0.1,0.4c-0.5,0.9-0.9,1.8-1.4,2.7c-0.1,0.2-0.2,0.2-0.4,0.1c-0.5-0.2-0.9-0.5-1.4-0.7c-0.3-0.1-0.5-0.1-0.7,0.1
			c-0.3,0.3-0.6,0.5-0.9,0.7C51.9,37.4,51.8,37.5,51.8,37.7z M47.9,37.7c3.5,0,6.4-2.8,6.4-6.3c0-3.4-2.8-6.3-6.3-6.3
			c-3.7,0-6.4,3-6.4,6.2C41.5,35,44.5,37.7,47.9,37.7z"/>
		<path class="st0" d="M47.9,28.5c-1.7,0-2.9,1.4-2.9,2.8c0,1.7,1.3,2.9,2.9,2.9c1.6,0,2.9-1.3,2.9-2.9
			C50.8,29.8,49.5,28.5,47.9,28.5z M47.9,33.4c-1.1,0-2-0.9-2-2c0-1,0.8-2,2-2c1.1,0,2,0.9,2,2C49.9,32.5,49,33.4,47.9,33.4z"/>
	</g>
</g>
</svg>
