<svg xmlns="http://www.w3.org/2000/svg" width="40.072" height="40.17" viewBox="0 0 40.072 40.17">
  <path id="thinking" d="M13.6,10.893v.858a1.855,1.855,0,0,0,1.855,1.855h1.236a1.855,1.855,0,0,0,1.855-1.855V10.9a2.024,2.024,0,0,1,.46-1.214,3.642,3.642,0,0,0,.776-2.258,3.686,3.686,0,0,0-1.443-2.936,3.741,3.741,0,0,0-3.255-.649,3.7,3.7,0,0,0-1.935,5.851A1.978,1.978,0,0,1,13.6,10.893Zm3.709.858a.618.618,0,0,1-.618.618H15.455a.618.618,0,0,1-.618-.618v-.618H17.31ZM13.7,6.706a2.43,2.43,0,0,1,1.7-1.667,2.667,2.667,0,0,1,.675-.088,2.473,2.473,0,0,1,2.473,2.473,2.417,2.417,0,0,1-.516,1.5,3.534,3.534,0,0,0-.543.976H14.66a3.426,3.426,0,0,0-.538-.966,2.447,2.447,0,0,1-.42-2.226ZM38.946,34.625H35.855V32.77c0-.02-.01-.036-.011-.054a.6.6,0,0,0-.047-.307l-5.555-11.84.381-2.108a1.855,1.855,0,0,0-1.495-2.154L26.7,15.868a.618.618,0,0,0-.718.495L23.558,29.749a.618.618,0,0,0,.495.718l2.433.439a1.855,1.855,0,0,0,2.155-1.495l.392-2.169,2.2,4.908H27.819a1.855,1.855,0,0,0-1.855,1.855v.618h-9a2.444,2.444,0,0,0,.344-1.236,2.473,2.473,0,0,0-2.473-2.473H11.654l-3.791-3.03a3.048,3.048,0,0,0-.445-.3V25.352a.585.585,0,0,0-.012-.063,4.87,4.87,0,0,0,2.005-6.354.266.266,0,0,0-.017-.032A4.93,4.93,0,1,0,.481,23.116l.007.014a4.946,4.946,0,0,0,2,2.159.585.585,0,0,0-.012.063v1.918A3.091,3.091,0,0,0,0,30.3v8.655a.618.618,0,0,0,.618.618H36.474a3.091,3.091,0,0,0,3.091-3.091V35.243A.618.618,0,0,0,38.946,34.625ZM27.428,29.192a.618.618,0,0,1-.256.4.6.6,0,0,1-.462.1h0l-1.825-.33,2.192-12.167,1.826.33a.618.618,0,0,1,.495.717Zm2-4.1.436-2.42,4.449,9.482H32.59ZM27.2,34.006a.618.618,0,0,1,.618-.618h6.8v1.236H27.2ZM13.6,32.152h1.236a1.236,1.236,0,1,1,0,2.473H13.6ZM1.464,22.261A3.693,3.693,0,0,1,7.913,18.82L3.966,19.6a1.861,1.861,0,0,0-1.494,1.82v.221a.618.618,0,0,1-.618.618Zm.71,1.2a1.855,1.855,0,0,0,1.536-1.822v-.221a.618.618,0,0,1,.495-.607l4.275-.847a3.657,3.657,0,0,1,.176,1.057,3.694,3.694,0,0,1-6.48,2.441Zm4.008,2.329v1.433c-.083-.006-.166-.021-.247-.021H3.709V25.794a4.889,4.889,0,0,0,1.236.176,4.889,4.889,0,0,0,1.236-.176Zm0,9.449v3.091H1.236V30.3a1.855,1.855,0,0,1,1.855-1.855H5.935a1.855,1.855,0,0,1,1.159.407l3.956,3.169a.618.618,0,0,0,.388.134h.926v2.473H10.716L5.935,31.039a.618.618,0,1,0-.742.989l3.462,2.6H6.8A.618.618,0,0,0,6.182,35.243Zm32.146,1.236a1.855,1.855,0,0,1-1.855,1.855H7.418V35.861h30.91Zm-27.2-15.455A2.473,2.473,0,1,0,13.6,18.551,2.473,2.473,0,0,0,11.128,21.024Zm3.709,0A1.236,1.236,0,1,1,13.6,19.788,1.236,1.236,0,0,1,14.837,21.024ZM6.5,11.436a5.969,5.969,0,0,0,9.575,4.691,5.935,5.935,0,0,0,9.2-2.751,5.935,5.935,0,0,0,3.963-5.612,6,6,0,0,0-5.987-5.992,5.791,5.791,0,0,0-2.437.542,5.935,5.935,0,0,0-8.32-1.12A5.974,5.974,0,1,0,6.5,11.436ZM8.9,1.217a4.733,4.733,0,0,1,3.169,1.236.618.618,0,0,0,.828,0,4.709,4.709,0,0,1,7.177.989.618.618,0,0,0,.827.206,4.68,4.68,0,0,1,2.34-.64A4.742,4.742,0,0,1,24.6,12.3a.618.618,0,0,0-.414.414,4.708,4.708,0,0,1-7.7,2.158.618.618,0,0,0-.828,0,4.728,4.728,0,0,1-7.913-3.62c.009-.061.016-.124.02-.181a.618.618,0,0,0-.413-.618A4.743,4.743,0,0,1,8.9,1.217Z" transform="translate(0.258 0.35)" fill="#22577a" stroke="#22577a" stroke-width="0.5"/>
</svg>
