<?xml version="1.0" encoding="utf-8"?>
<!-- Generator: Adobe Illustrator 26.0.1, SVG Export Plug-In . SVG Version: 6.00 Build 0)  -->
<svg version="1.1" id="Layer_1" xmlns="http://www.w3.org/2000/svg" xmlns:xlink="http://www.w3.org/1999/xlink" x="0px" y="0px"
	 width="80px" height="80px" viewBox="0 0 80 80" style="enable-background:new 0 0 80 80;" xml:space="preserve">
<style type="text/css">
	.st0{display:none;opacity:0.1;fill:#22577A;enable-background:new    ;}
	.st1{fill:#22577A;}
</style>
<path class="st0" d="M40,0L40,0c22.1,0,40,17.9,40,40l0,0c0,22.1-17.9,40-40,40l0,0C17.9,80,0,62.1,0,40l0,0C0,17.9,17.9,0,40,0z"/>
<g>
	<path class="st1" d="M58.9,28.9c0-3-2.3-5.6-5.3-6c-1.1-0.2-2.2-0.1-3.3-0.1c-0.4,0-0.5-0.1-0.5-0.5c0-0.7,0-1.4,0-2.1
		c0-0.6-0.4-1-0.9-1s-0.9,0.4-0.9,1c0,0.7,0,1.5,0,2.2c0,0.3-0.1,0.4-0.4,0.4c-1.1,0-2.1,0-3.2,0c-4,0-8.1,0-12.1,0
		c-0.4,0-0.5-0.1-0.5-0.5c0-0.7,0-1.4,0-2c0-0.7-0.3-1.1-0.9-1.1c-0.5,0-0.9,0.4-0.9,1.1s0,1.5,0,2.2c0,0.3-0.1,0.4-0.3,0.3
		c-0.7,0-1.4,0-2.1,0c-3.9,0-6.6,2.7-6.6,6.6c0,5.3,0,16,0,24.8c0,3.9,2.7,6.6,6.6,6.6c4.1,0,8.2,0,12.3,0s8.2,0,12.3,0
		c0.6,0,1.2-0.1,1.7-0.3c2.9-0.7,4.9-3.1,4.9-6.1c0-4.6,0-12.9,0-17.4C58.9,34.3,59,31.6,58.9,28.9z M22.9,31.3c0-1.3,0-0.8,0-2.1
		c0-2.6,2-4.6,4.6-4.6c0.7,0,1.5,0,2.2,0c0.4,0,0.5,0.1,0.5,0.5c0,0.7,0,1.4,0,2.1s0.3,1.1,0.9,1.1c0.5,0,0.9-0.4,0.9-1.1s0-1.4,0-2
		c0-0.5,0.2-0.5,0.6-0.5c5,0,10.1,0,15.1,0c0.5,0,0.6,0.1,0.5,0.6c0,0.7,0,1.4,0,2s0.4,1,0.9,1s0.9-0.4,0.9-1c0-0.7,0-1.5,0-2.2
		c0-0.2,0-0.4,0.3-0.4c1.1,0.1,2.3-0.1,3.4,0.1c2,0.4,3.5,2.1,3.6,4.2c0,1.5,0,1.2,0,2.6c0,0.5-0.3,0.3-0.5,0.3
		c-5.6,0-11.1,0-16.7,0c-5.5,0-11,0-16.5,0C22.9,31.9,22.8,31.7,22.9,31.3z M57.1,54.2c0,2.9-1.9,4.8-4.8,4.8c-8.2,0-16.4,0-24.7,0
		c-2.9,0-4.8-1.9-4.8-4.8c0-4.8,0-13.4,0-18.2c0-0.5-0.1-2.5,0.3-2.3c5.5,0,11.3,0,16.8,0s11.4,0.1,16.9,0c0.3,0,0.2,1.9,0.2,2.3
		C57.1,40.8,57.1,49.4,57.1,54.2z"/>
	<g>
		<path class="st1" d="M27.2,41.3c-0.2,0-0.3-0.1-0.4-0.2l-2.3-2.4c-0.2-0.2-0.2-0.6,0-0.8s0.6-0.2,0.8,0l1.9,2.1l5.1-3.8
			c0.2-0.2,0.6-0.1,0.8,0.1c0.2,0.2,0.1,0.6-0.1,0.8l-5.5,4.1C27.4,41.3,27.3,41.3,27.2,41.3z"/>
	</g>
	<g>
		<path class="st1" d="M27.2,49.1c-0.2,0-0.3-0.1-0.4-0.2l-2.3-2.4c-0.2-0.2-0.2-0.6,0-0.8s0.6-0.2,0.8,0l1.9,2.1l5.1-3.8
			c0.2-0.2,0.6-0.1,0.8,0.1c0.2,0.2,0.1,0.6-0.1,0.8L27.5,49C27.4,49.1,27.3,49.1,27.2,49.1z"/>
	</g>
	<g>
		<path class="st1" d="M27.2,56.6c-0.2,0-0.3-0.1-0.4-0.2L24.5,54c-0.2-0.2-0.2-0.6,0-0.8s0.6-0.2,0.8,0l1.9,2.1l5.1-3.8
			c0.2-0.2,0.6-0.1,0.8,0.1c0.2,0.2,0.1,0.6-0.1,0.8l-5.5,4.1C27.4,56.5,27.3,56.6,27.2,56.6z"/>
	</g>
	<g>
		<path class="st1" d="M38.5,41.3c-0.2,0-0.3-0.1-0.4-0.2l-2.3-2.4c-0.2-0.2-0.2-0.6,0-0.8s0.6-0.2,0.8,0l1.9,2.1l5.1-3.8
			c0.2-0.2,0.6-0.1,0.8,0.1c0.2,0.2,0.1,0.6-0.1,0.8l-5.5,4.1C38.8,41.3,38.7,41.3,38.5,41.3z"/>
	</g>
	<g>
		<path class="st1" d="M38.5,49.1c-0.2,0-0.3-0.1-0.4-0.2l-2.3-2.4c-0.2-0.2-0.2-0.6,0-0.8s0.6-0.2,0.8,0l1.9,2.1l5.1-3.8
			c0.2-0.2,0.6-0.1,0.8,0.1c0.2,0.2,0.1,0.6-0.1,0.8L38.9,49C38.8,49.1,38.7,49.1,38.5,49.1z"/>
	</g>
	<g>
		<path class="st1" d="M49.9,41.3c-0.2,0-0.3-0.1-0.4-0.2l-2.3-2.4c-0.2-0.2-0.2-0.6,0-0.8s0.6-0.2,0.8,0l2,2.1l5.1-3.8
			c0.2-0.2,0.6-0.1,0.8,0.1c0.2,0.2,0.1,0.6-0.1,0.8l-5.5,4.1C50.2,41.3,50,41.3,49.9,41.3z"/>
	</g>
	<g>
		<path class="st1" d="M49.9,49.1c-0.2,0-0.3-0.1-0.4-0.2l-2.3-2.4c-0.2-0.2-0.2-0.6,0-0.8s0.6-0.2,0.8,0l1.9,2.1L55,44
			c0.2-0.2,0.6-0.1,0.8,0.1c0.2,0.2,0.1,0.6-0.1,0.8L50.3,49C50.2,49.1,50,49.1,49.9,49.1z"/>
	</g>
</g>
</svg>
