<svg id="Group_12902" data-name="Group 12902" xmlns="http://www.w3.org/2000/svg" width="80" height="80" viewBox="0 0 80 80">
  <rect id="Rectangle" width="80" height="80" rx="40" fill="#fff"/>
  <g id="Group_2523" data-name="Group 2523" transform="translate(23.249 20.407)">
    <path id="office" d="M24.845,1023.8l-.05.748a.76.76,0,0,1-.4.6,2.09,2.09,0,0,1-.947.349h-3.54a4.368,4.368,0,0,0-4.337,4.387v4.486a.8.8,0,0,0,0,.4v2.692a7.306,7.306,0,0,0,1.6,4.537v3.789l-7.877,4.487A6.529,6.529,0,0,0,6,1055.956v7.029H39.5v-7.179a6.344,6.344,0,0,0-3.191-5.484l-7.977-4.537V1042a7.307,7.307,0,0,0,1.6-4.537v-2.144a.823.823,0,0,0,0-.5v-1.7c0,.081,0,.089,0-.05v-4.785a5.886,5.886,0,0,0-1.246-3.141,3.965,3.965,0,0,0-3.091-1.346h-.748Z" transform="translate(-6 -1023.8)" fill="#22577a" opacity="0.3"/>
    <path id="office-2" data-name="office" d="M24.845,1023.8l-.05.748a.76.76,0,0,1-.4.6,2.09,2.09,0,0,1-.947.349h-3.54a4.368,4.368,0,0,0-4.337,4.387v4.486a.8.8,0,0,0,0,.4v2.692a7.306,7.306,0,0,0,1.6,4.537v3.789l-7.877,4.487A6.529,6.529,0,0,0,6,1055.956v7.029H39.5v-7.179a6.344,6.344,0,0,0-3.191-5.484l-7.977-4.537V1042a7.307,7.307,0,0,0,1.6-4.537v-2.144a.823.823,0,0,0,0-.5v-1.7c0,.081,0,.089,0-.05v-4.785a5.886,5.886,0,0,0-1.246-3.141,3.965,3.965,0,0,0-3.091-1.346h-.748Zm1,1.7a2.3,2.3,0,0,1,1.645.7,4.364,4.364,0,0,1,.848,2.293v4.835a4.343,4.343,0,0,0-1-.349,12.475,12.475,0,0,0-2.842-.1,8.877,8.877,0,0,1-2.543-.15,2.526,2.526,0,0,1-1.7-1.3.77.77,0,0,0-1.446.2c.029-.109-.083.142-.3.4a9.161,9.161,0,0,1-.848.847c-.177.158-.33.271-.5.4v-3.39a2.741,2.741,0,0,1,2.742-2.792H23.5a3.515,3.515,0,0,0,1.795-.648c.285-.2.355-.625.548-.948Zm-6.032,7.428a4.7,4.7,0,0,0,1.745,1.346,9.591,9.591,0,0,0,2.991.2,12.357,12.357,0,0,1,2.493.05,1.815,1.815,0,0,1,1.3.8v2.144a5.584,5.584,0,1,1-11.167,0v-2.243a4.926,4.926,0,0,0,.449-.3,8.477,8.477,0,0,0,1.1-.848,10.347,10.347,0,0,0,1-1c.041-.048.061-.1.1-.15Zm-1.047,10.619a7.509,7.509,0,0,0,7.977,0v3.041a10.917,10.917,0,0,1-2.642,3.689l-.05.049-1.3,1.2-1.2-1.2-.1-.1a13.471,13.471,0,0,1-2.692-3.988v-2.692Zm-2.194,4.437-1,3.54v.1a1.7,1.7,0,0,0,2.343,1.745v-.05l2.941-1.446,1.1,1.047v8.475H13.977V1057.4h-1.6v3.988H7.6v-5.434a5,5,0,0,1,2.493-4.337l6.481-3.639Zm1.6,0a15.112,15.112,0,0,0,1.7,2.592l-2.642,1.346c-.061.029-.066.035-.05-.1l1-3.839Zm11.018.1,6.331,3.639a4.732,4.732,0,0,1,2.393,4.088v5.584H33.17V1057.4h-1.6v3.988H23.549v-8.425l1.2-1.1,3.141,1.5a1.7,1.7,0,0,0,2.343-1.745v-.148s-.442-1.346-.848-2.692c-.076-.254-.125-.456-.2-.7Zm-1.6.249c.092.318.15.617.249.947.388,1.288.754,2.406.8,2.543.014.108,0,.143-.1.1l-2.692-1.3a12.139,12.139,0,0,0,1.745-2.29Zm-2.443,7.479a.8.8,0,1,0,.8.8A.8.8,0,0,0,25.144,1055.806Zm0,3.191a.8.8,0,1,0,.8.8A.8.8,0,0,0,25.144,1059Z" transform="translate(-6 -1023.8)" fill="#22577a"/>
  </g>
</svg>
