<svg xmlns="http://www.w3.org/2000/svg" width="40.609" height="36.002" viewBox="0 0 40.609 36.002">
  <path id="cetificate" d="M38.346,59H1.763A1.764,1.764,0,0,0,0,60.763V84.5a1.764,1.764,0,0,0,1.763,1.763H26.628V93.35a1.136,1.136,0,0,0,1.76.949l2.4-1.578,2.4,1.578a1.136,1.136,0,0,0,1.76-.949V86.261h3.4A1.764,1.764,0,0,0,40.109,84.5V60.763A1.764,1.764,0,0,0,38.346,59ZM33.77,93.277l-2.356-1.553a1.137,1.137,0,0,0-1.249,0l-2.359,1.553V85.439a2.545,2.545,0,0,1,.615.137,3.264,3.264,0,0,1,.669.457,2.773,2.773,0,0,0,1.7.8,2.769,2.769,0,0,0,1.7-.8,3.307,3.307,0,0,1,.669-.457,2.536,2.536,0,0,1,.615-.137Zm1.114-9.322a1.979,1.979,0,0,1-1.032.288,4.3,4.3,0,0,0-1.148.247,4.077,4.077,0,0,0-.95.627,1.933,1.933,0,0,1-.967.541,1.933,1.933,0,0,1-.967-.541,4.179,4.179,0,0,0-.95-.627,4.3,4.3,0,0,0-1.148-.247,1.971,1.971,0,0,1-1.032-.289,1.986,1.986,0,0,1-.289-1.032,5.288,5.288,0,0,0-.169-.929c0-.013-.008-.026-.013-.038-.02-.06-.04-.121-.065-.179a4.186,4.186,0,0,0-.623-.951,1.929,1.929,0,0,1-.541-.967,1.928,1.928,0,0,1,.541-.966,4.058,4.058,0,0,0,.623-.951,4.289,4.289,0,0,0,.247-1.147,1.989,1.989,0,0,1,.289-1.033,2.016,2.016,0,0,1,1.032-.289,4.27,4.27,0,0,0,1.148-.246,4.094,4.094,0,0,0,.95-.627,1.936,1.936,0,0,1,.967-.541,1.936,1.936,0,0,1,.967.541,4.179,4.179,0,0,0,.95.627,4.27,4.27,0,0,0,1.148.246,1.986,1.986,0,0,1,1.032.289,1.987,1.987,0,0,1,.289,1.033,4.257,4.257,0,0,0,.247,1.147c.01.024.021.048.032.071l.016.036a4.6,4.6,0,0,0,.574.844,1.931,1.931,0,0,1,.541.966,1.932,1.932,0,0,1-.541.967,4.058,4.058,0,0,0-.623.951,4.289,4.289,0,0,0-.247,1.147,1.99,1.99,0,0,1-.289,1.034ZM24.612,81.561v0H6.986A2.948,2.948,0,0,0,4.7,79.27V65.992A2.948,2.948,0,0,0,6.992,63.7H33.117a2.948,2.948,0,0,0,2.291,2.291v8.7a3.441,3.441,0,0,0-1.417-.385,3.45,3.45,0,0,1-.837-.165,3.264,3.264,0,0,1-.669-.457,2.774,2.774,0,0,0-1.7-.8,2.77,2.77,0,0,0-1.7.8,3.307,3.307,0,0,1-.669.457,3.451,3.451,0,0,1-.837.165,2.753,2.753,0,0,0-1.723.627,2.777,2.777,0,0,0-.627,1.723,3.4,3.4,0,0,1-.165.836,3.235,3.235,0,0,1-.457.67,2.212,2.212,0,0,0,0,3.4ZM38.934,84.5a.588.588,0,0,1-.588.588H35.3a1.684,1.684,0,0,0,.412-.3,2.776,2.776,0,0,0,.627-1.723,3.4,3.4,0,0,1,.165-.836,3.235,3.235,0,0,1,.457-.67,2.208,2.208,0,0,0,0-3.4,5,5,0,0,1-.38-.515V65.463A.588.588,0,0,0,36,64.875a1.764,1.764,0,0,1-1.763-1.763.588.588,0,0,0-.588-.588H6.463a.588.588,0,0,0-.588.588,1.764,1.764,0,0,1-1.763,1.763.588.588,0,0,0-.588.588V79.8a.588.588,0,0,0,.588.588,1.764,1.764,0,0,1,1.763,1.763.588.588,0,0,0,.588.588H25.192c.016.1.029.215.042.327a2.744,2.744,0,0,0,.627,1.723,1.684,1.684,0,0,0,.412.3H1.763a.588.588,0,0,1-.588-.588V60.763a.588.588,0,0,1,.588-.588H38.346a.588.588,0,0,1,.588.588Zm-17.91-5.484a5.143,5.143,0,0,1-3.166.281,4.884,4.884,0,0,1-.987-.407,4.63,4.63,0,0,0-1.462-.521,5.2,5.2,0,0,0-3.35.68.588.588,0,1,0,.561,1.033,4.072,4.072,0,0,1,2.6-.553,3.686,3.686,0,0,1,1.12.41,5.944,5.944,0,0,0,1.208.49,5.218,5.218,0,0,0,1.376.18,7.12,7.12,0,0,0,2.507-.5.588.588,0,0,0-.412-1.1Zm2.556-3.564H7.638a.588.588,0,0,0,0,1.175H23.58a.588.588,0,0,0,0-1.175Zm0-2.35H7.638a.588.588,0,0,0,0,1.175H23.58a.588.588,0,0,0,0-1.175Zm7.207,3.311a3.447,3.447,0,1,0,3.447,3.447A3.447,3.447,0,0,0,30.787,76.411Zm0,5.719a2.272,2.272,0,1,1,2.272-2.272A2.272,2.272,0,0,1,30.787,82.13ZM14.1,71.338a.588.588,0,0,0,.588.588H32.471a.588.588,0,1,0,0-1.175H14.688a.588.588,0,0,0-.588.588Zm-6.463.588H11.32a.588.588,0,1,0,0-1.175H7.638a.588.588,0,0,0,0,1.175Zm4.7-4.7H27.771a.588.588,0,0,0,0-1.175H12.338a.588.588,0,0,0,0,1.175Z" transform="translate(0.25 -58.75)" fill="#22577a" stroke="#22577a" stroke-width="0.5"/>
</svg>
