<svg xmlns="http://www.w3.org/2000/svg" xmlns:xlink="http://www.w3.org/1999/xlink" width="766.001" height="539.658" xmlns:v="https://vecta.io/nano"><style><![CDATA[.B{fill:#372168}.C{fill:rgba(255,255,255,0.09)}.D{fill:#fff}.E{fill:#bec5d8}.F{fill:rgba(255,255,255,0.16)}.G{fill:#666}.H{fill:#d8d3da}.I{fill:#8ab99e}.J{fill:#f9f9f9}.K{fill:#95bfa7}]]></style><g class="H"><path d="M725.946 158.504c-.417 0-.755-.338-.755-.755a8.1 8.1 0 0 0-12.078-7.045c-.246.139-.549.129-.785-.026s-.366-.428-.337-.709a10.45 10.45 0 0 0 .05-1.077 11.75 11.75 0 0 0-22.243-5.284 1.23 1.23 0 0 1-1.183.684c-.497-.029-.931-.349-1.107-.815-1.783-4.769-6.473-7.813-11.555-7.499s-9.362 3.911-10.545 8.863a.98.98 0 0 1-1.807.267 14.16 14.16 0 0 0-12.3-6.819 14.52 14.52 0 0 0-8.439 2.637c-.311.207-.722.183-1.006-.06a.82.82 0 0 1-.171-1.006 15.86 15.86 0 0 0-13.95-23.418h-.181a15.54 15.54 0 0 0-3.135.347c-.499.11-1.017-.072-1.338-.47a1.34 1.34 0 0 1-.172-1.407 12.85 12.85 0 0 0 1.188-5.435c-.006-7.161-5.81-12.966-12.971-12.973a13.3 13.3 0 0 0-1.625.1c-.289.035-.573-.099-.729-.345s-.156-.56-.001-.807a10.48 10.48 0 0 0 1.6-5.662c-.117-5.773-4.795-10.41-10.568-10.477h-.068a10.54 10.54 0 0 0-7.232 2.934c-.404.394-1.018.475-1.51.2a1.29 1.29 0 0 1-.634-1.409c.985-4.172-.416-8.547-3.642-11.371s-7.749-3.632-11.753-2.102-6.836 5.148-7.358 9.403c-.038.433-.351.792-.774.891s-.862-.086-1.088-.458a12.98 12.98 0 0 0-22.917 11.796 1.06 1.06 0 0 1-.33 1.206c-.361.287-.868.306-1.25.047a15.1 15.1 0 0 0-8.5-2.6h0a15.22 15.22 0 0 0-12.05 5.993 15.23 15.23 0 0 0-2.589 13.207c.087.392-.149.784-.537.891s-.791-.109-.917-.491c-1.408-5.027-.376-10.424 2.788-14.577s8.092-6.581 13.312-6.559h.03a16.61 16.61 0 0 1 8.278 2.189c-1.854-6.639 1.228-13.666 7.369-16.798s13.638-1.502 17.924 3.898c1.532-6.946 8.333-11.396 15.311-10.018a13.09 13.09 0 0 1 10.355 15.086 12.08 12.08 0 0 1 18.766 14.3h.387a14.49 14.49 0 0 1 12.107 6.541c2.677 4.08 3.122 9.232 1.184 13.71a17.27 17.27 0 0 1 3.11-.312h.2a17.36 17.36 0 0 1 16.215 23.592 16.23 16.23 0 0 1 7.373-1.741c5.134-.052 9.972 2.398 12.969 6.567 1.737-5.15 6.477-8.69 11.908-8.893s10.423 2.972 12.54 7.977a13.26 13.26 0 0 1 24.835 6.391 9.61 9.61 0 0 1 13.175 8.933.76.76 0 0 1-.246.573.75.75 0 0 1-.594.192zm-261.617-2.441c-.417 0-.755-.338-.755-.755a12.08 12.08 0 0 1 17.78-10.6 13.8 13.8 0 0 1 13.587-11.669 14.04 14.04 0 0 1 3.045.337 10.81 10.81 0 0 1 19.853-.252 12.05 12.05 0 0 1 13.15 9.154c.077.397-.172.785-.566.879s-.792-.138-.903-.527a10.5 10.5 0 0 0-10.257-8.081 9.98 9.98 0 0 0-1.761.151.76.76 0 0 1-.84-.473 9.3 9.3 0 0 0-17.493.291.76.76 0 0 1-.921.5 12.27 12.27 0 0 0-15.546 11.02.75.75 0 0 1-.423.634c-.244.116-.531.095-.755-.055-3.23-2.193-7.407-2.421-10.857-.594a10.54 10.54 0 0 0-5.608 9.315c-.016.396-.334.712-.73.725zm123.717 15.123a.76.76 0 0 1-.534-.221c-.142-.141-.221-.334-.221-.534a5.99 5.99 0 0 0-10.22-4.238.75.75 0 0 1-1.067 0 .76.76 0 0 1 0-1.067 7.5 7.5 0 0 1 12.8 5.3c.001.202-.078.395-.22.538s-.336.223-.538.222z"/><path d="M588.047 170.743c-.417 0-.755-.338-.755-.755a7.5 7.5 0 0 1 12.8-5.3c.295.295.294.773-.001 1.068s-.773.294-1.068-.001a5.99 5.99 0 0 0-10.221 4.233.76.76 0 0 1-.221.534c-.141.142-.334.221-.534.221zm-24.035-48.679a.74.74 0 0 1-.231-.035c-.193-.059-.355-.192-.449-.371s-.112-.388-.051-.58a4.28 4.28 0 0 0-6.349-4.938c-.228.144-.516.155-.754.03s-.392-.369-.403-.639.123-.524.351-.668a5.78 5.78 0 0 1 8.616 6.7.76.76 0 0 1-.73.5zm112.314 64.208c-.253 0-.489-.126-.629-.336a5.78 5.78 0 0 1 6.451-8.757c.272.065.487.275.556.547s-.017.559-.224.747-.502.246-.765.15c-1.726-.511-3.587.115-4.654 1.564a4.27 4.27 0 0 0-.111 4.908c.232.346.14.815-.206 1.047a.73.73 0 0 1-.418.13zm-150.61-1.076c-.25-.002-.484-.126-.625-.333a5.78 5.78 0 0 1 6.451-8.761c.277.059.498.269.572.543s-.013.566-.223.756-.51.246-.775.145c-1.726-.512-3.588.113-4.656 1.562s-1.112 3.413-.111 4.91c.229.347.135.815-.212 1.045a.71.71 0 0 1-.421.133zm239.534 23.179a.76.76 0 0 1-.534-.221c-.142-.141-.221-.334-.221-.534-.017-3.087-1.516-5.978-4.028-7.772s-5.733-2.272-8.659-1.286c-.272.095-.574.028-.779-.175s-.278-.503-.187-.776a7.69 7.69 0 0 0 .393-2.451 7.83 7.83 0 0 0-15.033-3.065c-.117.273-.382.452-.679.458s-.563-.161-.694-.423c-1.408-2.918-4.646-4.474-7.803-3.752s-5.397 3.532-5.397 6.771v.242a.76.76 0 0 1-.387.73.75.75 0 0 1-.825-.065c-.916-.707-2.043-1.088-3.2-1.082-2.11 0-4.015 1.262-4.838 3.205-.098.259-.329.444-.604.482s-.548-.078-.712-.302-.192-.519-.073-.769c.727-1.706 2.12-3.04 3.856-3.692s3.663-.565 5.333.24c.416-3.466 2.921-6.32 6.304-7.184s6.949.441 8.975 3.284a9.34 9.34 0 0 1 17.281 4.912 9.06 9.06 0 0 1-.141 1.615 10.9 10.9 0 0 1 2.33-.247A11.07 11.07 0 0 1 766 207.59c.008.205-.067.404-.209.552s-.337.232-.541.233zm-142.635-2.209a.76.76 0 0 1-.72-.5 4.27 4.27 0 0 0-3.942-2.963c-1.809-.053-3.455 1.039-4.11 2.726-.08.275-.308.481-.59.532s-.568-.061-.739-.29-.199-.535-.071-.791c.889-2.27 3.108-3.737 5.545-3.667s4.568 1.662 5.325 3.979c.129.395-.084.819-.478.951a.83.83 0 0 1-.216.025zm122.706 32.188a.76.76 0 0 1-.72-.5c-.555-1.722-2.135-2.908-3.944-2.96s-3.455 1.041-4.108 2.729c-.152.389-.591.58-.98.428s-.58-.591-.428-.98a5.78 5.78 0 0 1 10.875.312c.061.192.043.401-.051.58s-.256.312-.449.371a.82.82 0 0 1-.191.02zM198.631 92.966c-.417 0-.755-.338-.755-.755a9.61 9.61 0 0 1 13.175-8.932 13.26 13.26 0 0 1 24.835-6.392c2.117-5.006 7.109-8.181 12.54-7.977s10.171 3.743 11.908 8.893a15.78 15.78 0 0 1 12.969-6.542 16.23 16.23 0 0 1 7.373 1.738 17.36 17.36 0 0 1 16.41-23.589c1.044.009 2.085.115 3.11.317a14.5 14.5 0 0 1 13.286-20.256h.394a12.08 12.08 0 0 1 10.92-17.2h.08a12.04 12.04 0 0 1 7.765 2.9 13.08 13.08 0 0 1 25.645-5.068 14.49 14.49 0 0 1 25.29 12.882 16.64 16.64 0 0 1 8.278-2.189h.03c5.203.012 10.105 2.444 13.26 6.582s4.205 9.508 2.84 14.529c-.06.272-.266.489-.534.564s-.557-.004-.749-.206-.258-.493-.17-.758a15.34 15.34 0 0 0 .5-3.553 15.1 15.1 0 0 0-15.154-15.649h0a15.1 15.1 0 0 0-8.5 2.6 1.06 1.06 0 0 1-1.585-1.253c.546-1.448.825-2.982.825-4.529.02-5.72-3.708-10.779-9.178-12.453s-11.391.433-14.575 5.186c-.226.372-.664.556-1.088.458s-.736-.458-.774-.891c-.861-5.874-6.027-10.144-11.958-9.885s-10.705 4.964-11.05 10.891a11.31 11.31 0 0 0 .252 3.06 1.3 1.3 0 0 1-.634 1.409c-.492.275-1.106.194-1.51-.2a10.51 10.51 0 0 0-7.227-2.934h-.065a10.7 10.7 0 0 0-10.573 10.479c-.015 2.002.542 3.966 1.605 5.662a.76.76 0 0 1 0 .81c-.155.247-.441.381-.73.342a13.32 13.32 0 0 0-1.631-.1c-7.151.023-12.938 5.823-12.943 12.974a12.85 12.85 0 0 0 1.188 5.435c.215.464.148 1.009-.172 1.407s-.839.58-1.338.47a15.87 15.87 0 0 0-17.26 23.073c.182.337.108.754-.178 1.008s-.709.279-1.022.059a14.55 14.55 0 0 0-8.444-2.637 14.16 14.16 0 0 0-12.3 6.819.98.98 0 0 1-1.807-.267c-1.183-4.952-5.463-8.549-10.545-8.863s-9.772 2.73-11.555 7.499c-.176.466-.61.786-1.107.815a1.23 1.23 0 0 1-1.183-.684 11.75 11.75 0 0 0-22.243 5.284 10.45 10.45 0 0 0 .05 1.077c.029.281-.101.554-.337.709s-.539.165-.785.026a8.1 8.1 0 0 0-12.078 7.045c.002.207-.082.406-.232.55a.75.75 0 0 1-.558.21zm261.611-2.44c-.417 0-.755-.338-.755-.755a10.57 10.57 0 0 0-16.461-8.721c-.224.15-.511.171-.755.055a.75.75 0 0 1-.423-.634 12.27 12.27 0 0 0-15.544-11.016c-.392.108-.798-.113-.921-.5a9.3 9.3 0 0 0-17.493-.292c-.133.336-.483.534-.84.473a10.09 10.09 0 0 0-1.761-.151 10.5 10.5 0 0 0-10.257 8.079c-.11.391-.509.624-.904.53s-.644-.484-.565-.883a12.05 12.05 0 0 1 13.16-9.134 10.81 10.81 0 0 1 19.853.252 14.04 14.04 0 0 1 3.045-.337 13.8 13.8 0 0 1 13.588 11.67 12.08 12.08 0 0 1 17.774 10.609c0 .412-.33.747-.741.755zM336.53 105.648c-.416 0-.754-.337-.755-.753a7.5 7.5 0 0 1 12.8-5.3c.296.295.297.773.002 1.069a.76.76 0 0 1-1.07.003c-1.71-1.716-4.287-2.232-6.526-1.306s-3.699 3.111-3.697 5.534a.76.76 0 0 1-.221.534c-.141.142-.334.221-.534.221z"/><path d="M336.53 105.205a.76.76 0 0 1-.534-.221c-.142-.141-.221-.334-.221-.534-.007-3.304-2.686-5.98-5.99-5.982a5.93 5.93 0 0 0-4.231 1.75c-.295.295-.773.296-1.068.001s-.296-.773-.001-1.068a7.5 7.5 0 0 1 12.787 5.3c0 .412-.33.747-.742.754zm24.035-48.664c-.322.004-.611-.197-.72-.5a5.78 5.78 0 0 1 8.585-6.686c.249.134.402.395.398.678s-.167.539-.42.664-.555.099-.783-.069a4.28 4.28 0 0 0-6.346 4.942c.061.192.043.401-.051.58s-.256.312-.449.371a.74.74 0 0 1-.214.02zm-112.314 64.195c-.279-.001-.535-.155-.666-.402a.75.75 0 0 1 .042-.776 4.28 4.28 0 0 0-4.771-6.472c-.386.084-.772-.145-.884-.524s.087-.78.457-.92a5.78 5.78 0 0 1 6.451 8.761c-.139.212-.376.339-.629.337zm150.603-1.077c-.28.001-.538-.152-.67-.399s-.116-.547.041-.779c1-1.496.955-3.458-.111-4.907a4.27 4.27 0 0 0-4.652-1.565c-.263.096-.558.038-.765-.15s-.294-.476-.224-.747.284-.482.556-.547a5.78 5.78 0 0 1 6.457 8.759.75.75 0 0 1-.632.335zm-157.936 60.872a.67.67 0 0 1-.292-.06c-.188-.078-.337-.229-.412-.419s-.071-.401.012-.587a6.76 6.76 0 0 1 6.232-4.133 6.66 6.66 0 0 1 2.954.679c.416-3.466 2.921-6.32 6.304-7.184s6.949.441 8.975 3.284c1.57-2.544 4.264-4.182 7.245-4.406s5.889.994 7.822 3.276c.263.319.221.789-.095 1.056s-.786.231-1.057-.08c-1.758-2.072-4.465-3.084-7.151-2.673s-4.967 2.186-6.024 4.689c-.119.271-.383.45-.679.458a.79.79 0 0 1-.694-.428c-1.408-2.918-4.646-4.475-7.804-3.752s-5.397 3.532-5.396 6.772v.242c.026.299-.127.584-.39.728s-.586.119-.823-.064a5.19 5.19 0 0 0-3.187-1.087 5.25 5.25 0 0 0-4.841 3.211.76.76 0 0 1-.694.478zm61.069-39.902a.67.67 0 0 1-.237-.04c-.193-.059-.355-.192-.449-.371s-.112-.388-.051-.58c.76-2.275 2.836-3.851 5.231-3.971 2.471-.119 4.742 1.353 5.641 3.658.117.377-.076.78-.443.926s-.784-.017-.957-.372c-.653-1.688-2.299-2.781-4.108-2.729s-3.389 1.238-3.944 2.96a.76.76 0 0 1-.679.518zm68.929 73.81a.76.76 0 0 1-.534-.221c-.142-.141-.221-.334-.221-.534-.017-3.087-1.516-5.978-4.028-7.772s-5.733-2.272-8.659-1.286c-.271.096-.574.03-.78-.171a.77.77 0 0 1-.186-.78c.262-.789.395-1.615.393-2.446a7.83 7.83 0 0 0-15.032-3.071.75.75 0 0 1-.674.458c-.294.001-.564-.162-.7-.423-1.408-2.918-4.646-4.474-7.803-3.752s-5.397 3.532-5.397 6.771a1.98 1.98 0 0 0 0 .242.76.76 0 0 1-1.213.664c-1.291-.996-2.972-1.336-4.549-.92s-2.871 1.541-3.503 3.044c-.078.188-.229.337-.419.412s-.401.071-.587-.012a.75.75 0 0 1-.4-1.006c.723-1.71 2.116-3.048 3.853-3.702s3.667-.566 5.338.243c.416-3.466 2.921-6.32 6.304-7.184s6.949.441 8.975 3.284a9.34 9.34 0 0 1 17.281 4.917c0 .54-.045 1.078-.136 1.61.764-.165 1.543-.248 2.324-.246a11.07 11.07 0 0 1 11.073 11.071.75.75 0 0 1-.189.557.76.76 0 0 1-.531.253zm-221.654-2.475a.76.76 0 0 1-.534-.221c-.142-.141-.221-.334-.221-.534-.006-3.305-2.684-5.981-5.989-5.984a5.93 5.93 0 0 0-4.232 1.751c-.188.203-.472.286-.74.218s-.477-.277-.545-.545.015-.552.218-.74a7.5 7.5 0 0 1 12.8 5.3.76.76 0 0 1-.221.534c-.141.142-.334.221-.534.221z"/><path d="M149.262 211.526c-.416 0-.754-.337-.755-.753a7.5 7.5 0 0 1 12.8-5.3c.262.301.245.754-.039 1.034s-.737.292-1.035.026c-1.712-1.713-4.289-2.225-6.526-1.296s-3.694 3.114-3.69 5.536a.76.76 0 0 1-.221.534c-.141.142-.334.221-.534.221zM22.565 132.179a.76.76 0 0 1-.534-.221c-.142-.141-.221-.334-.221-.534a12.08 12.08 0 0 1 12.078-12.078 11.94 11.94 0 0 1 5.722 1.445 13.79 13.79 0 0 1 16.657-11.333c1.703-4.086 5.724-6.722 10.151-6.653s8.364 2.828 9.939 6.965c.118.256.083.557-.091.779a.76.76 0 0 1-.734.278c-.277-.051-.503-.254-.584-.524a9.3 9.3 0 0 0-17.5.292.75.75 0 0 1-.916.5 12.29 12.29 0 0 0-15.55 11.021.75.75 0 0 1-1.172.577 10.57 10.57 0 0 0-16.465 8.726c.001.206-.081.403-.228.546s-.347.221-.552.214zm-3.688 37.829a.76.76 0 0 1-.534-.221c-.142-.141-.221-.334-.221-.534a6 6 0 0 0-5.989-5.988c-1.589-.005-3.113.628-4.232 1.756a.76.76 0 0 1-1.067 0 .75.75 0 0 1 0-1.067 7.43 7.43 0 0 1 5.299-2.199 7.51 7.51 0 0 1 7.5 7.5c-.001.417-.339.754-.756.753z"/><path d="M18.877 169.566c-.417 0-.755-.338-.755-.755a7.5 7.5 0 0 1 12.8-5.3.76.76 0 0 1 0 1.067.75.75 0 0 1-1.067 0 5.99 5.99 0 0 0-10.223 4.233c0 .417-.338.755-.755.755zm92.094-26.869c-.417 0-.755-.338-.755-.755a11.07 11.07 0 0 1 11.071-11.071 11.23 11.23 0 0 1 2.33.247 9.53 9.53 0 0 1-.141-1.61 9.34 9.34 0 0 1 17.282-4.928c2.027-2.843 5.593-4.147 8.975-3.284s5.887 3.717 6.304 7.184a6.66 6.66 0 0 1 2.954-.679c2.721-.004 5.179 1.624 6.235 4.132.143.379-.039.803-.412.961s-.804-.006-.977-.372a5.26 5.26 0 0 0-4.846-3.211 5.2 5.2 0 0 0-3.2 1.087c-.237.183-.561.208-.823.064s-.416-.43-.39-.728v-.242c0-3.239-2.239-6.049-5.397-6.771s-6.396.835-7.803 3.752c-.128.267-.401.434-.697.427s-.561-.185-.677-.457a7.83 7.83 0 0 0-14.639 5.536c.091.273.019.574-.187.776s-.508.27-.779.175a9.3 9.3 0 0 0-3.125-.528c-5.279.002-9.557 4.281-9.558 9.56-.011.407-.343.732-.75.735zm229.771 80.58c-.863-.001-1.597-.632-1.725-1.486s.386-1.673 1.21-1.928c.611-.192 61.5-19.582 84.962-72.155.241-.59.784-1.001 1.417-1.073s1.255.205 1.623.725.425 1.199.147 1.772c-12.615 28.268-35.628 46.9-52.713 57.55-18.482 11.523-33.764 16.316-34.406 16.517a1.73 1.73 0 0 1-.515.079zm211.114-8.469c-38.195 0-65.974-17.827-82.562-32.773-17.94-16.177-26.74-32.11-27.063-32.782a1.75 1.75 0 0 1 1.583-2.581 1.75 1.75 0 0 1 1.49.914 137.24 137.24 0 0 0 26.47 31.935c16.107 14.51 43.092 31.8 80.126 31.8 28.993.124 57.081-10.092 79.219-28.814 16.962-14.236 25.22-28.583 25.317-28.736a1.752 1.752 0 1 1 3.038 1.746c-.349.611-8.652 15.042-26.095 29.683a125.32 125.32 0 0 1-81.523 29.6zm212.398 12.484a1.57 1.57 0 0 1-.594-.113c-63.643-23.135-90.105-71.658-90.367-72.146-.437-.849-.111-1.891.732-2.34s1.889-.137 2.35.699c.253.48 26.147 47.842 88.472 70.514.796.289 1.27 1.108 1.123 1.943s-.87 1.443-1.717 1.444zm0 36.108H340.742c-.964 0-1.746-.782-1.746-1.746s.782-1.746 1.746-1.746h423.512c.964 0 1.746.782 1.746 1.746s-.782 1.746-1.746 1.746z"/></g><path d="M426.787 375.462V118.219a1.45 1.45 0 0 1 1.449-1.451h14.038c.8 0 1.449.646 1.449-1.449v240.352" class="D"/><path d="M426.787 377.208c-.463 0-.907-.184-1.235-.511s-.511-.772-.511-1.235V118.218a3.2 3.2 0 0 1 3.2-3.2h13.763c.083-.964.932-1.679 1.896-1.596s1.679.932 1.596 1.896V355.67c0 .964-.782 1.746-1.746 1.746s-1.746-.782-1.746-1.746V118.518h-13.445v256.944c0 .468-.187.916-.521 1.244s-.784.509-1.251.502z" class="H"/><path d="M657.893 285.409V112.071c0 5.186.489 4.7 1.091 4.7h14.754a1.09 1.09 0 0 1 1.091 1.091v191.62" class="D"/><g class="H"><path d="M674.83 311.225a1.75 1.75 0 0 1-1.235-.511c-.328-.327-.511-.772-.511-1.235V118.514h-13.445v166.9c0 .964-.782 1.746-1.746 1.746s-1.746-.782-1.746-1.746V112.071c0-.964.782-1.746 1.746-1.746s1.746.782 1.746 1.746a21.37 21.37 0 0 0 .1 2.951h13.964c1.565.005 2.832 1.272 2.837 2.837v191.62c0 .95-.76 1.726-1.71 1.746zm-277.473-47.824c-.463 0-.907-.184-1.235-.512s-.511-.772-.511-1.235v-12.929c0-.964.782-1.746 1.746-1.746s1.746.782 1.746 1.746v12.929a1.75 1.75 0 0 1-1.746 1.747zm0-24.297a1.75 1.75 0 0 1-1.235-.511c-.328-.327-.511-.772-.511-1.235v-47.702c0-.964.782-1.746 1.746-1.746s1.746.782 1.746 1.746v47.7c.001.463-.183.908-.511 1.236s-.772.512-1.235.512zm-31.874 24.07a1.75 1.75 0 0 1-1.235-.511c-.328-.327-.511-.772-.511-1.235v-50.845c0-.964.782-1.746 1.746-1.746s1.746.782 1.746 1.746v50.845a1.75 1.75 0 0 1-.511 1.235c-.327.328-.772.511-1.235.511zm108.552.227a1.75 1.75 0 0 1-1.235-.511c-.328-.327-.511-.772-.511-1.235v-77.42c0-.964.782-1.746 1.746-1.746s1.746.782 1.746 1.746v77.42a1.75 1.75 0 0 1-.511 1.235c-.327.328-.772.511-1.235.511z"/><use xlink:href="#B"/><path d="M552.458 263.4c-.463 0-.907-.184-1.235-.511s-.511-.772-.511-1.235l-.646-48.592c0-.964.782-1.746 1.746-1.746h0c.964 0 1.746.782 1.746 1.746l.646 48.592c0 .463-.184.907-.511 1.235s-.772.511-1.235.511z"/><use xlink:href="#B" x="81.784"/><path d="M626.709 263.399c-.964 0-1.745-.78-1.746-1.744v-38.71c0-.964.782-1.746 1.746-1.746s1.746.782 1.746 1.746v38.71c-.001.964-.782 1.744-1.746 1.744zm0-48.591a1.75 1.75 0 0 1-1.235-.511c-.328-.327-.511-.772-.511-1.235v-24.82c0-.964.782-1.746 1.746-1.746s1.746.782 1.746 1.746v24.846c-.014.954-.792 1.72-1.746 1.72zM705.7 263.4c-.964 0-1.746-.782-1.746-1.746v-70.793c0-.964.782-1.746 1.746-1.746s1.746.782 1.746 1.746v70.828c-.019.951-.795 1.711-1.746 1.711zm28.749 0c-.963 0-1.744-.779-1.746-1.742v-50.054c0-.964.782-1.746 1.746-1.746s1.746.782 1.746 1.746v50.054c-.002.963-.783 1.742-1.746 1.742z"/></g><use xlink:href="#C" class="D"/><path d="M431.021 118.514c-.463 0-.907-.184-1.235-.512s-.511-.772-.511-1.235v-11.811a3.31 3.31 0 0 1 3.3-3.309h5.352a3.31 3.31 0 0 1 3.308 3.309v11.811c0 .463-.184.908-.511 1.235s-.772.512-1.235.512z" class="H"/><use xlink:href="#C" x="231.124" class="D"/><g class="H"><path d="M662.127 118.514c-.463 0-.907-.184-1.235-.512s-.511-.772-.511-1.235v-11.811a3.31 3.31 0 0 1 3.309-3.309h5.351a3.31 3.31 0 0 1 3.3 3.309v11.811c0 .463-.184.908-.511 1.235s-.772.512-1.235.512z"/><use xlink:href="#D"/><path d="M436.867 218.798h-3.227c-.482 0-.873-.391-.873-.873s.391-.873.873-.873h3.227c.482 0 .873.391.873.873s-.391.873-.873.873z"/><use xlink:href="#D" x="-12.702" y="152.456"/><use xlink:href="#D" x="218.404" y="-2.235"/><use xlink:href="#D" x="228.994" y="72.662"/></g><use xlink:href="#E" fill="#f96"/><use xlink:href="#E" class="C"/><path d="M55.36 161.053a11.25 11.25 0 0 1-11.247-11.246V87.718c.006-2.56 1.053-5.008 2.9-6.78l49.84-47.6a14.14 14.14 0 0 1 19.55 0l49.839 47.6a9.4 9.4 0 0 1 2.9 6.778v62.091a11.26 11.26 0 0 1-11.247 11.247z" class="B"/><path d="M60.913 59.145v-8.228a4.63 4.63 0 0 1 4.636-4.636h82.143c1.23-.001 2.411.487 3.281 1.356s1.36 2.05 1.36 3.28v43.89l-2.459 1.653-28.261 19.051a26.8 26.8 0 0 1-29.933 0L63.394 96.464l-2.463-1.661V65.549" class="D"/><g class="B"><path d="M106.631 120.989a27.61 27.61 0 0 1-15.46-4.746L60.419 95.529a.88.88 0 0 1-.388-.73V65.544a.88.88 0 1 1 1.763 0V94.33l30.36 20.444a25.8 25.8 0 0 0 28.946 0l30.351-20.439V50.917c-.005-2.073-1.686-3.752-3.759-3.755H65.549a3.76 3.76 0 0 0-3.755 3.755v8.228a.88.88 0 0 1-1.322.763.88.88 0 0 1-.441-.763v-8.228c.002-3.047 2.471-5.516 5.518-5.518h82.143c3.048 0 5.52 2.47 5.522 5.518v43.89a.88.88 0 0 1-.392.732l-30.735 20.712a27.63 27.63 0 0 1-15.456 4.738z"/><path d="M106.627 120.989a27.61 27.61 0 0 1-15.46-4.746L45.131 85.234a.88.88 0 0 1 .982-1.458l46.04 31a25.8 25.8 0 0 0 28.946 0l46.04-31a.88.88 0 0 1 1.18.265.88.88 0 0 1-.196 1.193l-46.036 31a27.63 27.63 0 0 1-15.46 4.746z"/></g><use xlink:href="#F" fill="#ccc4f7"/><use xlink:href="#F" class="C"/><path d="M157.894 161.053H55.357a11.14 11.14 0 0 1-6.744-2.247.88.88 0 0 1-.106-1.321l17.535-18.035 5.985-6.073a.88.88 0 0 1 1.494.377.88.88 0 0 1-.238.861l-5.98 6.06-16.795 17.271a9.42 9.42 0 0 0 4.849 1.323H157.89c1.706.009 3.383-.448 4.848-1.322l-49.615-50.876a9.04 9.04 0 0 0-6.492-2.724h-.026a9.02 9.02 0 0 0-6.492 2.746l-18.796 19.273a.88.88 0 0 1-1.503-.364.88.88 0 0 1 .243-.866l18.8-19.272a10.76 10.76 0 0 1 7.744-3.279h.031c2.913-.01 5.707 1.16 7.743 3.244l.026.026 50.337 51.615a.88.88 0 0 1-.1 1.322 11.15 11.15 0 0 1-6.743 2.261zm-9.532-107.558a.44.44 0 0 1-.436-.445 2.03 2.03 0 0 0-2.023-2.019.44.44 0 0 1-.42-.441.44.44 0 0 1 .42-.441 2.91 2.91 0 0 1 2.9 2.9.44.44 0 0 1-.441.445zm-45.587 58.398a.44.44 0 0 1-.3-.749 5.73 5.73 0 0 1 4.108-1.763h0a5.73 5.73 0 0 1 4.112 1.723.44.44 0 0 1 .008.621.44.44 0 0 1-.621.009 4.87 4.87 0 0 0-3.525-1.48h0a4.85 4.85 0 0 0-3.482 1.476.44.44 0 0 1-.3.163zm3.852 27.341a.44.44 0 0 1-.269-.093l-3.79-2.908a.44.44 0 0 1-.066-.607.44.44 0 0 1 .603-.094l3.79 2.909c.148.116.207.313.146.492s-.227.299-.415.301zm3.785-.725a.44.44 0 0 1-.264-.093l-7.58-5.815a.44.44 0 0 1-.064-.606.44.44 0 0 1 .602-.094l7.58 5.808a.44.44 0 0 1-.273.793zm.001-3.711a.44.44 0 0 1-.264-.088l-2.09-1.607a.44.44 0 1 1 .538-.7l2.089 1.6a.44.44 0 0 1-.273.789zm17.998-65.438h-28.095a.771.771 0 1 1 0-1.542h28.095a.771.771 0 1 1 0 1.542zm-33.044 0H84.525a.771.771 0 1 1 0-1.542h10.842a.771.771 0 1 1 0 1.542zm33.044 7.501h-18.012a.771.771 0 1 1 0-1.542h18.012a.771.771 0 1 1 0 1.542zm-22.996 0h-20.89a.771.771 0 1 1 0-1.542h20.89a.771.771 0 1 1 0 1.542zm22.996 7.5h-4.848a.771.771 0 1 1 0-1.542h4.848a.771.771 0 1 1 0 1.542zm-9.003 0H84.53a.771.771 0 1 1 0-1.542h34.878a.771.771 0 1 1 0 1.542zm4.164 7.501H84.525a.771.771 0 1 1 0-1.542h39.047a.771.771 0 1 1 0 1.542zM158.956 45.2c-.235.014-.44-.159-.467-.393s.135-.448.367-.488l2.583-.6a.441.441 0 1 1 .2.859l-2.577.596a.41.41 0 0 1-.106.026zm-2.123-2.361a.44.44 0 0 1-.448-.45.44.44 0 0 1 .13-.313l2.17-2.062a.44.44 0 0 1 .753.193.44.44 0 0 1-.133.433l-2.168 2.062a.44.44 0 0 1-.304.137zm-2.517-1.979h-.092a.44.44 0 0 1-.339-.52l.599-2.772a.45.45 0 1 1 .881.185l-.6 2.772a.44.44 0 0 1-.449.335zM765 539.657h0l-764-.59c-.519.031-.966-.363-1-.882.034-.519.481-.912 1-.881h0l764 .591c.519-.031.966.362 1 .881-.034.519-.481.912-1 .881z" class="B"/><use xlink:href="#G" class="E"/><use xlink:href="#G" class="C"/><path d="M355.899 393.502a.88.88 0 0 1-.881-.882v-45.128c.009-5.952 4.832-10.775 10.784-10.784h103.583c5.952.007 10.775 4.832 10.78 10.784v45.128a.88.88 0 0 1-.868.881z" class="B"/><use xlink:href="#H" class="E"/><use xlink:href="#H" class="C"/><use xlink:href="#H" opacity=".4" style="mix-blend-mode:soft-light" class="D"/><path d="M374.633 379.827c-2.413-.003-4.367-1.959-4.367-4.372v-37.866a.88.88 0 0 1 .881-.881h93.2a.88.88 0 0 1 .881.881v37.866c-.002 2.41-1.952 4.364-4.362 4.372z" class="B"/><rect width="45.529" height="7.316" rx="2.04" x="394.607" y="354.451" class="E"/><path d="M395.506 362.648c-.973 0-1.762-.789-1.763-1.762v-5.518c0-.974.789-1.763 1.763-1.763h43.731c.974 0 1.763.789 1.763 1.763v5.518c0 .974-.789 1.763-1.763 1.763z" class="B"/><use xlink:href="#I" class="E"/><use xlink:href="#I" class="C"/><path d="M357.226 516.926c-1.231-.002-2.228-.999-2.23-2.23V392.62a.88.88 0 0 1 .881-.881h123.4a.88.88 0 0 1 .882.881v122.076a2.23 2.23 0 0 1-2.2 2.23z" class="B"/><rect width="96.224" height="96.224" rx="2.54" x="369.473" y="406.776" class="E"/><rect width="96.224" height="96.224" rx="2.54" x="369.473" y="406.776" class="C"/><rect width="96.224" height="96.224" rx="2.54" opacity=".4" style="mix-blend-mode:soft-light" x="369.473" y="406.776" class="D"/><path d="M370.596 503.88a2 2 0 0 1-2-2v-93.986a2 2 0 0 1 2-2h93.986c1.103.003 1.997.897 2 2v93.99a2 2 0 0 1-2 2z" class="B"/><circle cx="450.669" cy="444.311" r="3.817" class="E"/><circle cx="450.669" cy="444.311" r="3.817" class="C"/><path d="M445.971 444.313a4.7 4.7 0 0 1 9.4 0 4.7 4.7 0 0 1-9.4 0z" class="B"/><rect width="5.883" height="19.88" rx="2.942" fill="#a6b4f3" x="366.534" y="422.205"/><rect width="5.883" height="19.88" rx="2.942" x="366.534" y="422.205" class="F"/><path d="M370.941 442.966h-2.918a2.36 2.36 0 0 1-2.362-2.362v-16.919a2.36 2.36 0 0 1 2.362-2.362h2.926c1.303.002 2.358 1.059 2.358 2.362v16.919a2.36 2.36 0 0 1-2.362 2.362z" class="B"/><rect width="5.883" height="19.88" rx="2.942" fill="#a6b4f3" x="366.534" y="467.628"/><rect width="5.883" height="19.88" rx="2.942" x="366.534" y="467.628" class="F"/><path d="M367.83 488.386a2.2 2.2 0 0 1-2.2-2.2v-17.283a2.2 2.2 0 0 1 2.2-2.2h3.278a2.2 2.2 0 0 1 2.2 2.2v17.279a2.2 2.2 0 0 1-2.2 2.2zm49.918-29.047a.44.44 0 0 1-.335-.154l-9.157-10.771a.44.44 0 0 1 .247-.744.44.44 0 0 1 .424.175l9.156 10.771a.44.44 0 0 1-.335.723zm-.489-6.563a.44.44 0 0 1-.335-.154l-1.917-2.252c-.158-.186-.135-.466.051-.624s.466-.135.624.051l1.912 2.252a.44.44 0 0 1-.335.727zm-4.724 6.435a.44.44 0 0 1-.335-.154l-4.147-4.883a.44.44 0 0 1 .247-.744.44.44 0 0 1 .424.175l4.145 4.879a.44.44 0 0 1-.335.727zm-22.507-115.589h-2.644a.44.44 0 0 1-.42-.44.44.44 0 0 1 .42-.44h2.644a.44.44 0 0 1 .42.44.44.44 0 0 1-.42.44zm-4.615 0h-14.265a.44.44 0 0 1-.42-.44.44.44 0 0 1 .42-.44h14.265a.44.44 0 0 1 .399.667.44.44 0 0 1-.399.214zm-9.598 2.856h-4.667a.44.44 0 0 1-.42-.44.44.44 0 0 1 .42-.44h4.667a.44.44 0 0 1 .42.44.44.44 0 0 1-.42.44zm88.533 27.002h-4.931a.44.44 0 0 1-.42-.44.44.44 0 0 1 .42-.44h4.931a.44.44 0 0 1 .399.667.44.44 0 0 1-.399.214zm-81.032 40.355h-3a.44.44 0 0 1-.421-.44.44.44 0 0 1 .42-.441h3a.44.44 0 0 1 .399.667.44.44 0 0 1-.399.214zm-5.104 0h-8.734a.44.44 0 0 1-.42-.44.44.44 0 0 1 .42-.44h8.734a.44.44 0 0 1 .399.667.44.44 0 0 1-.399.214zm-4.367 3.451h-4.367a.44.44 0 0 1-.42-.44.44.44 0 0 1 .42-.44h4.367a.44.44 0 0 1 .42.44.44.44 0 0 1-.42.44z" class="B"/><path d="M462.096 516.044h13.6v15.429h-13.6z" class="E"/><path d="M462.096 516.044h13.6v15.429h-13.6z" class="C"/><use xlink:href="#J" class="B"/><use xlink:href="#K" class="E"/><use xlink:href="#K" class="C"/><path d="M458.72 539.507a.88.88 0 0 1-.881-.881v-5.539a2.5 2.5 0 0 1 2.5-2.5h17.12a2.5 2.5 0 0 1 2.5 2.5v5.539a.88.88 0 0 1-.877.881z" class="B"/><path d="M359.258 516.044h13.6v15.429h-13.6z" class="E"/><path d="M359.258 516.044h13.6v15.429h-13.6z" class="C"/><use xlink:href="#J" x="-102.83" class="B"/><use xlink:href="#L" class="E"/><use xlink:href="#L" class="C"/><path d="M355.877 539.507a.88.88 0 0 1-.881-.881v-5.729a2.33 2.33 0 0 1 2.327-2.327h17.473a2.33 2.33 0 0 1 2.323 2.327v5.729a.88.88 0 0 1-.882.881zm7.113-16.306h-3.732a.44.44 0 0 1-.42-.44.44.44 0 0 1 .42-.441h3.732a.44.44 0 0 1 .399.667.44.44 0 0 1-.399.214zm2.389-2.398h-6.134a.44.44 0 0 1-.42-.44.44.44 0 0 1 .42-.441h6.134a.44.44 0 0 1 .399.667.44.44 0 0 1-.399.214z" class="B"/><g class="G"><use xlink:href="#M"/><use xlink:href="#M"/><path d="M603.004 538.49a1.59 1.59 0 0 1 .648-1.792c6.1-4.027 12.448-11.113 18.873-21.07.066-.097.08-.221.037-.331-2.853-6.4-3.434-16.463-3.415-23.768a1.25 1.25 0 0 1 .918-1.2c.662-.181 1.33-.387 2-.593l2.628-.93a1.25 1.25 0 0 1 1.667 1.13c.2 5.206.687 11.968 1.873 16.731a87.36 87.36 0 0 0 10.23-24.141 1.25 1.25 0 0 1 .525-.743 36.97 36.97 0 0 0 1.148-.768c1.211-.83 2.4-1.7 3.534-2.609l.475-.381.262-.212a1.46 1.46 0 0 1 1.328-.187c.175.069.711.268 1.561.562a1.25 1.25 0 0 1 .818 1.4c-3.034 16.813-11.9 31.528-15.982 38.183 2.633-.307 5.207-.994 7.642-2.041 1.294-.556 2.798-.044 3.484 1.186l.593 1.061c.66 1.16.397 2.625-.624 3.484-3.121 2.616-8.247 4.208-15.208 4.72-6.087 9.133-11.056 13-11.269 13.16-.223.179-.501.276-.787.275h-11.436a1.59 1.59 0 0 1-1.523-1.126z"/></g><path d="M625.109 489.974l-2.672.949-2.042.624v-1.248h0l4.657-1.661.057 1.336z" class="J"/><path d="M620.415 492.78a1.25 1.25 0 0 1-1.249-1.252v-1.248a1.25 1.25 0 0 1 .83-1.168l4.658-1.66a1.25 1.25 0 0 1 1.667 1.136l.045 1.348a1.25 1.25 0 0 1-.83 1.217l-2.68.943-2.116.624a1.25 1.25 0 0 1-.325.056z" class="B"/><g class="G"><use xlink:href="#N"/><use xlink:href="#N"/><path d="M664.116 539.63h-10.313a1.6 1.6 0 0 1-1.062-2.814c4.251-3.963 8.124-8.312 11.569-12.992a1.06 1.06 0 0 0-.05-1.249c-4.664-5.794-7.492-11.618-8.41-17.312a83.71 83.71 0 0 1-.624-23.1 1.25 1.25 0 0 1 1.561-1.092c1.361.359 2.765.705 4.17 1.018l1.779.393a1.25 1.25 0 0 1 .987 1.348 62.39 62.39 0 0 0 .387 17.331l.138.937a22.25 22.25 0 0 0 5.4 12.087 1.03 1.03 0 0 0 .805.337c.314-.01.61-.152.812-.393 6.686-8 13.11-20.222 16.638-28.256a1.25 1.25 0 0 1 1.111-.749q2.809-.075 5.619-.349l1.248-.138a1.25 1.25 0 0 1 1.315 1.693c-5.373 13.558-14.987 33.592-30.32 52.053a3.58 3.58 0 0 1-2.71 1.247z"/></g><path d="M625.065 488.625q-2.341.924-4.657 1.667" class="J"/><path d="M620.414 491.54a1.25 1.25 0 0 1-.38-2.441l4.582-1.635a1.25 1.25 0 0 1 1.586.716 1.25 1.25 0 0 1-.668 1.606l-4.739 1.693a1.16 1.16 0 0 1-.381.062z" class="B"/><path d="M588.605 493.408l-4.994-.787" class="J"/><path d="M588.606 494.656h-.163l-5.044-.805a1.25 1.25 0 0 1-.993-1.461 1.25 1.25 0 0 1 1.461-.993l4.895.78c.69.043 1.215.638 1.172 1.328s-.638 1.215-1.328 1.172z" class="B"/><use xlink:href="#O" class="I"/><use xlink:href="#O" class="C"/><g class="B"><path d="M597.466 495.942c-1.373 0-2.578-.037-3.577-.087l-3.153-.243-1.748-.218h-.1l-5.207-.818c-8.778-1.642-15.9-4.37-21.227-8.178a31.03 31.03 0 0 1-1.642-1.249c-.462-.375-.911-.768-1.342-1.167a.43.43 0 0 1-.081-.069c-2.746-2.422-4.822-5.509-6.031-8.965a26.04 26.04 0 0 1-2.285 1.7 28.42 28.42 0 0 1-2.9 1.736 25.15 25.15 0 0 1-6.418 2.391c-.624.144-1.3.262-2.017.362-2.974.407-6.002.173-8.878-.687-15.414-4.539-18.729-17.443-16.694-28 .009-.059-.025-.117-.081-.137-4.049-1.577-24.139-10.673-21.719-35.408 1.7-17.312 19.148-22.65 24.454-23.874.092-.02.168-.083.206-.169a.24.24 0 0 0 0-.206c-3.775-5.787-10.124-20.315-7.146-33.869 1.748-7.979 6.437-14.415 13.935-19.129 19.4-12.2 37.708-1.011 44.214 5.219-.936-7.6-.762-21.551 5.113-32.858a1.25 1.25 0 0 1 2.216 1.155c-6.025 11.581-5.744 26.152-4.632 32.932a1.97 1.97 0 0 1-1.1 2.083c-.788.374-1.727.184-2.309-.466-4.813-5.388-22.918-18.061-42.178-5.95-6.9 4.37-11.238 10.245-12.823 17.549-2.8 12.742 3.228 26.483 6.8 31.971a2.69 2.69 0 0 1 .25 2.5c-.341.841-1.07 1.463-1.954 1.667-18.846 4.37-22.035 16.619-22.534 21.688-2.192 22.363 14.858 30.785 20.134 32.833 1.179.457 1.862 1.692 1.623 2.934-.887 4.607-2.429 20.015 14.983 25.141a18.66 18.66 0 0 0 7.829.624c.624-.087 1.249-.194 1.8-.325a22.8 22.8 0 0 0 5.837-2.2 26.63 26.63 0 0 0 2.672-1.592 27.55 27.55 0 0 0 2.36-1.786 2.24 2.24 0 0 1 3.59 1.061 1.61 1.61 0 0 1 .062.181 18.95 18.95 0 0 0 5.332 7.985l.075.062a27.04 27.04 0 0 0 1.3 1.13c.445.362 1.018.8 1.511 1.155 4.994 3.571 11.793 6.181 20.178 7.748l5.119.805h.05l1.754.219s1.111.137 2.978.231c8.788.368 17.579-.658 26.046-3.04.68-.187 1.342-.387 2.017-.593l4.832-1.711a66 66 0 0 0 12.087-6.243l1.155-.768c1.186-.818 2.366-1.692 3.527-2.61.25-.194.487-.387.724-.581h0a1.72 1.72 0 0 1 .275-.181 1.36 1.36 0 0 1 .93-.069l.181.069a70.86 70.86 0 0 0 1.517.543l3.746 1.249a146.49 146.49 0 0 0 5.725 1.617 117.98 117.98 0 0 0 4.177 1.024l1.786.387q1.573.331 3.253.656h.05c7.563 1.469 15.26 2.132 22.962 1.979q2.809-.075 5.619-.35l1.286-.137c2.1-.25 4.177-.581 6.137-.993 15.689-3.309 26.914-11.962 33.363-25.722 5.25-11.238 5.531-22.263.837-32.845-2.08-4.748-5.046-9.056-8.74-12.692a1.25 1.25 0 0 1-.125-1.729c3.708-4.476 10.376-24.972 3.746-35.349-7.386-11.525-20.29-9.246-21.739-8.946-.829.176-1.692-.031-2.351-.562a2.82 2.82 0 0 1-1.049-2.179v-10.615c-.556-17.693-6.373-29.676-17.273-35.586-17.35-9.365-42.9-.412-48.209 2.834a2.33 2.33 0 0 1-1.979.219 2.36 2.36 0 0 1-1.442-1.4 34.92 34.92 0 0 0-37.524-22.593c-8.64 1.25-15.526 4.995-20.465 11.05a1.25 1.25 0 0 1-1.757.185 1.25 1.25 0 0 1-.185-1.757c5.351-6.574 12.768-10.613 22.045-11.949a37.45 37.45 0 0 1 40.162 24.022c6.1-3.615 32.146-12.742 50.538-2.809 11.743 6.343 18 19.029 18.592 37.715v10.683c0 .09.041.175.112.231.077.063.179.086.275.062 7.3-1.5 18.061.225 24.348 10.045 4.289 6.68 3.384 16.295 2.466 21.433-1.118 6.243-3.384 12.549-5.681 15.926 3.541 3.693 6.414 7.973 8.491 12.649 3.471 7.773 6.143 20.153-.818 35.018-6.8 14.509-18.611 23.624-35.111 27.1-2.029.431-4.177.774-6.38 1.03l-1.311.144c-1.935.187-3.889.312-5.8.362a111.13 111.13 0 0 1-23.449-2.01h-.056q-1.723-.325-3.346-.674l-1.817-.393a122.55 122.55 0 0 1-4.258-1.043 151.73 151.73 0 0 1-5.831-1.648 112.16 112.16 0 0 1-3.815-1.249l-1.018-.362-.237.187a61.57 61.57 0 0 1-3.652 2.7c-.393.275-.8.543-1.2.805a68.96 68.96 0 0 1-12.58 6.487l-4.92 1.736-2.129.624a86.33 86.33 0 0 1-23.359 3.206zm-38.49-62.531a23.17 23.17 0 0 1-19.81-10.95c-.128-.291-.017-.633.259-.792s.627-.086.815.171a22.13 22.13 0 0 0 37.459 0c.183-.287.561-.375.852-.199s.387.553.216.848a23.17 23.17 0 0 1-19.791 10.922z"/><path d="M584.729 429.122a7.14 7.14 0 0 1-7.267-6.986c0-.345.28-.625.625-.625s.625.28.625.625c.085 3.243 2.775 5.808 6.018 5.738 2.311.02 4.433-1.272 5.475-3.334.097-.201.294-.335.516-.351s.437.087.562.272.143.422.046.622a7.33 7.33 0 0 1-6.6 4.039zm35.021-30.504c-.082.002-.163-.015-.237-.05-3.347-1.386-6.373-3.445-8.89-6.05-.24-.249-.233-.644.016-.884s.644-.233.884.016c2.4 2.482 5.284 4.446 8.473 5.769.275.115.431.408.372.7s-.317.502-.615.5zm10.348 2.054a27.74 27.74 0 0 1-7.292-.968c-.232-.042-.421-.211-.488-.437s-.001-.471.171-.632.421-.212.642-.131a26.62 26.62 0 0 0 6.967.924c9.697.072 18.594-5.369 22.949-14.033.15-.31.523-.44.833-.29s.44.523.291.833a26.72 26.72 0 0 1-24.073 14.734z"/><path d="M663.285 395.384c-5.571.104-10.177-4.318-10.3-9.889 0-.345.28-.625.625-.625s.625.28.625.625c.121 4.882 4.168 8.747 9.051 8.641a9.12 9.12 0 0 0 8.223-4.995c.15-.31.523-.44.833-.291s.44.523.291.833c-1.778 3.523-5.401 5.732-9.347 5.7zm-9.616 49.896c-4.905.028-9.47-2.498-12.053-6.668-.12-.288-.009-.621.261-.779s.615-.091.807.155a12.98 12.98 0 0 0 21.851.175c.183-.293.569-.382.861-.2s.382.569.2.861a13.96 13.96 0 0 1-11.927 6.455zm-55.73 28.2a6.01 6.01 0 0 1-5.138-2.847.62.62 0 0 1-.013-.624c.108-.196.311-.319.534-.324s.431.11.547.3a4.82 4.82 0 0 0 8.116.066c.187-.28.564-.361.849-.182s.377.553.206.844a5.94 5.94 0 0 1-5.1 2.766zm101.488-66.739a6.01 6.01 0 0 1-5.138-2.847c-.12-.288-.009-.621.261-.779s.615-.091.807.155a4.82 4.82 0 0 0 8.116.062c.115-.195.327-.313.554-.307a.62.62 0 0 1 .536.337c.104.202.091.444-.035.632-1.108 1.738-3.039 2.778-5.1 2.747zm-158.044-30.854a6.02 6.02 0 0 1-5.145-2.841c-.134-.292-.024-.638.254-.799s.633-.086.82.175c.873 1.393 2.397 2.243 4.041 2.256a4.81 4.81 0 0 0 4.075-2.193.63.63 0 0 1 .557-.303c.227.007.432.136.536.338a.63.63 0 0 1-.032.633 5.95 5.95 0 0 1-5.106 2.734zm165.629 80.842c-1.449.006-2.797-.741-3.559-1.973a.63.63 0 0 1 .207-.861c.294-.181.68-.087.861.207.536.849 1.467 1.366 2.471 1.375a2.95 2.95 0 0 0 2.492-1.334c.119-.188.33-.299.553-.29s.424.136.528.334a.62.62 0 0 1-.026.624c-.766 1.205-2.099 1.93-3.527 1.917zm-49.139-110.565a6.01 6.01 0 0 1-5.138-2.847c-.12-.288-.009-.621.261-.779s.615-.091.807.155a4.82 4.82 0 0 0 8.116.062c.111-.204.326-.33.558-.326s.443.136.548.344.085.456-.051.645c-1.11 1.737-3.04 2.776-5.101 2.747z"/></g><g class="G"><use xlink:href="#P"/><use xlink:href="#P"/><path d="M583.143 539.619a1.25 1.25 0 0 1-1-.5l-.993-1.324c-6.43-8.515-13.073-17.324-18.673-28.187-2.054-3.871-3.165-6.331-3.646-7.442-.023-.06-.071-.108-.131-.131l-1.836-.656c-3.544-1.128-6.961-2.624-10.194-4.463a2.9 2.9 0 0 1-1.155-3.471l.418-1.068a2.86 2.86 0 0 1 3.815-1.579c1.949.849 3.969 1.524 6.037 2.017-2.61-5.95-4.813-11.594-6.574-16.82a1.25 1.25 0 0 1 .487-1.429 27.48 27.48 0 0 0 2.36-1.786 2.24 2.24 0 0 1 3.59 1.061 1.5 1.5 0 0 1 .062.181c1.062 3.075 2.899 5.825 5.332 7.985l.075.063a27.04 27.04 0 0 0 1.3 1.13c.445.362 1.018.8 1.511 1.155a1.25 1.25 0 0 1 .443.568l1.717 4.607c2.759 7.492 5.619 15.208 10.051 20.652 2.121-1.872 7.188-6.448 11.361-16.575a1.25 1.25 0 0 1 1.355-.762l.369.062h.05l1.754.219s1.111.138 2.978.231c.389.022.746.223.966.545s.277.728.155 1.098c-3.519 10.613-7.926 17.952-13.458 22.425 1.758 3.009 8.828 14.752 14.865 19.453a1.53 1.53 0 0 1-.943 2.735v.006z"/></g><path d="M602.634 339.733c-1.449.006-2.797-.741-3.559-1.973-.12-.288-.009-.621.261-.779s.615-.091.807.155c.535.848 1.464 1.366 2.466 1.375a2.95 2.95 0 0 0 2.491-1.332c.183-.293.569-.382.861-.2a.63.63 0 0 1 .2.862 4.13 4.13 0 0 1-3.527 1.892zm-92.099 83.864a4.17 4.17 0 0 1-3.565-1.973c-.134-.292-.024-.638.254-.799s.633-.086.82.175c.536.848 1.467 1.365 2.471 1.372s1.938-.496 2.486-1.334c.184-.291.57-.378.862-.194s.378.57.193.862a4.13 4.13 0 0 1-3.521 1.891zm57.188 82.965c-.166.001-.325-.064-.443-.181a13.86 13.86 0 0 1-2.691-4.289.62.62 0 0 1 .675-.859.62.62 0 0 1 .483.413c.57 1.414 1.386 2.716 2.41 3.846.18.178.235.446.139.68s-.323.387-.576.388zm46.804 29.736c-.17-.001-.333-.071-.45-.194-.242-.243-.242-.637 0-.88a17.17 17.17 0 0 0 2.219-2.61c.198-.284.589-.353.873-.155s.353.589.155.873a18.63 18.63 0 0 1-2.385 2.8c-.112.104-.259.163-.412.166z" class="B"/><path d="M668.38 520.653c-.141-.001-.277-.049-.387-.137a19.31 19.31 0 0 1-3.325-3.978c-.16-.289-.068-.652.21-.83s.646-.11.842.156c.853 1.35 1.877 2.584 3.048 3.671.208.166.29.445.203.696s-.323.421-.59.422z" class="G"/><path d="M687.11 497.94c-.238 0-.454-.136-.559-.349s-.079-.468.066-.656c.521-.76.94-1.585 1.248-2.454.066-.221.248-.388.475-.434s.46.037.606.216.182.423.093.636a11.78 11.78 0 0 1-1.452 2.791c-.114.152-.291.244-.481.25z" class="B"/><use xlink:href="#Q" fill="#8cc387"/><use xlink:href="#Q" class="C"/><g class="B"><path d="M754.808 539.273H700.16a.88.88 0 0 1-.815-1.216c.154-.374 3.825-9.127 9.48-7.717.468.118.91.324 1.3.608.564-4.235 1.666-6.725 3.632-8.373a7.98 7.98 0 0 1 6.011-2c1.404.231 2.682.949 3.611 2.027 1.406-3.217 5.019-10.251 9.537-9.7 1.406.177 3.2 1.269 3.764 5.487.057.441.1.881.128 1.322 2.408-3.729 6.921-9.793 10.871-9.793a4.91 4.91 0 0 1 4.354 2.063c2 2.957.829 8.484-.622 12.855.998-.73 2.179-1.171 3.411-1.274 1.48-.044 2.899.591 3.852 1.723 1.719 1.855 1.671 4.764-.145 8.642a30.04 30.04 0 0 1-3.023 5.007c-.168.215-.427.34-.7.339z"/><path d="M727.387 538.833a.4.4 0 0 1-.2-.053.44.44 0 0 1-.19-.591c.864-1.793 1.446-3.709 1.725-5.68a.44.44 0 0 1 .868.141 20.05 20.05 0 0 1-1.811 5.945.44.44 0 0 1-.392.238zm2.037-7.862h-.043a.44.44 0 0 1-.4-.485l.147-2.459a.44.44 0 0 1 .441-.441h0a.44.44 0 0 1 .441.441c0 .04 0 1.053-.15 2.552a.44.44 0 0 1-.436.392zm9.981 7.862a.5.5 0 0 1-.22-.057.44.44 0 0 1-.163-.6 50.42 50.42 0 0 0 5.808-19.165.441.441 0 0 1 .877.084c-.648 6.836-2.66 13.472-5.919 19.516a.44.44 0 0 1-.383.222z"/><path d="M743.037 530.393a.44.44 0 0 1-.326-.145c-2.702-2.933-2.16-7.55-2.133-7.744.019-.158.121-.295.268-.357s.316-.041.443.056.192.254.171.412c0 .044-.516 4.407 1.913 7.051a.43.43 0 0 1-.335.727zm4.645 8.44a.44.44 0 0 1-.238-.815c1.629-1.133 2.72-2.885 3.018-4.847.01-.162.108-.305.255-.374a.44.44 0 0 1 .45.045c.13.096.198.256.176.417a7.93 7.93 0 0 1-3.419 5.512.44.44 0 0 1-.242.062zm-31.801-.001c-.175-.001-.332-.105-.403-.264s-.04-.346.077-.476a7.81 7.81 0 0 0 1.584-2.539.44.44 0 0 1 .759-.143.44.44 0 0 1 .07.443c-.397 1.05-.995 2.013-1.761 2.834a.44.44 0 0 1-.326.145z"/></g><g fill="#22577a"><use xlink:href="#R"/><use xlink:href="#R"/><path d="M315.077 477.274a1.65 1.65 0 0 0 .32-.031 30.14 30.14 0 0 0 3.014-.769 40.21 40.21 0 0 0 13.805-7.812l2.213-2.049a1.34 1.34 0 0 0 .246-1.539l-36.35-74.513a1.05 1.05 0 0 0-1.954.713 74.75 74.75 0 0 1 .435 2.05l-.4.152-15.174 6.29-1.431-1.855-.319-.419-.912-1.19-.922-1.206-.425-.524-17.632-23.7a1.05 1.05 0 0 0-1.775.125c-.236.451-5.734 11.175-.036 24.939 4.406 10.662 34.764 51.923 49.357 71.751l6.479 8.874c.338.45.869.714 1.432.713z"/></g><path d="M334.135 472.719c-.162-.236-1.331-2.412-2.621-4.854-3.921 3.402-8.484 5.983-13.419 7.592l7.381 13.4zm-35.39-73.334c-.856-1.555-1.56-3.189-2.1-4.88l-14.25 5.891 6.432 16.684zm112.712-62.746a2.28 2.28 0 0 0 1.866-1.95s3.988.319 3.574-3.669c0 0 3.528-1.656 2.532-4.817 0 0 3.145-.713 1.268-6.29-1.667-4.953-10.761-15.724-12.9-17.931a3.57 3.57 0 0 1-.441-.524c-.154-.241-.25-.515-.278-.8-2.951-26.27-10.614-55.465-10.614-55.465-2.411-10.362-21.1-32.319-21.1-32.319-1.871 3.124-6.625 8.061-18.681 13.906 0 0 10.069 11.977 17.386 17.491 1.517 1.142 2.519 2.838 2.788 4.717 1.84 12.69 11.17 40.517 15.473 52.163l1.163 3.145c.344.945.485 1.953.414 2.956-.341 4.843-2.028 15.111.052 19.64 1.326 2.883 8.565 7.123 10.368 8.853a.9.9 0 0 0 1.426-.231 2.42 2.42 0 0 0 .168-1.373s2.127 2.583 4.715 2.583c.276.002.551-.027.821-.085zM209.436 235.157c6.987-.089 21.348-7.794 29.452-17.024a32.96 32.96 0 0 1-15.913-17.449 89.69 89.69 0 0 0-12.98 11.15c-13.1-8.166-13.811-15.31-13.811-15.31-.461-3.229 4.3-8.041 0-17.957a126.81 126.81 0 0 1-3.889-10.132c-.096-.316-.346-.561-.664-.652s-.659-.015-.908.201c-1.1.87-2.474 2.71-1.814 6.211 1.049 5.519 2.065 5.766.692 6.326-.461.189-1.321-.969-2.343-2.62h0l.018-.018c1.525-1.651-2.4-6.394-5.546-8.622a5.08 5.08 0 0 0-.356-.247 2.12 2.12 0 0 0-.278-.157h-.042a2.57 2.57 0 0 0-.886-.2 2.82 2.82 0 0 0-.844.073c-.086.011-.169.036-.246.074l-.063.037-.041.022c-.152.067-.288.165-.4.287q-.03.031-.058.065a2.36 2.36 0 0 0-.639 1.712c.006.537.118 1.068.331 1.561l.01.059c.042.2.078.414.115.624.554 2.611.688 3.78.7 3.9l-.014-.015c-.131-.131-2.474-2.39-4.487-1.494a2.19 2.19 0 0 0-1.164 2.2c.035 1.01.442 1.972 1.144 2.7a12.08 12.08 0 0 0-.462-.409c-.363-.364-.804-.642-1.289-.813a2.62 2.62 0 0 0-2.746.608c-1.3 1.228.047 3.833.146 4.02-.044.017-2.9 1.113-1.693 4.676 2.39 3.145 5.917 4.167 6.248 2.458.045-.296.024-.599-.063-.886a2.02 2.02 0 0 1 .074.917c-.335 1.688-3.868.676-6.253-2.479.058.173.131.351.2.524 1.725 4.025 7.931 11.081 15.29 14.587 0 0 4.036 12.947 17.784 27.429 1.282 1.349 3.516 4.057 7.573 4.058zm-31.341-46.4c-1.739 1.011-5.089-1.968-6.824-3.7l-.145-.162c1.689 1.7 5.177 4.864 6.964 3.84 1.137-.654.66-2.338-.363-4.1 1.036 1.775 1.522 3.47.368 4.122zm4.759-3.816s-1.423 1.961-8.1-4.234l-.1-.1c6.77 6.285 8.184 4.309 8.184 4.309s.55-.413.291-1.661c.278 1.272-.273 1.69-.273 1.69zm-11.91-.238c-.3-.3-.524-.543-.654-.691zm145.627-24.466v-18.424c-.367.425-.734.834-1.1 1.216a25.1 25.1 0 0 1-4.487 3.758c-2.928 1.985-6.364 3.089-9.9 3.182h-1.048a18.51 18.51 0 0 1-9.9-3.182c-1.638-1.074-3.144-2.337-4.487-3.763l-1.1-1.279v18.492c.419 2.688 7.427 4.822 16.007 4.822s15.596-2.133 16.015-4.822zm-15.515-10.352a18.3 18.3 0 0 0 9.8-3.145 25.15 25.15 0 0 0 4.434-3.716 30.9 30.9 0 0 0 1.091-1.206 37.11 37.11 0 0 0 6.069-10.195c.11-.267.22-.524.325-.812l.524-1.379.708-2.1.362-1.148a42.5 42.5 0 0 0 1.363-6.683l.136-1.174c0-.147.031-.293.042-.44 0 0 .063-.441.136-1.2a1.21 1.21 0 0 0 0-.131c.346-3.816.881-14.912-3.6-22.188-5.435-8.811-14.356-11.384-21.9-11.264-7.543-.12-16.463 2.453-21.9 11.264-4.443 7.263-3.917 18.335-3.571 22.169a5.07 5.07 0 0 0-3.8.244c-2.778 1.3-3.973 5.666-1.352 9.65 1.72 2.574 4.88 3.778 7.877 3h0l.524 1.379c.1.278.215.524.325.812a36.92 36.92 0 0 0 6.022 10.127 26.96 26.96 0 0 0 1.137 1.268 25.02 25.02 0 0 0 4.434 3.721c2.899 1.964 6.3 3.055 9.8 3.145zm30.17-23.45c2.621-3.984 1.431-8.35-1.316-9.65a5.41 5.41 0 0 0-.671-.267c-1.027-.312-2.125-.299-3.144.039a1.32 1.32 0 0 1 0 .136v.288c-.058.582-.11.912-.11.912-.006.147-.02.294-.042.44l-.209 1.714c-.275 2.074-.706 4.124-1.289 6.133q-.54 1.672-1.127 3.245a8.3 8.3 0 0 0 1.864.212 7.01 7.01 0 0 0 6.044-3.202z" fill="#dd9488"/><path d="M285.599 142.919v14.723c14.335.246 24.955-6.662 29.95-10.729v-3.936l-.05.057a25.31 25.31 0 0 1-4.481 3.758 18.5 18.5 0 0 1-9.9 3.176h-1.053a18.5 18.5 0 0 1-9.906-3.176c-1.635-1.078-3.14-2.341-4.487-3.763z" fill="#7c3830" opacity=".15" style="mix-blend-mode:multiply"/><use xlink:href="#S" class="I"/><use xlink:href="#S" fill="#b9d719"/><path d="M331.693 535.716l12.667-23.586 15.4-28.708c.449-.843.133-1.89-.708-2.343l-3.792-2.034-28.735 53.574c.915 1.533 2.258 2.766 3.863 3.548.484.216 1.053.019 1.3-.451zm-38.094-71.448c.395-.114.727-.381.921-.743l12.826-22.936 15.903-28.433a1.73 1.73 0 0 0-.666-2.348l-3.758-2.1-29.693 53.07c.798 1.376 1.93 2.528 3.292 3.349.357.203.78.253 1.175.14z" class="D"/><use xlink:href="#T" fill="#f66"/><use xlink:href="#T" class="F"/><g class="D"><circle cx="304.107" cy="412.824" opacity=".4" style="mix-blend-mode:soft-light" r="4.204"/><circle cx="339.644" cy="484.654" opacity=".4" style="mix-blend-mode:soft-light" r="4.204"/></g><path d="M330.796 537.304a2.1 2.1 0 0 0 1.819-1.09l12.58-23.461a1.2 1.2 0 0 0 .089-.136l15.4-28.713a2.78 2.78 0 0 0-1.137-3.738l-3.508-1.882a1.04 1.04 0 0 0-.24-.177l-1.258-.676a1.05 1.05 0 0 0-.291-.1l-16.131-8.654a2.62 2.62 0 0 0-3.533 1.048l-.455.849-1.7-3.171c-.152-.275-.419-.468-.728-.524a1.07 1.07 0 0 0-.2-.019 1.05 1.05 0 0 0-.679.25 37.9 37.9 0 0 1-13.072 7.406 1.05 1.05 0 0 0-.608 1.51l7.143 12.911-.66 1.23a3.78 3.78 0 0 0-.446 1.693v.173l-.189 11.62v10.457c.105 5.986.676 11.462 1.007 14.194.181 1.574.682 3.095 1.472 4.468.019.152.071.298.153.427a10.19 10.19 0 0 0 4.313 3.937c.252.111.525.168.8.168zm27.775-55.293a.7.7 0 0 1 .278.928l-15.326 28.54a1.18 1.18 0 0 0-.089.136l-12.653 23.589a7.92 7.92 0 0 1-2.948-2.5l.3-.548 27.602-51.664zm-31.99 48.277a10.4 10.4 0 0 1-.544-2.272c-.325-2.69-.886-8.083-.991-13.985-.025-1.3-.026-2.974-.02-4.729l2.35-5.431 4.406-.366a.52.52 0 1 0-.084-1.043l-3.851.319 1.972-4.556c.158-.154.202-.391.11-.592s-.301-.322-.521-.303l-3.808.317 1.978-4.571c.084-.174.066-.38-.046-.536a.53.53 0 0 0-.494-.215c-.192.024-.354.152-.424.332l-1.454 3.358.075-3.977v-.178a1.57 1.57 0 0 1 .2-.739l.887-1.654a1.06 1.06 0 0 0 .073-.117l8.652-16.139a1.1 1.1 0 0 0 .069-.157l1.273-2.375c.065-.117.172-.205.3-.246.049-.015.1-.023.151-.023.084 0 .167.02.242.059l16.776 8.989zm-1.544-23.656l.009-2.567 1.144-.095zm.017-3.617l.061-4.277 3.466-.287-1.919 4.43zm7.217-31.546l.685 1.265h-.021l-7.469 13.932-5.865-10.6a40.03 40.03 0 0 0 11.589-6.578c.335.589.731 1.328 1.081 1.981zm-38.442-6.188a2.61 2.61 0 0 0 1.573-1.242l12.778-22.8a1.12 1.12 0 0 0 .089-.136l15.9-28.44a2.78 2.78 0 0 0-1.048-3.774l-3.763-2.1c-.038-.021-.077-.04-.117-.056l-1.151-.646a1.1 1.1 0 0 0-.143-.068l-16.09-9c-.967-.539-2.169-.41-3 .321a48.17 48.17 0 0 1-.882-2.235l.189-.073a1.29 1.29 0 0 0 .812-1.431c-.16-.85-.335-1.763-.566-2.757.002-.025.002-.049 0-.074l-.094-.377-.03-.127h0l-.132-.541c-1.009-4.039-2.6-9.1-3.763-12.8l-1.066-3.427 39.442-57.882a70.2 70.2 0 0 0 8.171-2.86 54.34 54.34 0 0 0 5.958-2.95 29.22 29.22 0 0 0 4.814-3.326 1.04 1.04 0 0 0 .188-.23c9.131-11.557 7.191-33.648 5.216-45.811a95.49 95.49 0 0 1-1.2-14.094c-.092-7.27-.533-14.782-.718-17.674l1.2-.581c2.223 2.6 10.584 12.168 17.01 17.007a6.1 6.1 0 0 1 2.379 4.041c1.862 12.833 11.264 40.827 15.525 52.373l.45 1.211.009.025.705 1.909c.294.808.415 1.669.356 2.527-.064.886-.172 1.937-.3 3.155l-.027.262c-.555 5.421-1.316 12.846.472 16.736 1 2.2 4.667 4.813 7.61 6.914l.021.015a33.19 33.19 0 0 1 2.956 2.238c.45.437 1.082.632 1.7.524a1.9 1.9 0 0 0 1.268-.834 6.85 6.85 0 0 0 4.1 1.6h.026a4.8 4.8 0 0 0 1.022-.11c1.081-.192 1.989-.923 2.406-1.939a4.56 4.56 0 0 0 2.82-1.243c.711-.768 1.09-1.785 1.054-2.831a6.41 6.41 0 0 0 1.924-1.866 4.31 4.31 0 0 0 .7-2.971 3.69 3.69 0 0 0 1.137-1.248c.8-1.437.78-3.441-.068-5.954-1.815-5.383-11.258-16.392-13.145-18.345-.117-.116-.22-.244-.309-.383a.76.76 0 0 1-.115-.346c-2.783-24.734-9.829-52.467-10.624-55.548l-.017-.065a36.51 36.51 0 0 0-4.251-9.41c-1.822-3.1-4.189-6.647-7.033-10.548a240.31 240.31 0 0 0-9.482-12.117 10.53 10.53 0 0 0 .853-1.614c.329-.757.289-1.625-.11-2.348-3.985-7.269-10.856-17.554-15.919-24.9a57.98 57.98 0 0 0-18.617-17.224 161.6 161.6 0 0 0-25.224-11.579v-13.27a38.04 38.04 0 0 0 5.782-9.922l.087-.207v-.006c.086-.2.168-.393.246-.626l.092-.241.086-.224.048-.125a9.57 9.57 0 0 0 1.189.1h.175a8.01 8.01 0 0 0 6.733-3.671 9 9 0 0 0 1.336-7.338 5.98 5.98 0 0 0-3.082-3.863 6.54 6.54 0 0 0-.786-.309 6.19 6.19 0 0 0-1.905-.3c-.148 0-.3.006-.45.017.33-5.115.265-14.7-3.866-21.4a23.66 23.66 0 0 0-11.279-9.682 27.2 27.2 0 0 0-5.916-1.67 31.03 31.03 0 0 0-5.073-.414h-.542c-.192 0-.389-.006-.586-.006-5.578 0-15.878 1.529-22.188 11.767a29.34 29.34 0 0 0-3.74 12.526 54.75 54.75 0 0 0-.124 8.89c-.155-.011-.309-.017-.457-.017a6.25 6.25 0 0 0-1.649.222 5.73 5.73 0 0 0-4.083 4.235c-.637 2.523-.151 5.199 1.331 7.338 1.481 2.289 4.021 3.671 6.747 3.671h.167c.389-.001.777-.026 1.163-.075l.034.093.012.034.005.014q.081.221.163.442c.092.248.164.422.24.608l.055.134.035.087a37.72 37.72 0 0 0 5.849 9.99v13.687c-1.705.437-5.966 1.595-11.2 3.489a114.86 114.86 0 0 0-11.1 4.659 74.94 74.94 0 0 0-11.247 6.627c-7.646 5.562-20.925 19.074-26.6 24.844l-1.436 1.461-.162.164a2.04 2.04 0 0 0-.524 2.029c.1.332.251.793.453 1.347a88.97 88.97 0 0 0-11.883 10.191 45.57 45.57 0 0 1-6.691-5.161 27.33 27.33 0 0 1-3.779-4.356 12.93 12.93 0 0 1-2.132-4.522.4.4 0 0 0-.009-.04 8.2 8.2 0 0 1 .6-3.112h0a22.28 22.28 0 0 0 1.2-6.044 20.51 20.51 0 0 0-1.884-9.1c-1.733-3.983-3.052-7.665-3.852-10.053a2.03 2.03 0 0 0-3.208-.933c-1.15.918-2.962 3.077-2.181 7.223v.02a20.72 20.72 0 0 0-5.528-6l-.351-.246-.047-.032c-.127-.085-.261-.158-.4-.22l-.063-.031a3.52 3.52 0 0 0-1.263-.294c-.076 0-.152-.007-.228-.007a3.91 3.91 0 0 0-.93.112 2.56 2.56 0 0 0-.372.12l-.079.037-.12.063c-.085.045-.168.094-.248.148a2.37 2.37 0 0 0-.449.361l-.037.037c-.141.146-.264.309-.366.484-.382.586-.573 1.275-.546 1.974.002.501.077.998.223 1.477l.06.363.068.357.052.288.285 1.4a4.84 4.84 0 0 0-2-.477 3.47 3.47 0 0 0-1.427.3 3.13 3.13 0 0 0-1.8 3.145 3.15 3.15 0 0 0 .017.287c-.149-.018-.299-.027-.449-.027a3.65 3.65 0 0 0-2.561 1.041c-.833.834-1.152 2.052-.834 3.187a7.1 7.1 0 0 0 .333 1.182 4.22 4.22 0 0 0-1.428 1.878 5.01 5.01 0 0 0-.037 3.186 1.06 1.06 0 0 0 .052.447 8.13 8.13 0 0 0 .231.6 27.78 27.78 0 0 0 5.772 7.842 41.12 41.12 0 0 0 4.509 3.911 33.63 33.63 0 0 0 5.119 3.18 59.61 59.61 0 0 0 4.56 9.664 87.21 87.21 0 0 0 5.362 8.234 98.22 98.22 0 0 0 7.956 9.5l.267.288.223.217c1.455 1.424 3.891 3.808 7.912 3.808h.131c8.306-.1 22.521-8.976 29.7-16.792a8.07 8.07 0 0 0 .43.176 2.42 2.42 0 0 0 2.558-.377l8.953-7.338 9.1-7.207c1.663 5.865 8.04 26.36 20.237 43.855-.706 2.95-1.233 5.94-1.578 8.954a43.69 43.69 0 0 0 .135 12.648c-2.171.771-8.583 3.046-19.481 6.592-11.288 3.682-19.84 7.652-26.144 12.139-10.288 7.33-14.153 15.761-11.489 25.059 3.332 11.594 21.429 38.007 36.025 58.123l9.149 12.445a11.5 11.5 0 0 1-4.571 1.256c-.812.038-1.612-.212-2.256-.708-.255-.214-.671-.625-.592-.98.075-.339.5-.634 1.132-.786a.54.54 0 0 0-.129-1.064c-.043 0-.086.006-.128.016-.869.147-1.593.746-1.9 1.572a2.03 2.03 0 0 0 .943 2.018 4.5 4.5 0 0 0 2.8.982h.126c1.822-.102 3.6-.594 5.215-1.443l7.878 10.438.414.524.933 1.221.912 1.19.32.419 1.924 2.495c.192.265.496.425.823.435a1.08 1.08 0 0 0 .4-.079l.483-.2 5.887 15.26-.673 1.2c-.29.517-.453 1.096-.477 1.688v.173l-.013.363-.38 11.247-.2 10.483c0 6 .476 11.476.76 14.21a11.68 11.68 0 0 0 1.415 4.528c.021.124.063.243.126.352a10.57 10.57 0 0 0 3.669 3.7 2.47 2.47 0 0 0 1.258.367c.234.002.466-.026.693-.083zm28.229-54.577a.7.7 0 0 1 .325.409.68.68 0 0 1-.063.524l-15.824 28.3a.86.86 0 0 0-.089.136l-12.826 22.937a.52.52 0 0 1-.309.241.42.42 0 0 1-.117.016.43.43 0 0 1-.208-.053c-.99-.594-1.842-1.391-2.5-2.34l.313-.558 28.5-51.165zm-32.818 47.724a10.23 10.23 0 0 1-.5-2.26c-.277-2.688-.744-8.08-.75-13.995l.062-4.7 2.459-5.423 4.382-.3c.289-.019.509-.269.49-.558s-.269-.509-.558-.49l-3.822.26 2.055-4.532c0-.01.007-.021.011-.031a.52.52 0 0 0-.44-.849l-3.827.249 2.061-4.537c.106-.262-.014-.56-.271-.677s-.56-.01-.688.242l-1.46 3.222.139-3.861v-.178a1.58 1.58 0 0 1 .209-.739l.858-1.534a1.01 1.01 0 0 0 .091-.133l9.891-17.7a1.07 1.07 0 0 0 .057-.119l.414-.74a.5.5 0 0 1 .445-.264.53.53 0 0 1 .252.065l16.161 9.029q.037.026.078.049l.364.2-1.331 2.389zm-1.123-23.633q.031-1.223.069-2.591l1.142-.078zm.1-3.646l.134-4.271 3.462-.229-1.992 4.391zm9.3-31.757l-8.507 15.227-5.241-13.628 12.289-5.076a31 31 0 0 0 1.455 3.48zm-16.28.377l-1.431-1.855-.319-.419-.912-1.19-.922-1.206-.075-.1v-.005l-.037-.048c-.1-.129-.2-.262-.309-.376l-17.632-23.7c-20.782-28.637-33.128-48.511-35.7-57.473-2.405-8.342 1.191-16 10.688-22.769 6.171-4.389 14.536-8.267 25.573-11.857l20.274-6.866a37.8 37.8 0 0 0 8.2-1.75h0c3.629-1.234 7.422-1.92 11.254-2.034 1.7 0 7.556 2.452 27.6 18.869 9.927 8.13 19.267 16.378 21.894 18.712a39.99 39.99 0 0 1-5.882 3.58c-.715.362-1.457.718-2.2 1.055l-5.227-5.961a2.62 2.62 0 0 0-2.621-.828c-3.533.84-15.469 4.239-20.7 12.723a218.73 218.73 0 0 1-6.106.077 462.86 462.86 0 0 1-9.776-.121 233.81 233.81 0 0 1-23.508-2.1 1.13 1.13 0 0 0-.142-.009 1.08 1.08 0 0 0-.2.019c-4.679-.669-9.063-1.452-13.028-2.327a69.12 69.12 0 0 0-5.723-3.391 1.05 1.05 0 0 0-1.416.446 1.05 1.05 0 0 0 .445 1.415 67.63 67.63 0 0 1 5.443 3.218 141.02 141.02 0 0 1 11.715 15.824 173.27 173.27 0 0 1 20.73 44.337l.97 3.149.076.243.005.017.164.522.05.159c1.212 3.863 2.72 8.671 3.683 12.521l.157.655.079.325a.3.3 0 0 1 0 .058 53.7 53.7 0 0 1 .435 2.012v.01l-.4.152-.827.343-13.608 5.627a1.08 1.08 0 0 0-.144.073zm11.302-28.865a177.35 177.35 0 0 0-20.137-42.475l1.671-12.014c11.385 1.534 20.869 1.889 22.654 1.945h.052l9.468.108c3.921 0 7.205-.075 10.04-.229a72.78 72.78 0 0 0 13.371-1.812zm118.719-35.266a2.74 2.74 0 0 1-.617.069 4.49 4.49 0 0 1-2.7-1.089c-.433-.328-.829-.702-1.183-1.114-1.1-2.024-3.471-6.363-4.158-7.026a6.84 6.84 0 0 0-1.7-1.19 1.05 1.05 0 0 0-1.369.509 1.05 1.05 0 0 0 .469 1.383c.416.215.801.487 1.143.807.392.428 2.222 3.634 3.788 6.539a1.71 1.71 0 0 1-.02.3c-.661-.594-1.726-1.355-2.959-2.236l-.054-.039c-1.16-.826-2.749-1.957-4.1-3.07a10.58 10.58 0 0 1-2.846-3.026c-1.556-3.335-.8-10.651-.3-15.492l.016-.154.33-3.486a8.25 8.25 0 0 0-.477-3.386l-1.164-3.145c-4.238-11.472-13.584-39.263-15.42-51.943-.118-.853-.371-1.683-.749-2.457q1.213.49 2.468.879a1.18 1.18 0 0 0 .273.042 1.05 1.05 0 0 0 1.039-.911 1.05 1.05 0 0 0-.767-1.149 29.57 29.57 0 0 1-8.226-4.088c-1.961-1.717-4.187-3.871-6.654-6.438a204.75 204.75 0 0 1-6.93-7.609 71.08 71.08 0 0 0 11.465-6.958 28.71 28.71 0 0 0 5.639-5.516c1.753 2.116 6.3 7.7 10.63 13.823 2.4 3.4 4.387 6.467 5.9 9.128a31.74 31.74 0 0 1 3.457 7.859l.02.081v.018c.511 1.987 2.338 9.225 4.4 18.906 1.281 6 2.42 11.845 3.385 17.368 1.194 6.837 2.128 13.221 2.774 18.973a2.87 2.87 0 0 0 .445 1.252 4.85 4.85 0 0 0 .556.7c2.039 2.086 11.064 12.793 12.669 17.543.8 2.366.579 3.586.251 4.193a1.42 1.42 0 0 1-.218.332l-1.549-2.455a1.05 1.05 0 0 0-1.855.042 1.05 1.05 0 0 0 .089 1.08l2.06 3.27a2.34 2.34 0 0 1-.051 1.282c-.146.412-.38.788-.687 1.1-.184.193-.385.369-.6.527l-2.5-3.374a1.05 1.05 0 0 0-1.468-.219 1.05 1.05 0 0 0-.219 1.467l2.942 3.972a2.25 2.25 0 0 1-.494 1.5 2.59 2.59 0 0 1-1.637.63l-3.39-4.215a1.05 1.05 0 0 0-1.635 1.316l3.382 4.2c-.151.376-.493.641-.894.695zM272.02 316.089l-1.345 9.707c-2.631-3.913-5.461-7.744-8.411-11.386 3.059.617 6.341 1.182 9.751 1.679zm59.83-2.408a71.01 71.01 0 0 1-17.831 2.56c1.312-1.901 2.926-3.576 4.777-4.958a33.16 33.16 0 0 1 5.722-3.464 47.01 47.01 0 0 1 9.187-3.263 1.62 1.62 0 0 1 1.572.525l5.012 5.71c-2.636 1.123-5.342 2.076-8.1 2.853h-.055a1.04 1.04 0 0 0-.289.037zm23.188-52.9c1.872 11.508 2.163 21.425.866 29.477-.447 2.929-1.205 5.802-2.261 8.571a25.6 25.6 0 0 1-2.8 5.33l-2.3-2.037c-4.819-4.253-12.84-11.226-21.105-17.944-6.557-5.329-12.115-9.561-16.522-12.578q-3.445-2.359-5.957-3.731a51 51 0 0 0-12.388-5.107c-.278-.081-.569.079-.65.357s.079.569.357.65a64.76 64.76 0 0 1 6.491 2.228c-3.252.187-6.468.78-9.573 1.766l-.995.283-.148.042-.024.007h0c-1.234.361-2.437.713-3.633 1q-1.512.339-3.045.561c.499-1.111 1.058-2.193 1.674-3.244a.52.52 0 0 0 .162-.504c-.042-.185-.179-.333-.361-.387s-.378-.006-.514.126a15.42 15.42 0 0 0-1.472 2.664c-.218-1.873-.295-3.76-.229-5.644a61.1 61.1 0 0 1 .6-6.792 64.65 64.65 0 0 1 1.407-7.231 1.05 1.05 0 0 0 .033-.34 54.89 54.89 0 0 0 1.492-18.131c-.025-.288-.278-.502-.566-.477s-.502.278-.477.566a53.89 53.89 0 0 1-1.2 16.707 123.51 123.51 0 0 1-8.45-14.37c-2.271-4.494-4.415-9.313-6.374-14.324-2.013-5.089-3.759-10.28-5.231-15.552l-.009-.032v-.053a.92.92 0 0 0-.043-.114 80.92 80.92 0 0 1-1.76-16.706 1.05 1.05 0 1 0-2.1 0c-.002 5.45.538 10.886 1.612 16.229a16.34 16.34 0 0 1-4.227-6.2c-.107-.269-.412-.401-.681-.294s-.401.412-.294.681c.997 2.609 2.615 4.936 4.714 6.779l-9.238 7.309-8.984 7.339c-.062.058-.144.09-.229.09a.33.33 0 0 1-.133-.028c-.373-.167-.736-.333-1.09-.524a31.89 31.89 0 0 1-15.4-16.9c-.333-.841-.554-1.519-.681-1.939.4-.368.917-.895 1.572-1.572l.08-.081c5.624-5.718 18.793-19.108 26.258-24.554a71.53 71.53 0 0 1 10.093-6.032c3.307-1.638 6.696-3.105 10.153-4.398a124.11 124.11 0 0 1 12.949-4.1c4.65 2.558 9.88 3.874 15.186 3.821 5.455-.041 10.845-1.189 15.844-3.374l.131-.062v1.691h0l.005-1.695c.469-.228.906-.517 1.3-.859a157.91 157.91 0 0 1 24.971 11.448 55.77 55.77 0 0 1 17.941 16.595c7.388 10.752 12.705 19.071 15.8 24.724.084.164.084.36 0 .524a7.88 7.88 0 0 1-.888 1.614 1.05 1.05 0 0 0-.281.31c-1.786 2.978-6.4 7.731-18.235 13.465a.99.99 0 0 0-.2.132l-1.424.689a45.2 45.2 0 0 0-15.123-15.143 27.34 27.34 0 0 1-7.631-6.7 1.05 1.05 0 1 0-1.615 1.342 29.16 29.16 0 0 0 8.14 7.139c6.081 3.697 11.144 8.853 14.73 15 .09 1.344.645 9.881.748 18.092.027 2.582.159 5.175.393 7.758a61.85 61.85 0 0 0-3.816-6.526c-.163-.239-.49-.3-.729-.137s-.3.49-.137.728c1.927 2.862 3.603 5.885 5.011 9.035q.22 1.775.504 3.543zm-117.849-42.337c-6.945 7.32-20.3 15.578-27.78 15.672h-.1c-3.306 0-5.235-2.053-6.511-3.412l-.02-.021-.283-.3c-3.033-3.192-5.84-6.592-8.4-10.175a84.4 84.4 0 0 1-5.393-8.595 60.8 60.8 0 0 1-3.315-7.036 13.5 13.5 0 0 0 3-.852 1.05 1.05 0 0 0 .254-1.814 1.05 1.05 0 0 0-1.054-.125 10.96 10.96 0 0 1-3.42.831 32.73 32.73 0 0 1-6.771-4.511c-1.941-1.643-3.712-3.476-5.287-5.472a3.79 3.79 0 0 0 1.257.247h.164.028a2.83 2.83 0 0 0 .619-.068 1.99 1.99 0 0 0 1.573-1.6c.106-.541.054-1.1-.151-1.612a4.89 4.89 0 0 0 1.365.367c.114.012.228.018.342.018h.042a2.55 2.55 0 0 0 1.263-.336 2.31 2.31 0 0 0 1.169-1.735 3.93 3.93 0 0 0-.158-1.61 4.87 4.87 0 0 0-.185-.557 9.99 9.99 0 0 0-.1-.252l-.006-.014-.007-.017a5.5 5.5 0 0 0 1.7.668 4.06 4.06 0 0 0 .972.13h.277a2.1 2.1 0 0 0 1.321-.587c.396-.399.628-.931.65-1.493a6.93 6.93 0 0 0-1.432-4.079 26.67 26.67 0 0 0-2.772-3.489h0l-.091-.589c2.652 2.277 4.726 3.429 6.177 3.429h.008a2.24 2.24 0 0 0 .761-.132c.858 1.314 1.675 2.29 2.57 2.291a1.35 1.35 0 0 0 .509-.1c1.728-.725 1.379-1.9.975-3.265a38.87 38.87 0 0 1-1.048-4.23c-.292-1.586-.291-3.766 1.368-5.147.8 2.395 2.134 6.1 3.889 10.132a17.41 17.41 0 0 1 .6 13.693l-.015.048a9.32 9.32 0 0 0-.662 3.944 6.2 6.2 0 0 0 .35 1.448c.445 1.251 1.041 2.443 1.775 3.55a28.43 28.43 0 0 0 4.286 5.065c2.419 2.258 5.06 4.265 7.883 5.991a1.05 1.05 0 0 0 .332.135c1.804.873 3.323 2.241 4.38 3.943.271.501.894.693 1.4.432a1.05 1.05 0 0 0 .461-1.391 12.58 12.58 0 0 0-4.267-4.3 90.84 90.84 0 0 1 10.771-9.261c1.485 3.41 3.523 6.553 6.031 9.3q.647.709 1.331 1.379a32.36 32.36 0 0 0 7.365 5.468zm-67.138-33.14a1.04 1.04 0 0 0 .189.312c1.037 1.098 1.962 2.298 2.761 3.58.339.477.555 1.031.628 1.612a.8.8 0 0 1-.109.007 3.88 3.88 0 0 1-1.724-.61c-.923-.556-1.734-1.28-2.389-2.136a2.6 2.6 0 0 1 .561-2.851zm2.4-5a2.42 2.42 0 0 1 .9.571l.309.26a1.06 1.06 0 0 0 .152.212 21.34 21.34 0 0 1 2.82 3.627 5.26 5.26 0 0 1 1.023 2.7c.008.034.002.069-.017.098s-.049.048-.083.054c-.089.046-.188.067-.288.063a4.33 4.33 0 0 1-1.964-.814 20.7 20.7 0 0 1-3.216-2.664l-.218-.242c-.024-.03-.049-.058-.074-.085l-.026-.026c-.295-.326-.583-.63-.77-.812-.378-.786-.757-2.117-.247-2.558a1.58 1.58 0 0 1 1.137-.486 1.56 1.56 0 0 1 .563.102zm5.613-2.668a1.08 1.08 0 0 0 .153.21c3.758 3.994 3.927 5.756 3.889 6.2 0 .014.014.027.028.039a.7.7 0 0 1-.018.076l-.016.005a.91.91 0 0 1-.118.008 4.26 4.26 0 0 1-1.91-.673 25.18 25.18 0 0 1-4.577-3.522l-.093-.1a.91.91 0 0 0-.142-.142l-.118-.112a3.02 3.02 0 0 1-.746-1.875c0-.96.4-1.135.55-1.2a1.44 1.44 0 0 1 .6-.122c.946.123 1.829.546 2.519 1.205zm10.761.776l-.338-.516a2.41 2.41 0 0 0 .106-.321l.233.834zm-7.97-8.488c.081.055.165.111.245.175 2.639 1.884 5.29 5.137 5.456 6.693.049.108.044.233-.014.336s-.162.173-.279.188a.54.54 0 0 1-.169.024c-.771 0-2.811-1.041-6.021-3.975a3.73 3.73 0 0 1-.9-1.253 2.94 2.94 0 0 1-.251-1.179c-.037-.374.091-.746.351-1.017l.042-.042a1.05 1.05 0 0 1 .157-.11h.086a2 2 0 0 1 .427-.046h.123c.171.007.34.042.5.105h.037l.126.058h.031zm133.703-13.755a34.84 34.84 0 0 1-4.987 1.744 38.17 38.17 0 0 1-10.044 1.391c-4.847.06-9.631-1.107-13.907-3.391v-11.5a25.86 25.86 0 0 0 4.01 3.25 19.54 19.54 0 0 0 10.483 3.349h1.045c3.743-.09 7.381-1.253 10.483-3.349a25.66 25.66 0 0 0 3.968-3.2l-.033 11.034a3.95 3.95 0 0 1-1.018.672zm-8.836-71.642a25.26 25.26 0 0 1 5.469 1.525 21.61 21.61 0 0 1 10.391 8.871c1.84 2.988 3 7.028 3.453 12.009a55.11 55.11 0 0 1 .01 9.372c-.013.066-.019.133-.019.2l-.032.3c-.053.557-.1.855-.1.87-.002.042-.002.084 0 .126a1.74 1.74 0 0 1-.032.33l-.209 1.714c-.002.014-.002.028 0 .042a41.03 41.03 0 0 1-1.253 5.944c-.339 1.119-.692 2.19-1.048 3.181a.97.97 0 0 0-.039.14 20.4 20.4 0 0 1-.5 1.27c-.084.231-.175.451-.261.663l-.011.028-.037.091a35.95 35.95 0 0 1-5.9 9.922c-.394.453-.737.832-1.048 1.159a24.08 24.08 0 0 1-4.251 3.564 17.18 17.18 0 0 1-9.183 2.977h-1.1c-3.284-.093-6.473-1.126-9.188-2.977a23.83 23.83 0 0 1-4.246-3.564 32.85 32.85 0 0 1-1.1-1.221c-2.468-2.945-4.445-6.269-5.855-9.844l-.03-.074h0l-.046-.113v-.008l-.234-.593-.388-1.048-.131-.356c-.313-.876-.655-1.9-1.018-3.049l-.016-.052-.015-.049-.043-.149v-.014l-.024-.082a43.34 43.34 0 0 1-1.094-5.078l-.093-.673-.068-.484-.131-1.178a1.69 1.69 0 0 0-.019-.219h0c-.008-.065-.015-.123-.017-.18v-.074s0-.022-.007-.054v-.029c-.021-.157-.068-.523-.12-1.07l-.21.005h-.593l.8-.068a.33.33 0 0 0 0-.063c-.294-3.262-.916-14.454 3.449-21.542 2.41-3.995 6.046-7.104 10.366-8.864a27.01 27.01 0 0 1 10.111-1.906h.489l.482-.005a29.17 29.17 0 0 1 4.689.377zm-30.175 41.326l.177.634a64.77 64.77 0 0 0 .671 2.1 5.84 5.84 0 0 1-.533.024 6.05 6.05 0 0 1-5.071-2.736 6.92 6.92 0 0 1-1.048-5.6 3.91 3.91 0 0 1 1.961-2.532 4.87 4.87 0 0 1 .676-.257 3.97 3.97 0 0 1 1.688-.088l.043.359.009.072.009.075.011.091c.008.068.014.141.02.205v.029c.005.066.012.135.019.206.211 2.145.576 4.273 1.092 6.366a2.3 2.3 0 0 1-1.773-.988c-.503-.692-.585-1.603-.215-2.374.102-.157.112-.357.027-.524s-.253-.276-.44-.286h-.026c-.178-.001-.345.089-.442.239-.549 1.05-.512 2.31.097 3.327a3.41 3.41 0 0 0 2.886 1.657l-.021-.01c.062.009.12.011.183.012zm53.373-8.335a4.06 4.06 0 0 1 .524.209 3.9 3.9 0 0 1 1.97 2.542 6.9 6.9 0 0 1-1.048 5.593 6.05 6.05 0 0 1-5.06 2.736 6.26 6.26 0 0 1-.564-.026c.267-.789.478-1.455.666-2.1l.179-.633c.062 0 .121.005.176.005h.095a3.4 3.4 0 0 0 2.983-4.985c-.158-.243-.483-.312-.727-.154s-.312.483-.154.726c.37.771.288 1.682-.215 2.374-.426.619-1.129.99-1.881.99a42.86 42.86 0 0 0 .875-4.612.08.08 0 0 1 0-.037 55.87 55.87 0 0 0 .21-1.714 2.17 2.17 0 0 1 .021-.25v-.015c.007-.059.016-.126.02-.192.005-.083.016-.158.03-.253v-.017l.041-.321a4 4 0 0 1 .619-.048h.085c.392.002.782.063 1.155.183zM202.129 306.086c0-.136.671-13.764 14.891-22.093.168-.09.274-.265.276-.456s-.1-.368-.267-.462-.371-.089-.533.011c-5.906 3.342-10.569 8.511-13.287 14.729a25.07 25.07 0 0 0-2.1 8.234c0 .139.055.272.153.371a.52.52 0 0 0 .371.153l-.031.037c.139.001.274-.054.372-.152a.53.53 0 0 0 .155-.372zm27.428-.163a8.98 8.98 0 0 0 4.2-1.261 14.71 14.71 0 0 0 2.093-1.36c.175-.139.242-.374.168-.585s-.273-.352-.496-.352a.52.52 0 0 0-.327.114c-.027.024-3.044 2.4-5.632 2.4a3.11 3.11 0 0 1-1.644-.426c-.23-.138-.762-.5-.734-.88.025-.338.408-.7 1-.949.268-.11.395-.417.285-.685s-.417-.395-.685-.285a2.47 2.47 0 0 0-1.646 1.84c-.037.482.147 1.195 1.232 1.855a4.1 4.1 0 0 0 2.09.572zm57.892-9.545l6.578-7.726c.131-.156.16-.374.074-.559a.53.53 0 0 0-.474-.306h-.041a.53.53 0 0 0-.358.182l-6.57 7.735a.52.52 0 1 0 .791.676zm4.4-.11l3.512-4.125c.133-.141.178-.345.116-.529s-.221-.319-.412-.351a.53.53 0 0 0-.504.199l-3.506 4.13c-.187.221-.159.551.062.738s.551.159.738-.062zm-93.277-1.651c1.215-3.558 3.349-6.732 6.185-9.2.227-.179.266-.509.087-.736s-.509-.266-.737-.087a22.1 22.1 0 0 0-6.528 9.71c-.085.275.067.567.341.655.042.014.086.023.131.026h.022c.23.001.433-.148.502-.367zm89.288-3.79l1.619-1.908c.139-.14.188-.346.127-.533s-.223-.325-.418-.355a.53.53 0 0 0-.08-.006c-.168 0-.327.081-.425.218l-1.62 1.9c-.188.221-.161.552.06.741s.552.161.74-.06zm134.398-40.987a31.45 31.45 0 0 0-5.629-19.022 25.2 25.2 0 0 0-5.918-6.106c-.241-.149-.557-.079-.713.158s-.095.555.137.717c.11.079 11.389 7.753 11.075 24.232 0 .139.055.272.153.371a.52.52 0 0 0 .371.153v.021c.139 0 .272-.055.371-.153a.52.52 0 0 0 .153-.371zm-29.232-6.1a4.77 4.77 0 0 0-1.981-3.9c-.157-.112-.363-.129-.536-.043s-.286.259-.293.451.092.374.258.472a3.72 3.72 0 0 1 1.5 3.019c0 .289.235.524.524.524s.524-.235.524-.524zm33.973-4.677c.286-.035.49-.296.456-.582-.7-5.813-4.717-10.447-4.874-10.64-.194-.204-.515-.218-.726-.032s-.238.506-.06.724c.037.042 3.963 4.591 4.618 10.074.034.261.256.456.519.456zm-115.305-6.881c.072-.212.002-.446-.175-.583-.525-.414-13.308-10.074-20.557-11.919-.275-.057-.546.113-.615.386s.089.551.358.631c7.04 1.793 20.049 11.636 20.18 11.736a.52.52 0 0 0 .468.081c.16-.05.287-.173.341-.331zm-101.608-.651c.183-.053.323-.202.365-.388s-.02-.38-.162-.508-.342-.167-.522-.105c-1.152.298-2.376.025-3.292-.734-.144-.131-.348-.171-.53-.105s-.314.227-.341.42.054.384.211.498c.854.708 1.931 1.092 3.04 1.085h.036a4.47 4.47 0 0 0 1.195-.163zm96.91-8.124c.229 0 .432-.148.5-.367s-.012-.456-.2-.587a45.2 45.2 0 0 0-4.88-2.9c-.251-.101-.537.006-.661.247s-.044.536.184.681c1.642.846 3.23 1.793 4.754 2.836a.53.53 0 0 0 .3.094zm-119.694-28.519a1.05 1.05 0 0 0 .5-1.394c-1.976-4.193 1.457-7.679 1.6-7.826a1.05 1.05 0 0 0-.026-1.447 1.05 1.05 0 0 0-1.447-.041c-.194.189-4.644 4.681-2.023 10.21a1.05 1.05 0 0 0 .943.6h0c.156 0 .311-.034.452-.101zm161.056-16.579a.52.52 0 0 0 .207-.344c.02-.138-.014-.278-.097-.39a16.31 16.31 0 0 0-6.1-4.539c-.17-.078-.369-.059-.522.05s-.235.291-.218.477.134.349.304.427a15.49 15.49 0 0 1 5.692 4.193.52.52 0 0 0 .419.225h.014a.52.52 0 0 0 .3-.099zm-44.533-37.737c-.147.001-.288-.06-.388-.168a3.77 3.77 0 0 0-2.621-.875 3.86 3.86 0 0 0-2.621.839c-.127.15-.328.216-.519.171s-.341-.193-.389-.384a.52.52 0 0 1 .164-.521 5.43 5.43 0 0 1 6.756.052c.145.152.186.377.102.57s-.275.318-.485.316z" class="B"/><path d="M309.931 125.685a5.24 5.24 0 0 1 8.947-3.706 5.24 5.24 0 0 1-3.706 8.947c-2.894-.001-5.24-2.347-5.241-5.241zm-28.3 0a5.24 5.24 0 1 1 10.482 0 5.24 5.24 0 0 1-5.241 5.241c-2.894-.001-5.24-2.347-5.241-5.241z" fill="#ff1300" opacity=".15" style="mix-blend-mode:multiply"/><use xlink:href="#U" fill="#e98a9b"/><use xlink:href="#U" class="F"/><path d="M326.01 128.693c.429-1.172 1.819-5.169 5.451-16.94 1.64-5.318 1.95-9.7.922-13.023a8.01 8.01 0 0 0-3.245-4.567 26.82 26.82 0 0 0-2.036-6.709 21.47 21.47 0 0 0-2.683-4.435 16.59 16.59 0 0 0-4.255-3.826 17.12 17.12 0 0 0-9.107-2.421 30.49 30.49 0 0 0-9.681 1.781 1.26 1.26 0 0 1-1.048-.1c-1.293-.776-2.653-1.433-4.064-1.963a16.92 16.92 0 0 0-5.865-1.158 11.1 11.1 0 0 0-3.771.631c-3.343 1.207-5.835 4.077-7.406 8.528-.1-.005-.2-.008-.3-.008a5.82 5.82 0 0 0-3.946 1.534c-1.339 1.307-2.008 3.339-1.986 6.038a9.9 9.9 0 0 0-3.727 5.063 15.87 15.87 0 0 0-.812 5.583 29.61 29.61 0 0 0 1.47 8.179c4.355 13.932 5.441 16.488 5.555 16.733a1.05 1.05 0 0 0 .953.613h.009a1.07 1.07 0 0 0 .83-.393 1.04 1.04 0 0 0 .22-.886 15.91 15.91 0 0 1-.362-2.62l-.037-4c0-.979-.034-2.455-.073-4.164v-.014l-.052-2.327-.079-4.153-.025-1.3a4.56 4.56 0 0 1 4.314-4.617 11.7 11.7 0 0 0 6.227-2.537 5.81 5.81 0 0 0 3.492 1.177c1.457-.049 2.871-.503 4.083-1.312a24.98 24.98 0 0 0 8.293 6.39 19.18 19.18 0 0 0 8 1.738 22 22 0 0 0 5.974-.857 26.48 26.48 0 0 0 3.873-1.436q.038-.012.076-.027c.047-.018.509-.212 1.154-.53.499-.135 1.033-.057 1.472.216a1.81 1.81 0 0 1 .876 1.573v15.368a15.79 15.79 0 0 1-.671 4.513 1.05 1.05 0 0 0 .661 1.326 1.05 1.05 0 0 0 1.326-.661zm-38.634-29.661a1.67 1.67 0 0 0-1.049.377c-1.494 1.281-3.343 2.076-5.3 2.28a6.65 6.65 0 0 0-6.29 6.725l.1 5.462.115 5.986-3.061-9.587a28.09 28.09 0 0 1-1.377-7.332 14.14 14.14 0 0 1 .617-4.906 7.86 7.86 0 0 1 3.05-4.257 1.91 1.91 0 0 0 .876-1.635c-.032-2.151.423-3.7 1.352-4.6.646-.584 1.478-.918 2.348-.944a8.97 8.97 0 0 1 3.413.928 1.05 1.05 0 0 0 1.364-.536 1.05 1.05 0 0 0-.504-1.377 14.98 14.98 0 0 0-1.766-.667c1.357-3.679 3.39-6.039 6.048-7.017a9.14 9.14 0 0 1 3.1-.513 18.26 18.26 0 0 1 8.811 2.83c.848.505 1.875.613 2.809.294a28.29 28.29 0 0 1 9-1.671 15.06 15.06 0 0 1 8.022 2.108c6.364 3.914 7.805 12.091 8.03 13.691a1.63 1.63 0 0 0 .823 1.209 5.93 5.93 0 0 1 2.447 3.46 13.22 13.22 0 0 1 .49 4.577 29.83 29.83 0 0 1-1.4 7.217l-2.668 8.533v-11.531c.002-1.341-.676-2.592-1.8-3.322a9.5 9.5 0 0 0 .812-.651 1.05 1.05 0 0 0 .377-1.018c-.073-.383-.35-.695-.722-.811s-.778-.017-1.055.257c-.854.709-1.793 1.31-2.794 1.789-.199.065-.393.147-.58.243a21.78 21.78 0 0 1-9.771 2.521c-5.52 0-10.551-2.6-14.953-7.716a1.68 1.68 0 0 0-2.238-.273 5.65 5.65 0 0 1-3.149 1.144 3.91 3.91 0 0 1-2.5-.924c-.293-.221-.649-.34-1.016-.341zm26.085 4.633c.236-.168.291-.495.123-.731s-.495-.291-.731-.123a3.41 3.41 0 0 1-4.047-.309c-.226-.177-.552-.139-.732.085s-.145.551.077.733c.81.683 1.833 1.062 2.893 1.069h.026a4.31 4.31 0 0 0 2.391-.724zm-30.746-4.744c.17-.101.268-.289.255-.487a.52.52 0 0 0-.32-.447c-.183-.077-.392-.044-.543.084-.921.565-2.102.469-2.92-.236-.227-.168-.545-.127-.722.093s-.15.539.062.725a3.55 3.55 0 0 0 2.275.838h.012a3.45 3.45 0 0 0 1.901-.57zm25.426-6.216a8.49 8.49 0 0 0 1.745-.2c.285-.064.466-.344.407-.63s-.335-.472-.622-.418c-2.448.524-3.538-.121-4.717-1.468-.282-.328-.767-.389-1.122-.142a2.24 2.24 0 0 1-2.82.11c-.145-.128-.349-.165-.53-.098s-.311.228-.338.419a.53.53 0 0 0 .208.497c1.156.888 2.759.902 3.931.036.896 1.193 2.301 1.894 3.793 1.895zm11.463-4.251c.17-.001.329-.084.427-.223s.122-.317.065-.477a4.43 4.43 0 0 0-4.371-3.04c-.279.034-.482.281-.462.561s.259.495.54.487a3.42 3.42 0 0 1 3.307 2.353c.076.205.272.341.491.341zm-33.228-4.911a3.43 3.43 0 0 1 3.546-1.963c.284.021.534-.189.561-.473s-.178-.537-.461-.57c-1.954-.255-3.842.814-4.628 2.621-.103.269.031.572.3.676a.49.49 0 0 0 .189.047.52.52 0 0 0 .493-.338zm14.445 49.014a8.46 8.46 0 0 1-6.672-2.911.92.92 0 0 1 .575-1.5.92.92 0 0 1 .861.357c1.335 1.474 3.253 2.286 5.241 2.217 1.989.069 3.906-.742 5.242-2.217a.92.92 0 0 1 1.275-.128.92.92 0 0 1 .161 1.271 8.6 8.6 0 0 1-6.683 2.911zm.19-7.397c-1.145.016-2.221-.543-2.867-1.488a.92.92 0 0 1 .271-1.27.92.92 0 0 1 1.27.27 1.67 1.67 0 0 0 2.663-.022.92.92 0 1 1 1.572.957c-.635.987-1.736 1.574-2.909 1.553zm-10.555-6.308a1.81 1.81 0 0 0 1.766-1.809 1.81 1.81 0 0 0-1.766-1.808 1.81 1.81 0 0 0-1.766 1.809 1.81 1.81 0 0 0 1.766 1.808zm21.474 0a1.81 1.81 0 0 0 0-3.617 1.81 1.81 0 0 0-1.766 1.809 1.81 1.81 0 0 0 1.766 1.808zm-16.72-6.264a1.05 1.05 0 0 1-.482-.115 10.06 10.06 0 0 0-8.386 0 1.05 1.05 0 1 1-.962-1.867c3.268-1.549 7.058-1.549 10.326 0a1.05 1.05 0 0 1-.477 1.981zm21.272 0a1.05 1.05 0 0 1-.477-.115c-2.662-1.221-5.724-1.221-8.386 0a1.05 1.05 0 0 1-1.547-.983 1.05 1.05 0 0 1 .594-.883c3.267-1.552 7.059-1.552 10.326 0a1.05 1.05 0 0 1-.508 1.981z" class="B"/><path d="M494.055 89.23V55.289c.002-5.085 4.123-9.206 9.208-9.208h72.408c1.625 0 3.188.622 4.369 1.738l19.341 18.284c1.269 1.202 1.989 2.872 1.99 4.62v94.558a9.2 9.2 0 0 1-9.2 9.2h-88.908c-5.083-.002-9.204-4.122-9.208-9.205V104" class="D"/><path d="M592.166 175.322h-88.9a10.05 10.05 0 0 1-10.037-10.034V104c0-.456.37-.826.826-.826s.826.37.826.826v61.288c.007 4.627 3.755 8.375 8.382 8.382h88.9a8.39 8.39 0 0 0 8.378-8.378V70.736c-.003-1.522-.629-2.975-1.734-4.022l-19.334-18.28a5.5 5.5 0 0 0-3.8-1.515h-72.41c-4.627.007-8.375 3.755-8.382 8.382V89.23c0 .456-.37.826-.826.826s-.826-.37-.826-.826V55.289a10.05 10.05 0 0 1 10.034-10.034h72.408c1.836-.003 3.603.7 4.934 1.965l19.341 18.28a7.23 7.23 0 0 1 2.25 5.223v94.556c0 5.541-4.489 10.035-10.03 10.042z" class="B"/><use xlink:href="#V" class="E"/><use xlink:href="#V" class="F"/><path d="M599.037 68.808H585.06c-4.242-.005-7.68-3.443-7.684-7.685V47.757c-.002-.619.365-1.18.934-1.424s1.228-.126 1.676.301l20.257 19.147a1.75 1.75 0 0 1-1.2 3.027zM499.035 56.115c-.11 0-.215-.044-.292-.121s-.121-.183-.121-.292c.004-3.068 2.49-5.554 5.558-5.558.228 0 .413.185.413.413s-.185.413-.413.413a4.74 4.74 0 0 0-4.732 4.732c0 .11-.044.215-.121.292s-.183.121-.292.121zm59.578 82.598a.41.41 0 0 1-.252-.087l-3.36-2.581a.41.41 0 0 1-.17-.384c.018-.149.115-.278.254-.334s.299-.033.416.062l3.364 2.581c.142.107.2.294.143.463a.41.41 0 0 1-.395.28zm3.369-.644a.41.41 0 0 1-.252-.087l-6.726-5.165c-.117-.09-.177-.236-.158-.382s.116-.271.252-.328.293-.036.41.054l6.726 5.164c.139.109.193.294.137.461s-.212.28-.389.282zm0-3.295a.41.41 0 0 1-.25-.086l-1.851-1.421c-.173-.141-.204-.393-.069-.571s.387-.216.569-.086l1.851 1.427c.139.108.194.293.137.459s-.213.279-.389.28zm27.1 34.045c-.148 0-.284-.079-.358-.206a.41.41 0 0 1 .358-.619 4.74 4.74 0 0 0 4.732-4.732c0-.148.079-.284.206-.358a.41.41 0 0 1 .619.358c-.002 3.069-2.489 5.556-5.558 5.558z" class="B"/><rect width="20.835" height="20.835" rx="10.418" x="512.962" y="72.23" class="I"/><rect width="20.835" height="20.835" rx="10.418" x="512.962" y="72.23" class="C"/><path d="M517.504 93.887a5.37 5.37 0 0 1-5.368-5.368V76.768a5.37 5.37 0 0 1 5.368-5.368h11.751a5.37 5.37 0 0 1 5.368 5.368v11.751a5.37 5.37 0 0 1-5.368 5.368z" class="B"/><path d="M522.6 88.143h0c-.303-.006-.579-.177-.718-.446l-2.429-4.661a.83.83 0 0 1 .355-1.115.83.83 0 0 1 1.115.355l1.705 3.3 4.489-8.015a.83.83 0 0 1 1.444.826l-5.243 9.356c-.151.251-.425.404-.718.4z" class="D"/><rect width="20.835" height="20.835" rx="10.418" x="512.962" y="100.944" class="I"/><rect width="20.835" height="20.835" rx="10.418" x="512.962" y="100.944" class="C"/><path d="M517.504 122.601a5.37 5.37 0 0 1-5.368-5.368v-11.747a5.37 5.37 0 0 1 5.368-5.368h11.751a5.37 5.37 0 0 1 5.368 5.368v11.747a5.37 5.37 0 0 1-5.368 5.368z" class="B"/><path d="M522.599 116.866h0c-.304-.006-.58-.179-.718-.45l-2.411-4.674a.83.83 0 0 1 .355-1.115.83.83 0 0 1 1.115.355l1.705 3.3 4.488-8.015a.83.83 0 0 1 1.444.826l-5.243 9.356c-.15.263-.432.423-.735.417z" class="D"/><rect width="20.835" height="20.835" rx="10.418" x="512.962" y="129.658" class="I"/><rect width="20.835" height="20.835" rx="10.418" x="512.962" y="129.658" class="C"/><path d="M517.504 151.315a5.37 5.37 0 0 1-5.368-5.368V134.2a5.37 5.37 0 0 1 5.368-5.368h11.751a5.37 5.37 0 0 1 5.368 5.368v11.747a5.37 5.37 0 0 1-5.368 5.368z" class="B"/><path d="M522.599 145.58h0c-.303-.006-.579-.177-.718-.446l-2.411-4.678c-.209-.406-.049-.904.357-1.113s.904-.049 1.113.357l1.705 3.3 4.488-8.011a.832.832 0 0 1 1.445.826l-5.244 9.356c-.152.26-.434.417-.735.409zm89.685-10.129l-9.357 9.551 2.651 2.593c2.637 2.584 6.87 2.54 9.454-.097s2.54-6.87-.097-9.454z" class="D"/><path d="M610.251 150.121a7.26 7.26 0 0 1-5.112-2.065l-3.088-3.022 10.224-10.438 3.093 3.026a7.3 7.3 0 0 1-5.038 12.52z" class="B"/><path d="M601.963 143.992l9.354-9.553.974.954-9.354 9.553z" class="D"/><path d="M601.081 144.056l10.22-10.434 1.862 1.821-10.228 10.438z" class="B"/><use xlink:href="#W" fill="#ffcb6d"/><use xlink:href="#W" fill="rgba(255,255,255,0.05)"/><path d="M599.97 142.735c-.155-.007-.302-.07-.413-.178L560.93 104.71c-.141-.14-.22-.33-.219-.529a.7.7 0 0 1 .215-.5l9.216-9.401c.131-.134.308-.211.495-.215a.7.7 0 0 1 .524.219l38.62 37.835a.62.62 0 1 1-.867.888l-38.26-37.484-8.49 8.671 38.257 37.48c.176.174.232.437.142.668s-.308.387-.555.397z" class="B"/><path d="M570.538 94.597l-7.255-2.477-4.678 4.773 2.638 7.205c.008.021.026.036.048.04s.044-.002.06-.018l9.212-9.406c.024-.013.036-.041.031-.067s-.028-.046-.056-.049z" class="D"/><path d="M561.161 104.763a.68.68 0 0 1-.5-.413l-2.77-7.568 5.223-5.335 7.627 2.618c.22.077.387.261.441.488s-.011.466-.173.635l-9.218 9.406a.69.69 0 0 1-.487.169c-.048.006-.097.006-.145 0z" class="B"/><path d="M563.283 92.12l-6.452-2.217a.45.45 0 0 0-.57.582l2.344 6.409z" fill="#f66"/><path d="M563.283 92.12l-6.452-2.217a.45.45 0 0 0-.57.582l2.344 6.409z" class="C"/><path d="M555.678 90.704c-.141-.388-.047-.823.241-1.118s.722-.398 1.113-.265l7.381 2.535-6.051 6.177z" class="B"/><use xlink:href="#X" fill="#f66"/><use xlink:href="#X" class="F"/><g class="B"><path d="M599.103 142.123l10.224-10.438 3.836 3.757-10.228 10.443zm12.582 4.778h-.265c-.152-.007-.288-.098-.354-.235s-.051-.3.038-.423.239-.188.39-.168a1.98 1.98 0 0 0 2.173-1.994c0-.228.185-.413.413-.413h0c.228 0 .413.185.413.413a2.8 2.8 0 0 1-2.808 2.837zm-14.453-13.626a.41.41 0 0 1-.289-.116l-32.566-31.906c-.147-.162-.143-.41.01-.566s.401-.167.566-.024l32.568 31.905c.118.118.154.295.091.449s-.213.256-.38.257z"/><path d="M603.191 139.114c-.108-.001-.212-.044-.289-.12l-3.635-3.559c-.137-.164-.126-.404.024-.556a.41.41 0 0 1 .555-.028l3.634 3.557c.116.118.151.295.088.448s-.211.255-.377.258zm.222-6.095c-.108-.001-.212-.044-.289-.12l-31.591-30.972a.41.41 0 0 1-.132-.412c.038-.151.156-.269.308-.304s.31.018.41.138l31.588 30.948a.43.43 0 0 1-.3.723zm-37.186-44.97c-.19 0-.356-.129-.402-.314s.04-.377.208-.466l2.205-1.148c.132-.081.298-.082.43-.002s.209.227.198.382-.106.29-.248.351L566.412 88a.41.41 0 0 1-.185.049zm-2.477-1.652a.41.41 0 0 1-.351-.628l1.487-2.377c.128-.175.37-.221.553-.106s.248.352.147.544l-1.485 2.374a.41.41 0 0 1-.351.193zm-2.746-1.205a.41.41 0 0 1-.412-.417l-.1-2.655c-.008-.228.171-.419.399-.427s.419.171.427.399l.1 2.655c0 .228-.185.413-.413.413z"/></g><g class="K"><path d="M67.81 480.376l-.291-1.157c-.84-3.385-1.63-6.582-4.592-7.868-2.761-1.327-6.002-1.185-8.636.378a4.22 4.22 0 0 1 .583.757c1.07 1.785.685 2.909.378 3.4a2.27 2.27 0 0 1-2.168 1.002 2.14 2.14 0 0 1-1.823-1.384c-.378-.98.174-2.315 1.407-3.484l.378-.333a2.72 2.72 0 0 0-.711-.238c-2.232-.432-5.015 1.649-5.042 1.671a.38.38 0 0 1-.605-.255.38.38 0 0 1 .147-.35c.125-.094 3.083-2.307 5.649-1.808a3.47 3.47 0 0 1 1.226.488c2.87-1.819 6.475-2.033 9.54-.567 3.306 1.437 4.142 4.811 5.027 8.378l.291 1.154a.38.38 0 0 1-.272.462.41.41 0 0 1-.106.042h-.012c-.174 0-.326-.119-.368-.288z"/><use xlink:href="#Y"/><use xlink:href="#Y"/><path d="M90.884 444.275c-15.508-5.625-17.816-18.913-18.156-22.866a17.4 17.4 0 0 1 1.211-8.806c1.245-2.436.628-5.617.3-6.873a24.23 24.23 0 0 1 2.423-18.08c2.837-4.993 7.898-11.3 16.42-20.46.272-.291.724-.321 1.032-.068 4.153 3.598 7.883 7.658 11.117 12.1.116.156.165.352.136.545a30.7 30.7 0 0 1-.673 3.363l1.513-.654c.359-.155.778-.011.965.333 2.8 5.155 7.187 14.93 5.212 22.472-.381 2.087-.118 4.24.756 6.173a21.76 21.76 0 0 1 .34 14.937c-5.473 15.508-22.064 17.888-22.23 17.91l-.106.015h0a.76.76 0 0 1-.26-.041z"/><path d="M90.328 481.087a.42.42 0 0 1-.1 0 .76.76 0 0 1-.647-.851c1.626-12.13 1.898-24.402.811-36.592-.858-9.294-.147-21.614.42-31.513l.378-7.138c.019-.418.373-.741.791-.722s.741.373.722.79l-.378 7.157c-.567 9.835-1.275 22.105-.427 31.286 1.096 12.305.819 24.693-.826 36.936-.055.372-.373.647-.749.647zm1.77-78.376h-.034c-.417-.02-.739-.373-.72-.79l.341-6.548a.76.76 0 0 1 .798-.693.76.76 0 0 1 .715.779c0 .026-.148 2.565-.34 6.532-.02.405-.355.722-.76.72zm2.769 33.772c-.174 0-.325-.118-.367-.287s.036-.344.19-.425a21.3 21.3 0 0 0 8.828-9.339.381.381 0 0 1 .7.3c-1.961 4.119-5.171 7.515-9.173 9.705a.37.37 0 0 1-.178.046zm1.127-6a.38.38 0 0 1-.368-.285c-.043-.168.035-.344.188-.426a9.7 9.7 0 0 0 3.221-3.374.381.381 0 0 1 .662.378c-.846 1.503-2.059 2.768-3.525 3.677-.056.024-.117.035-.178.03z"/></g><path d="M83.383 396.717c-.187.002-.348-.133-.378-.318-.919-5.909 2.606-11.03 2.753-11.245a.38.38 0 0 1 .528-.092.38.38 0 0 1 .093.529c-.034.048-3.499 5.094-2.627 10.692.015.099-.01.201-.069.282s-.149.135-.249.149z" class="B"/><g class="K"><path d="M71.585 437.131a12.95 12.95 0 0 0-3.938-5.265 8.52 8.52 0 0 1-3.053-4.88c-1.218-4.582-4.164-8.514-8.22-10.969-4.311-2.608-11.018-5.093-18.745-7.586-1.437 3.964-2.414 8.08-2.913 12.267.772 1.059 1.684 2.009 2.712 2.822l-2.667.272c.064 5.3.991 12.834 4.808 16.8a8.8 8.8 0 0 1 1.993 4.785c.517 3.815 2.371 7.323 5.231 9.9 9.419 8.3 21.235 3.616 21.235 3.616 6.748-7.8 6.018-16.284 3.556-21.742"/><path d="M60.188 460.918a20.57 20.57 0 0 1-13.893-5.091 17.05 17.05 0 0 1-5.481-10.353c-.142-1.604-.765-3.127-1.789-4.369-4.237-4.403-4.963-12.741-5.02-17.317-.002-.389.291-.715.677-.756l.934-.095c-.692-.756-1.316-1.547-1.512-1.789-.119-.154-.173-.348-.153-.541a55.1 55.1 0 0 1 2.963-12.46c.145-.373.556-.568.937-.446 9.253 2.984 15.082 5.348 18.914 7.663 4.237 2.55 7.31 6.655 8.564 11.438a7.99 7.99 0 0 0 2.738 4.445c1.863 1.464 3.313 3.386 4.21 5.579 3.381 7.576 1.937 16.436-3.673 22.548-.081.094-.184.167-.3.212a24.71 24.71 0 0 1-8 1.332z"/><path d="M75.568 480.784c-.386.003-.713-.286-.757-.67a52.98 52.98 0 0 0-7.437-20.853l-6.362-10.909-8.767-14.891c-.16-.23-.179-.529-.051-.778s.383-.407.663-.41.539.148.673.393c2.481 4 5.693 9.555 8.794 14.93l6.351 10.89a54.3 54.3 0 0 1 7.638 21.455c.023.2-.034.401-.159.558a.76.76 0 0 1-.507.282zm-23.936-48.988c-.26-.001-.501-.135-.639-.356l-2.705-4.297a.76.76 0 0 1 .234-1.048.76.76 0 0 1 1.047.235l2.705 4.308c.145.233.153.527.019.768s-.387.389-.662.389zm6.374 22.651h-.064a16.92 16.92 0 0 1-9.177-4.937c-.136-.157-.12-.394.036-.531a.38.38 0 0 1 .531.031 16.5 16.5 0 0 0 8.739 4.691c.193.032.329.206.313.401s-.178.344-.374.344zm-2.296-4.135h-.068c-1.319-.313-2.536-.956-3.537-1.869-.11-.089-.161-.232-.132-.37a.38.38 0 0 1 .268-.287c.136-.038.282.002.378.105a7.58 7.58 0 0 0 3.159 1.68.38.38 0 1 1-.068.757zm-.068-21.897a.38.38 0 0 1-.378-.333c-.481-2.856-1.658-5.549-3.428-7.841a.38.38 0 0 1 .055-.532.38.38 0 0 1 .532.055c1.866 2.398 3.101 5.225 3.593 8.223a.38.38 0 0 1-.076.281c-.062.08-.153.131-.253.143zm-3.034-.825h-.038c-.208-.02-.36-.204-.34-.412a3.14 3.14 0 0 0-.729-2.194.38.38 0 0 1 .562-.511 3.9 3.9 0 0 1 .919 2.775c-.018.193-.18.341-.374.342zm61.686 13.428c.75-2.38 2.108-4.522 3.941-6.215a9.53 9.53 0 0 0 2.981-5.708 20.51 20.51 0 0 1 8.227-12.966c4.581-3.288 11.851-6.638 20.256-10.088a61.54 61.54 0 0 1 4.308 13.439s-1.793 2.788-2.78 3.382l3 .072c.378 5.9 0 14.408-3.915 19.163-1.14 1.615-1.77 3.535-1.808 5.511-.249 4.299-2.015 8.37-4.982 11.491-9.793 10.069-23.384 5.871-23.384 5.871-8.201-8.129-8.117-17.65-5.844-23.952"/><path d="M119.915 465.677c-.114-.038-.219-.102-.306-.185-10.214-10.122-7.188-21.501-6.026-24.746.802-2.51 2.244-4.769 4.184-6.552 1.842-1.449 2.5-4.161 2.7-5.25a21.15 21.15 0 0 1 8.53-13.447c4.062-2.905 10.354-6.052 20.429-10.171.372-.151.797.015.968.378 1.981 4.354 3.448 8.924 4.373 13.617a.76.76 0 0 1-.11.553c-.501.785-1.044 1.542-1.626 2.269l1.229.03c.392.009.712.316.737.707.333 5.1.242 14.438-4.085 19.692a9.01 9.01 0 0 0-1.638 5.084 19.02 19.02 0 0 1-5.209 11.972c-4.527 4.572-10.739 7.077-17.171 6.922h-.219a26.55 26.55 0 0 1-6.76-.873z"/><path d="M114.12 482.059c-.232 0-.451-.107-.595-.29a.75.75 0 0 1-.139-.647c1.37-5.721 3.411-11.259 6.082-16.5 2.478-4.736 5.262-10.614 7.943-16.3l6.711-13.81c.193-.371.651-.515 1.021-.322a.76.76 0 0 1 .322 1.022c-1.948 3.76-4.248 8.62-6.684 13.761l-7.977 16.348a72.89 72.89 0 0 0-5.958 16.163c-.083.335-.381.571-.726.575zm21.908-48.796a.73.73 0 0 1-.348-.087.76.76 0 0 1-.321-1.021l2.648-5.038a.76.76 0 0 1 1.005-.28c.356.189.501.624.33.99 0 .023-1.048 1.967-2.648 5.027-.129.249-.385.407-.666.409zm-5.118 25.866a.381.381 0 1 1-.091-.757 18.46 18.46 0 0 0 9.365-6.006.38.38 0 0 1 .532-.074.38.38 0 0 1 .073.531c-2.522 3.07-5.946 5.268-9.788 6.282-.029.011-.06.019-.091.023zm2.206-4.823a.382.382 0 1 1-.1-.757 8.41 8.41 0 0 0 3.406-2.155.38.38 0 0 1 .367-.128c.137.028.246.129.286.263s.003.278-.097.376a8.95 8.95 0 0 1-3.764 2.375zm-1.819-24.446h0a.38.38 0 0 1-.275-.117c-.072-.075-.109-.176-.104-.28.278-3.38 1.41-6.634 3.291-9.457a.38.38 0 1 1 .621.439 19.69 19.69 0 0 0-3.155 9.075c-.02.194-.183.341-.378.34zm3.313-1.184c-.185.003-.345-.128-.378-.31a4.31 4.31 0 0 1 .779-3.144.38.38 0 0 1 .532-.067.38.38 0 0 1 .067.532h0a3.58 3.58 0 0 0-.634 2.546c.019.1-.003.203-.061.286s-.146.14-.246.157zm-41.147 6.914a11.84 11.84 0 0 0-1.382-5.923 7.81 7.81 0 0 1-.757-5.273 16.96 16.96 0 0 0-2.892-12.363c-2.682-3.815-7.44-8.415-13.065-13.4-2.692 2.826-5.05 5.952-7.028 9.316a13.52 13.52 0 0 0 1.248 3.4l-2.36-.757c-1.91 4.51-3.93 11.255-2.171 16.036a8.12 8.12 0 0 1-.091 4.793 15.08 15.08 0 0 0 .757 10.334c4.917 10.53 16.643 10.969 16.643 10.969 8.617-4.1 11.151-11.563 11.094-17.109"/><path d="M82.369 453.456h-.03c-.123 0-12.274-.57-17.313-11.397-1.539-3.409-1.822-7.252-.8-10.849a7.35 7.35 0 0 0 .11-4.335c-1.961-5.326.524-12.675 2.18-16.589.153-.361.557-.545.93-.424l.719.231c-.3-.851-.511-1.71-.571-1.971-.047-.19-.018-.391.08-.56a50.94 50.94 0 0 1 7.149-9.453c.282-.284.737-.299 1.037-.034 6.737 5.973 10.8 10.145 13.182 13.53a17.61 17.61 0 0 1 3.026 12.921 7.36 7.36 0 0 0 .662 4.743 12.77 12.77 0 0 1 1.513 6.325 19.31 19.31 0 0 1-11.527 17.797.76.76 0 0 1-.309.065z"/><path d="M81.938 481.192h-.072c-.416-.04-.72-.409-.681-.825a198.3 198.3 0 0 0 .427-27.613c-.593-8.15-2.083-19.426-3.229-27.449-.06-.418.231-.805.648-.865s.805.231.865.649c1.134 8.05 2.647 19.363 3.241 27.556a197.66 197.66 0 0 1-.431 27.866.76.76 0 0 1-.768.681zm-3.124-57.422c-.379.004-.702-.272-.757-.647l-.696-4.645c-.052-.275.05-.556.266-.734s.512-.224.772-.12.442.341.476.619l.7 4.66c.029.199-.022.402-.143.563a.76.76 0 0 1-.5.296zm-3.163 21.515c-.071-.001-.14-.022-.2-.061a15.73 15.73 0 0 1-5.962-7.61.38.38 0 0 1 .245-.476.38.38 0 0 1 .477.245 15.2 15.2 0 0 0 5.648 7.187c.137.097.197.27.151.432a.39.39 0 0 1-.359.283zm-.404-4.367c-.075 0-.149-.022-.212-.064a7.61 7.61 0 0 1-2.315-2.908.381.381 0 1 1 .7-.3 6.91 6.91 0 0 0 2.043 2.58.38.38 0 0 1 .151.425c-.049.16-.196.268-.363.267zm8.083-18.586a.34.34 0 0 1-.106 0c-.199-.06-.312-.27-.253-.469a16.06 16.06 0 0 0 0-7.906.38.38 0 0 1 .456-.488c.135.036.239.144.27.281a16.79 16.79 0 0 1 0 8.322.38.38 0 0 1-.367.26zm-2.262-1.831a.38.38 0 0 1-.33-.564c.33-.652.4-1.404.197-2.106-.051-.13-.027-.277.064-.383a.38.38 0 0 1 .368-.125c.137.029.245.131.284.265a3.63 3.63 0 0 1-.253 2.719c-.067.119-.192.194-.329.194zm16.545 31.158a9.91 9.91 0 0 1 1.815-4.713 6.53 6.53 0 0 0 1.233-4.248c-.059-3.644 1.297-7.17 3.783-9.835 2.648-2.828 7.081-6.071 12.271-9.528a42.34 42.34 0 0 1 4.717 8.465 11.03 11.03 0 0 1-1.415 2.648l2.031-.356c1.055 3.923 1.948 9.695-.045 13.424a6.78 6.78 0 0 0-.473 3.957 12.51 12.51 0 0 1-1.8 8.409c-5.231 8.1-14.945 7.111-14.945 7.111-5.251-3.211-8.079-9.245-7.187-15.334"/><path d="M104.692 467.745c-.121-.012-.237-.053-.337-.121a16.15 16.15 0 0 1-7.5-16.076 10.63 10.63 0 0 1 1.986-5.1 5.98 5.98 0 0 0 1.051-3.736c-.073-3.843 1.357-7.563 3.985-10.368 2.353-2.519 6.181-5.492 12.407-9.641.333-.223.783-.148 1.025.172a42.8 42.8 0 0 1 4.811 8.632c.072.181.072.382 0 .563-.1.254-.318.783-.586 1.339l.378-.064c.386-.068.76.169.862.548.923 3.4 2.133 9.785-.11 14a5.89 5.89 0 0 0-.378 3.5 13.28 13.28 0 0 1-1.914 8.919c-4.388 6.778-11.658 7.482-14.51 7.482-.665-.003-1.088-.041-1.17-.049z"/><path d="M103.446 482.743c-.418 0-.756-.338-.757-.756a73.93 73.93 0 0 1 1.358-15.153c1.426-6.672 3.949-15.811 5.814-22.298.065-.271.274-.484.543-.555s.556.012.746.216a.76.76 0 0 1 .164.759c-1.858 6.464-4.37 15.561-5.788 22.196a72.45 72.45 0 0 0-1.324 14.835.76.76 0 0 1-.756.756zm7.648-39.002a.7.7 0 0 1-.212-.03c-.399-.117-.628-.534-.514-.934l1.104-3.753c.132-.385.544-.597.934-.48s.617.521.515.915l-1.1 3.737c-.094.323-.39.545-.726.545zm.102 17.991a.38.38 0 0 1-.374-.297c-.039-.175.051-.353.215-.426a12.48 12.48 0 0 0 5.436-5.25.38.38 0 0 1 .313-.235c.14-.014.276.051.353.169a.38.38 0 0 1 .015.391 13.07 13.07 0 0 1-5.795 5.61c-.051.025-.106.038-.163.038zm.832-3.544c-.176.001-.33-.12-.37-.292s.044-.349.203-.426a5.6 5.6 0 0 0 1.948-1.866.38.38 0 0 1 .334-.232c.147-.006.284.074.351.205a.38.38 0 0 1-.038.405 6.33 6.33 0 0 1-2.269 2.153.39.39 0 0 1-.159.053zm-4.525-16.224a.38.38 0 0 1-.378-.318c-.272-2.337.051-4.705.939-6.884.091-.177.304-.252.486-.173a.38.38 0 0 1 .206.473c-.816 2.052-1.122 4.271-.889 6.467.032.206-.109.398-.314.431zm2.071-1.233c-.155 0-.295-.094-.352-.238a3.09 3.09 0 0 1 .102-2.319.38.38 0 0 1 .316-.217c.137-.01.268.055.343.17a.38.38 0 0 1 .018.383 2.37 2.37 0 0 0-.076 1.706c.075.194-.022.413-.216.488-.043.018-.089.027-.136.026z"/></g><path d="M128.898 481.681l-1.3 9.543-.42 3.09-.613 4.5-.552 4.047a71.02 71.02 0 0 1-1.313 7.02l-.185.757c-1.693 6.779-4.36 13.277-7.917 19.291l-4.081 6.888c-.298.503-.838.812-1.422.813H78.628c-.584-.001-1.125-.31-1.422-.813l-4.078-6.892a72.1 72.1 0 0 1-7.921-19.292l-.182-.757a70.96 70.96 0 0 1-1.316-7.017l-.548-4.051-.613-4.5-.424-3.09-1.274-9.537a1.09 1.09 0 0 1 1.081-1.241h65.87a1.1 1.1 0 0 1 1.1 1.241z" fill="#f96"/><path d="M78.628 538.37c-.852-.002-1.64-.452-2.074-1.184l-4.077-6.892a72.74 72.74 0 0 1-8-19.492l-.03-.132-.155-.624c-.562-2.338-1.005-4.702-1.328-7.085L60.07 481.78c-.071-.529.09-1.064.442-1.466s.859-.633 1.393-.634h65.9c.534.002 1.041.233 1.391.635s.511.936.44 1.465l-2.89 21.182a71.12 71.12 0 0 1-1.328 7.092l-.151.62-.034.132c-1.709 6.85-4.404 13.416-8 19.492l-4.079 6.892a2.44 2.44 0 0 1-2.061 1.18z" class="G"/><use xlink:href="#Z" fill="#f96"/><use xlink:href="#Z" class="F"/><path d="M124.507 511.378H65.222c-.348 0-.65-.238-.734-.575l-.03-.132-.155-.624c-.562-2.338-1.004-4.702-1.327-7.085l-1.162-8.549a.75.75 0 0 1 .749-.859h64.61c.22-.002.429.092.574.257s.211.385.182.602l-1.164 8.541c-.322 2.388-.765 4.757-1.328 7.1l-.151.62-.034.132c-.084.338-.387.575-.735.575z" class="G"/><use xlink:href="#a" fill="#f96"/><use xlink:href="#a" fill="#e5f0b3"/><path d="M126.562 499.572h-14.6c-.407-.015-.729-.349-.729-.756s.322-.742.729-.757h13.948l2.252-16.487a.34.34 0 0 0-.083-.265c-.062-.074-.153-.117-.25-.117H61.921c-.097-.001-.189.04-.253.113s-.093.169-.08.265l2.246 16.48h39.687c.407.015.729.349.729.757s-.322.742-.729.757H63.176c-.381.004-.705-.277-.757-.654l-2.341-17.135c-.071-.529.09-1.064.441-1.466s.86-.633 1.394-.634h65.889c.533.002 1.04.233 1.391.636s.511.936.439 1.464l-2.337 17.134c-.045.373-.357.657-.733.666z" class="B"/><path d="M93.826 480.405h-.019c-.101-.005-.196-.05-.263-.125a.38.38 0 0 1-.096-.275c.094-1.857 1.4-3.124 2.553-4.24.855-.829 1.595-1.544 1.581-2.267-.07-.538-.36-1.022-.8-1.339a5.5 5.5 0 0 0-.677-.533c-.045.113-.098.223-.159.329a2.78 2.78 0 0 1-2.388 1.267c-1.555.11-1.99-.473-2.111-.828a1.52 1.52 0 0 1 .84-1.653c.986-.599 2.198-.692 3.264-.25a6.58 6.58 0 0 0-.632-2.591.38.38 0 0 1 .187-.474.38.38 0 0 1 .49.141 7.06 7.06 0 0 1 .693 3.288c.361.216.698.468 1.007.752a2.68 2.68 0 0 1 1.043 1.891c0 1.048-.874 1.911-1.812 2.822-1.052 1.021-2.243 2.179-2.322 3.735a.38.38 0 0 1-.377.348zm37.13-.729c-.322-.507-.707-1.619.355-3.4a4.26 4.26 0 0 1 .575-.756 9.1 9.1 0 0 0-8.552-.379c-2.316 1.002-3.23 3.112-3.874 5.246a.38.38 0 0 1-.473.253.38.38 0 0 1-.253-.473c.666-2.194 1.7-4.592 4.3-5.723 3.038-1.458 6.614-1.245 9.457.564a3.36 3.36 0 0 1 1.214-.488c2.542-.492 5.477 1.7 5.6 1.8a.38.38 0 0 1 .179.357c-.013.143-.107.267-.241.318a.38.38 0 0 1-.392-.075c-.03-.019-2.792-2.084-5-1.657a2.75 2.75 0 0 0-.7.235l.378.325c1.221 1.163 1.758 2.487 1.389 3.455a2.11 2.11 0 0 1-1.808 1.377 1.86 1.86 0 0 1-.265.022h-.008a2.27 2.27 0 0 1-1.881-1.001z" class="K"/><path d="M109.646 527.586c-.11 0-.215-.048-.287-.132l-4.389-5.159a.38.38 0 0 1 .579-.492l4.388 5.159c.097.113.118.271.056.406s-.198.22-.347.218z" class="G"/><path d="M109.384 523.879a.38.38 0 0 1-.291-.136l-1.082-1.271a.38.38 0 0 1 .223-.617.38.38 0 0 1 .356.129l1.082 1.271a.38.38 0 0 1-.287.624zm-2.666 3.635a.38.38 0 0 1-.287-.136l-2.346-2.758a.38.38 0 0 1 .046-.533.38.38 0 0 1 .533.046l2.341 2.757c.096.112.118.27.056.404a.38.38 0 0 1-.343.22zm-21.225-42.387a.38.38 0 0 1-.268-.111c-.071-.071-.111-.168-.11-.268v-4.312a.38.38 0 0 1 .379-.378.38.38 0 0 1 .379.378v4.312a.38.38 0 0 1-.379.379zm2.72 4.875c-.1 0-.196-.04-.267-.111s-.111-.167-.111-.267v-9.188a.38.38 0 0 1 .379-.378.38.38 0 0 1 .379.378v9.188a.38.38 0 0 1-.111.268c-.071.071-.168.111-.268.11zm17.933-94.844c-.185.003-.346-.129-.378-.312-.286-1.864-.891-3.665-1.789-5.324a.38.38 0 0 1 .124-.521.38.38 0 0 1 .52.123c.952 1.738 1.592 3.63 1.89 5.59a.38.38 0 0 1-.306.439zm-19.998-1.422a.38.38 0 0 1-.378-.333 7.57 7.57 0 0 1 1.26-4.66.38.38 0 0 1 .346-.177c.139.009.262.095.319.222a.38.38 0 0 1-.045.386c-.799 1.227-1.195 2.672-1.135 4.134a.38.38 0 0 1-.076.281c-.062.08-.153.131-.253.143z" class="B"/><defs ><path id="B" d="M511.261 263.4c-.964 0-1.746-.782-1.746-1.746v-55.131c0-.964.782-1.746 1.746-1.746s1.746.782 1.746 1.746v55.131c0 .964-.782 1.746-1.746 1.746z"/><path id="C" d="M432.575 103.393h5.352c.863.001 1.562.7 1.562 1.563v11.812h-8.468v-11.812c0-.86.694-1.558 1.554-1.563z"/><path id="D" d="M443.723 136.812h-4.234c-.482 0-.873-.391-.873-.873s.391-.873.873-.873h4.234c.482 0 .873.391.873.873s-.391.873-.873.873z"/><path id="E" d="M168.259 87.716v62.091a10.37 10.37 0 0 1-10.365 10.365H55.359a10.37 10.37 0 0 1-10.365-10.365V87.716a8.56 8.56 0 0 1 2.644-6.143L97.46 34.025a13.28 13.28 0 0 1 18.333 0l49.839 47.57a8.51 8.51 0 0 1 2.644 6.143z"/><path id="F" d="M80.682 125.77l3.843-3.966 14.953-15.328c1.872-1.924 4.44-3.012 7.124-3.019s5.258 1.069 7.139 2.984l.035.035 14.943 15.328 35.384 36.279a10.31 10.31 0 0 1-6.21 2.067H55.359c-2.243.004-4.426-.724-6.218-2.072l17.536-18.033 5.976-6.064"/><path id="G" d="M365.78 337.589h103.615a9.9 9.9 0 0 1 9.9 9.9v45.131H355.869v-45.111a9.9 9.9 0 0 1 9.911-9.92z"/><path id="H" d="M371.143 337.589h93.2v37.865c0 .925-.367 1.811-1.021 2.465s-1.54 1.021-2.465 1.021h-86.224c-.925.001-1.813-.366-2.468-1.02s-1.022-1.541-1.022-2.466v-37.865z"/><path id="I" d="M355.869 392.62h123.419v122.075a1.35 1.35 0 0 1-1.349 1.349H357.226a1.35 1.35 0 0 1-1.349-1.349V392.62z"/><path id="J" d="M462.1 532.35a.88.88 0 0 1-.881-.881v-15.425a.88.88 0 0 1 .881-.881h13.6a.88.88 0 0 1 .881.881v15.425a.88.88 0 0 1-.881.881z"/><path id="K" d="M460.315 531.469h17.122c.429 0 .84.17 1.143.474s.474.715.474 1.143v5.54h-20.356v-5.535c-.001-.43.168-.842.472-1.147s.715-.475 1.145-.475z"/><path id="L" d="M357.323 531.469h17.47c.384 0 .751.152 1.022.424s.424.639.424 1.022v5.729h-20.37v-5.729c0-.385.153-.754.426-1.025s.643-.423 1.028-.421z"/><path id="M" d="M642.746 518.611c.36.641.21 1.448-.356 1.917-2.316 1.929-6.562 3.852-14.565 4.433a1.12 1.12 0 0 0-.849.5c-6.056 9.1-11.019 12.911-11.019 12.911h-11.419a.35.35 0 0 1-.194-.624c7.092-4.676 13.654-12.792 19.229-21.433a1.6 1.6 0 0 0 .125-1.517c-2.734-6.131-3.321-15.845-3.3-23.256a37.66 37.66 0 0 0 2.041-.624l2.672-.949c.25 6.593.93 14.771 2.653 19.466 4.021-4.994 9.315-16.313 11.912-26.614q.587-.381 1.18-.787 1.815-1.248 3.588-2.655l.743-.593h.094l1.6.574c-3.334 18.492-13.735 34.231-17.05 39.769a26.32 26.32 0 0 0 10.414-2.235 1.5 1.5 0 0 1 1.9.624z"/><path id="N" d="M696.005 485.822c-5.275 13.316-14.833 33.301-30.116 51.71a2.3 2.3 0 0 1-1.786.843H653.79c-.149.001-.283-.09-.335-.23s-.014-.296.098-.394a94.85 94.85 0 0 0 11.777-13.228 2.32 2.32 0 0 0-.112-2.753c-1.873-2.285-6.867-8.709-8.154-16.732-1.263-7.536-1.472-15.212-.621-22.806 1.311.343 2.722.693 4.214 1.024l1.8.4a64.93 64.93 0 0 0 .529 18.566 23.49 23.49 0 0 0 5.725 12.767 2.32 2.32 0 0 0 3.477-.112c6.786-8.116 13.217-20.234 16.856-28.556q2.847-.075 5.706-.356z"/><path id="O" d="M578.079 306.695c4.633-5.688 11.419-10.064 21.258-11.5 16.851-2.346 33.049 7.401 38.87 23.387a1.1 1.1 0 0 0 1.6.562c8.628-5.275 65.553-24.311 67.388 33.788v10.616a1.56 1.56 0 0 0 1.873 1.517c4.995-1.024 16.295-1.024 23.037 9.5 6.936 10.819.437 31.684-3.821 36.834 0 0 21.283 19.06 8.2 47-7.492 16.014-20.434 23.505-34.237 26.415-2.079.437-4.17.768-6.243 1.011l-1.292.137c-1.91.187-3.808.306-5.706.356-7.792.153-15.579-.517-23.231-2h0q-1.711-.325-3.328-.668l-1.8-.393a130.33 130.33 0 0 1-4.214-1.03 137.59 137.59 0 0 1-5.781-1.636c-1.629-.5-2.853-.912-3.746-1.249l-1.6-.574h-.062l-.743.593q-1.767 1.4-3.59 2.653c-.393.275-.787.537-1.18.793-3.888 2.542-8.029 4.676-12.355 6.368l-2.21.78-2.672.943-2.042.624c-8.599 2.418-17.527 3.459-26.452 3.084-1.948-.1-3.053-.237-3.053-.237-.624-.069-1.192-.144-1.786-.225h0l-.431-.069-4.782-.749c-9.714-1.817-16.232-4.807-20.671-7.96-.562-.4-1.08-.8-1.58-1.2s-.93-.787-1.355-1.18h0a20.13 20.13 0 0 1-5.744-8.6c-.012-.063-.033-.124-.062-.181-.097-.32-.349-.569-.67-.663s-.667-.021-.922.195c-.786.664-1.606 1.286-2.457 1.865a27.68 27.68 0 0 1-2.778 1.661c-1.935 1.049-4.003 1.828-6.149 2.316-.624.144-1.249.256-1.917.343a19.83 19.83 0 0 1-8.353-.624c-18.536-5.463-16.694-22.069-15.826-26.571.126-.65-.231-1.297-.849-1.536-4.779-1.872-23.234-10.613-20.928-34.118 1.59-16.232 17.56-21.414 23.491-22.781a1.49 1.49 0 0 0 .943-2.272c-5.026-7.71-17.387-36.3 6.405-51.256 19.354-12.187 38.083-.181 43.777 6.181a.72.72 0 0 0 1.249-.587c-1.08-6.586-1.561-21.57 4.751-33.713"/><path id="P" d="M595.592 538.371h-12.449c-6.618-8.784-13.735-18-19.553-29.343-2.054-3.871-3.159-6.318-3.609-7.367-.16-.372-.464-.663-.843-.805-3.271-1.2-8.253-2.766-11.8-4.994a1.63 1.63 0 0 1-.655-1.968l.412-1.06c.16-.41.48-.737.887-.905s.864-.164 1.267.012a35.65 35.65 0 0 0 8.072 2.46c.114.02.23-.025.3-.117s.085-.215.037-.32c-2.828-6.325-5.306-12.549-7.26-18.361a29.69 29.69 0 0 0 2.466-1.873c.254-.216.6-.29.921-.197s.573.342.671.661c.012.063.033.124.062.181 1.141 3.314 3.119 6.277 5.744 8.6h0a29.26 29.26 0 0 0 1.355 1.18c.481.393 1.018.805 1.58 1.2 3.559 9.308 6.686 19.6 12.592 26.333.131.13.343.13.474 0 1.367-1.249 7.523-5.831 12.386-17.649l.431.069h0l1.786.225s1.105.137 3.053.237c-2.316 6.98-6.281 16.5-13.292 22.032a.87.87 0 0 0-.231 1.124c1.723 2.978 8.984 15.146 15.346 20.1a.28.28 0 0 1 .162.335.28.28 0 0 1-.312.202z"/><path id="Q" d="M754.807 538.395H700.16s3.468-8.44 8.448-7.2c.934.296 1.716.946 2.177 1.811.5-5.7 1.666-8.188 3.526-9.753 2.265-1.9 6.377-3.442 9.29 1.111 0 0 4.226-11.2 9.2-10.577 3.843.48 3.107 9.1 3.107 9.1s6.74-12.092 11.76-12.092c9.074 0 1.763 16.72 1.617 17.214.216-.282 4.914-6.249 8.73-2.129 3.509 3.777-3.208 12.515-3.208 12.515z"/><path id="R" d="M315.208 476.209c.973-.195 1.936-.442 2.883-.739 4.939-1.624 9.508-4.209 13.444-7.605 1.111-.949 1.851-1.677 2.144-1.981a.3.3 0 0 0 .052-.346l-36.339-74.5-.252-1.048c-1.378-5.514-3.889-13.067-4.958-16.657-4.795-15.786-11.817-30.808-20.855-44.611a138.6 138.6 0 0 0-11.846-15.96c4.622 1.048 9.308 1.824 13.716 2.447l-1.87 13.487a173.5 173.5 0 0 1 20.856 44.61l39.936-58.621h.009c13.046-3.64 18.869-8.997 18.869-8.997-.666-.6-43.221-38.667-51.109-38.667s-13.46 3.454-19.677 3.795c0 0-6.567 2.417-20.379 6.909s-42.854 15.541-36.952 35.92c3.26 11.353 20.887 37.157 35.862 57.792l17.655 23.728.629.823 1.63 2.123.315.414 1.926 2.49 15.882-6.563 1.022-.388c.097-.038.16-.131.16-.235 0 .104-.063.197-.16.235l-1.022.388-15.882 6.563-1.928-2.493-.315-.414-1.63-2.123-.629-.823-17.654-23.728s-5.6 10.583 0 24.053c5.41 13.07 51.64 74.526 55.739 80.428a.72.72 0 0 0 .728.293z"/><path id="S" d="M376.502 209.418c.238.443.26.97.058 1.431-.304.736-.704 1.429-1.19 2.06h0c-1.866 3.113-6.615 8.03-18.675 13.874l-2.589 1.253c.047.66.655 9.634.765 18.345.049 4.776.454 9.541 1.211 14.257 1.829 11.227 4.02 33.708-5.079 45.077h0c-.671-.592-43.221-38.666-51.11-38.666s-13.465 3.454-19.671 3.8h0c-2.07-9.325 1.384-22.439 1.384-22.439-14.221-20.202-20.673-45.024-20.783-45.45h0l-10.352 8.193-8.968 7.333c-.403.344-.968.426-1.452.21q-.582-.257-1.132-.524c-7.279-3.647-12.948-9.862-15.913-17.445-.341-.875-.571-1.572-.708-2.028a1 1 0 0 1 .246-.991c4.194-4.193 19.646-20.222 28.069-26.354 13.989-10.174 33.97-14.802 33.97-14.802 12.847 7.375 26.915 2.207 30.442.608.612-.281 1.163-.68 1.62-1.174h0a159.7 159.7 0 0 1 25.746 11.746c7.273 4.206 13.518 9.979 18.282 16.9 5.241 7.63 11.935 17.678 15.829 24.786z"/><path id="T" d="M327.201 531.633l21.489-40.181 6.631-12.397-17.674-9.487a1.57 1.57 0 0 0-2.1.64l-10.956 20.442c-.202.374-.312.791-.32 1.216l-.194 11.788v10.425a140.29 140.29 0 0 0 1 14.089c.175 1.569.702 3.078 1.544 4.413-.037.005-.011.063.016.1zm-37.372-71.835l22.161-39.8 6.846-12.281-17.507-9.786c-.754-.416-1.703-.149-2.128.6l-11.311 20.232a2.62 2.62 0 0 0-.341 1.211l-.4 11.778-.2 10.425c0 6 .477 11.416.755 14.1a10.52 10.52 0 0 0 1.468 4.439c.02.047.046.091.078.131z"/><path id="U" d="M270.911 110.562c4.513 14.414 5.514 16.607 5.514 16.607h.026c-.211-.937-.341-1.891-.388-2.851l-.037-3.994-.23-11.955a5.6 5.6 0 0 1 5.291-5.659c2.173-.222 4.228-1.1 5.891-2.516a.63.63 0 0 1 .8 0c2.825 2.28 5.766.613 6.9-.178a.63.63 0 0 1 .839.1c9.438 11.012 19.837 8.553 25.995 5.453a2.9 2.9 0 0 1 4.225 2.579v15.366c-.004 1.63-.244 3.251-.713 4.812.43-1.185 1.8-5.142 5.43-16.888 3.784-12.27-.833-15.8-2.023-16.479a.6.6 0 0 1-.3-.44c-.388-2.736-3.994-22.591-26.422-14.975-.641.217-1.346.144-1.929-.2-3.311-1.992-14.926-7.789-19.602 5.545a.96.96 0 0 1-.949.645c-1.572-.068-5.294.43-5.2 6.6a.86.86 0 0 1-.4.734c-1.528 1.001-6.581 5.351-2.718 17.694z"/><path id="V" d="M599.037 67.982H585.06a6.86 6.86 0 0 1-6.859-6.859V47.758c-.008-.297.167-.569.441-.685s.59-.053.798.16l20.233 19.147a.93.93 0 0 1-.636 1.6z"/><path id="W" d="M599.97 142.116l-38.628-37.847a.1.1 0 0 1 0-.136l9.229-9.419c.018-.018.042-.029.068-.029s.05.01.068.029l38.628 37.843"/><path id="X" d="M609.34 132.565l-9.357 9.551 1.9 1.862.07.074.974.954 9.356-9.551-.974-.954-.074-.074-1.895-1.862z"/><path id="Y" d="M73.484 421.345a16.37 16.37 0 0 1 1.135-8.4c1.154-2.27.934-5.19.378-7.406a23.62 23.62 0 0 1 2.349-17.519c3.208-5.643 9.188-12.656 16.314-20.316 4.102 3.559 7.783 7.575 10.97 11.972 0 0-.533 3.783-1.279 4.876l3.174-1.369c3.249 5.988 6.949 15.062 5.148 21.92a11.43 11.43 0 0 0 .757 6.635c1.814 4.615 1.934 9.724.337 14.419-5.386 15.248-21.617 17.4-21.617 17.4-12.484-4.54-17-14.534-17.662-22.22"/><path id="Z" d="M127.173 494.311l-.61 4.5-.552 4.047a71.02 71.02 0 0 1-1.313 7.02l-.185.757H65.222l-.182-.757a70.96 70.96 0 0 1-1.316-7.018l-.548-4.049-.613-4.5z"/><path id="a" d="M103.521 498.808H63.176l-1.037-7.588-1.289-9.539a1.09 1.09 0 0 1 1.081-1.241h65.87a1.1 1.1 0 0 1 1.086 1.241l-1.3 9.543-1.038 7.588h-14.6"/></defs></svg>