<svg xmlns="http://www.w3.org/2000/svg" width="56" height="56" viewBox="0 0 56 56">
  <g id="Group_1186" data-name="Group 1186" transform="translate(-170.27 -1702.27)">
    <rect id="Rectangle" width="56" height="56" rx="28" transform="translate(170.27 1702.27)" fill="#ecf1f5"/>
    <g id="Group_1577" data-name="Group 1577" transform="translate(186.347 1718.345)">
      <rect id="Rectangle_519" data-name="Rectangle 519" width="23.439" height="23.439" transform="translate(0.203 0.203)" fill="#22577a" stroke="#22577a" stroke-width="0.5" opacity="0"/>
      <g id="teacher" transform="translate(-0.077 -0.076)">
        <path id="Path_8461" data-name="Path 8461" d="M8.384,8.768h4.605a.384.384,0,0,0,0-.768H8.384a.384.384,0,0,0,0,.768Zm0,1.535h11.9a.384.384,0,0,0,0-.768H8.384a.384.384,0,0,0,0,.768ZM22.21,18.745c0,.127,0,.255,0,.387s0,.252,0,.38h.965a1.527,1.527,0,0,1-.015-.192v-.576Z" transform="translate(-6.465 -6.465)" fill="#22577a" stroke="#22577a" stroke-width="0.5"/>
        <path id="Path_8462" data-name="Path 8462" d="M22.875,0H1.125A1.14,1.14,0,0,0,0,1.151V11.9a1.14,1.14,0,0,0,1.125,1.151H5.25V12.28H1.125A.38.38,0,0,1,.75,11.9V1.151A.38.38,0,0,1,1.125.768h21.75a.38.38,0,0,1,.375.384V11.9a.38.38,0,0,1-.375.384h-.032a1.525,1.525,0,0,1,.6.611A1.156,1.156,0,0,0,24,11.9V1.151A1.14,1.14,0,0,0,22.875,0Z" fill="#22577a" stroke="#22577a" stroke-width="0.5"/>
        <path id="Path_8463" data-name="Path 8463" d="M14.14,31.483v1.535h.768V31.483a.384.384,0,1,0-.768,0ZM8.384,24.768h6.556A3.088,3.088,0,0,1,15.57,24H8.384a.384.384,0,0,0,0,.768Zm11.865,0h1.8l.4-.488a1.916,1.916,0,0,1,.3-.28H19.618a3.088,3.088,0,0,1,.631.768Zm4.788.758a1.131,1.131,0,0,0-.407-.867,1.15,1.15,0,0,0-1.608.125l-2.494,3.054h-.279a3.088,3.088,0,0,1-.631.768H20.71a.384.384,0,0,0,.3-.141l2.6-3.186a.377.377,0,0,1,.527-.033.361.361,0,0,1,.134.28.334.334,0,0,1-.082.22l-.014.016-3.421,4.39a.383.383,0,0,0-.081.236v.005c0,.423,0,1.018,0,1.666,0,.313,0,.638,0,.959h.768c0-.321,0-.646,0-.958,0-.586,0-1.13,0-1.542l3.333-4.277A1.1,1.1,0,0,0,25.037,25.525Z" transform="translate(-6.465 -19.561)" fill="#22577a" stroke="#22577a" stroke-width="0.5"/>
        <path id="Path_8464" data-name="Path 8464" d="M32.768,30.14A1.537,1.537,0,0,1,34.3,28.605h.662a3.088,3.088,0,0,1-.631-.768H34.3a2.305,2.305,0,0,0-2.3,2.3v2.878h.768ZM36.989,24a2.3,2.3,0,1,0,2.3,2.3A2.3,2.3,0,0,0,36.989,24Zm0,3.838A1.535,1.535,0,1,1,38.524,26.3,1.535,1.535,0,0,1,36.989,27.838Z" transform="translate(-26.059 -19.561)" fill="#22577a" stroke="#22577a" stroke-width="0.5"/>
        <path id="Path_8465" data-name="Path 8465" d="M23.25,62.07h-.375V61.3a.759.759,0,0,0-.75-.768h-.187v-.768a.759.759,0,0,0-.75-.768H17.813a.759.759,0,0,0-.75.768v.768a.759.759,0,0,0,.75.768H18v.768H.75a.759.759,0,0,0-.75.768v.768a.759.759,0,0,0,.75.768h.375v7.483a.375.375,0,1,0,.75,0V64.373h20.25v7.483a.375.375,0,1,0,.75,0V64.373h.375a.759.759,0,0,0,.75-.768v-.768A.759.759,0,0,0,23.25,62.07ZM22.125,61.3v.768H18.75V61.3Zm-4.312-.768v-.768h3.375v.768Zm5.438,3.07H.75v-.768h22.5Z" transform="translate(0 -48.24)" fill="#22577a" stroke="#22577a" stroke-width="0.5"/>
      </g>
    </g>
  </g>
</svg>
