<svg xmlns="http://www.w3.org/2000/svg" width="44.49" height="34.867" viewBox="0 0 44.49 34.867">
  <path id="money" d="M25.871,11a2.759,2.759,0,0,0-2.749,2.749v1.375H8V41.243a4.13,4.13,0,0,0,4.124,4.124H47.866a4.13,4.13,0,0,0,4.124-4.124V15.124H36.868V13.749A2.759,2.759,0,0,0,34.119,11Zm0,1.375h8.248a1.357,1.357,0,0,1,1.375,1.375v1.375h-11V13.749A1.357,1.357,0,0,1,25.871,12.375ZM9.375,16.5H50.615V27.955a1.357,1.357,0,0,1-1.375,1.375h-10.7a8.941,8.941,0,0,0-17.788,0h-10a1.357,1.357,0,0,1-1.375-1.375V16.5Zm20.242,6.181v0A7.472,7.472,0,0,1,37.2,30.136v.1a7.562,7.562,0,1,1-7.585-7.561Zm-3.375,2.067v.013h-.032v1.375h1.412A2.021,2.021,0,0,1,29.791,27.5H26.241v1.375h3.549a2.023,2.023,0,0,1-2.169,1.361H26.209v1.375h.365l4.242,4.14.959-.985-3.316-3.238A3.455,3.455,0,0,0,31.2,28.871h1.877V27.5H31.2a3.4,3.4,0,0,0-.66-1.375h2.537V24.747ZM9.375,30.318a2.707,2.707,0,0,0,1.375.387h9.977a8.924,8.924,0,0,0,17.825,0H49.241a2.707,2.707,0,0,0,1.375-.387V41.243a2.728,2.728,0,0,1-2.749,2.749H12.124a2.728,2.728,0,0,1-2.749-2.749Z" transform="translate(-7.75 -10.75)" fill="#22577a" stroke="#22577a" stroke-width="0.5"/>
</svg>
