<svg xmlns="http://www.w3.org/2000/svg" width="80" height="80" viewBox="0 0 80 80">
  <g id="Group_12904" data-name="Group 12904" transform="translate(-0.219)">
    <rect id="Rectangle" width="80" height="80" rx="40" transform="translate(0.219)" fill="#fff"/>
    <g id="Group_2526" data-name="Group 2526" transform="translate(25.81 25.832)">
      <g id="salary-mail" opacity="0.3">
        <path id="Path_8421" data-name="Path 8421" d="M30.815,15.938c0-.01,0-.019,0-.028a.475.475,0,0,0-.031-.134c-.005-.014-.01-.027-.017-.04a.476.476,0,0,0-.1-.135l0,0L23.613,9.029V6.342a.48.48,0,0,0-.48-.48H20.209L16.736,2.629a.481.481,0,0,0-.655,0L12.608,5.862H9.684a.48.48,0,0,0-.48.48V9.029L2.153,15.6l0,0a.476.476,0,0,0-.1.135c-.007.013-.011.026-.017.04a.474.474,0,0,0-.031.134c0,.01,0,.019,0,.028s0,.007,0,.01V30.356a.48.48,0,0,0,.48.48H30.336a.48.48,0,0,0,.48-.48V15.948S30.815,15.941,30.815,15.938ZM9.2,10.342Z" transform="translate(-2 -2.5)" fill="#22577a"/>
      </g>
      <g id="salary-mail-2" data-name="salary-mail">
        <path id="Path_8421-2" data-name="Path 8421" d="M30.815,15.938c0-.01,0-.019,0-.028a.475.475,0,0,0-.031-.134c-.005-.014-.01-.027-.017-.04a.476.476,0,0,0-.1-.135l0,0L23.613,9.029V6.342a.48.48,0,0,0-.48-.48H20.209L16.736,2.629a.481.481,0,0,0-.655,0L12.608,5.862H9.684a.48.48,0,0,0-.48.48V9.029L2.153,15.6l0,0a.476.476,0,0,0-.1.135c-.007.013-.011.026-.017.04a.474.474,0,0,0-.031.134c0,.01,0,.019,0,.028s0,.007,0,.01V30.356a.48.48,0,0,0,.48.48H30.336a.48.48,0,0,0,.48-.48V15.948S30.815,15.941,30.815,15.938Zm-1.266-.067-5.937,3.685V10.342ZM12.086,21.343v-10.9l2.547-1.7h3.551l2.547,1.7v10.9l-4.323,2.684ZM16.408,3.636,18.8,5.862H14.018ZM10.165,6.823H22.652V20.152l-.961.6V10.184a.48.48,0,0,0-.214-.4L18.6,7.864a.481.481,0,0,0-.266-.081H14.487a.481.481,0,0,0-.266.081L11.339,9.785a.48.48,0,0,0-.214.4V20.748l-.961-.6ZM9.2,19.556,3.267,15.871,9.2,10.342Zm20.652,10.32H2.961V16.811l6.47,4.016h0L16.155,25a.48.48,0,0,0,.507,0l6.724-4.173h0l6.47-4.016Z" transform="translate(-2 -2.5)" fill="#22577a"/>
        <path id="Path_8422" data-name="Path 8422" d="M29.4,27.5a2.4,2.4,0,1,0,2.4,2.4A2.4,2.4,0,0,0,29.4,27.5Zm0,3.842A1.441,1.441,0,1,1,30.842,29.9,1.442,1.442,0,0,1,29.4,31.342Z" transform="translate(-14.993 -15.493)" fill="#22577a"/>
      </g>
    </g>
  </g>
</svg>
