<svg xmlns="http://www.w3.org/2000/svg" width="40" height="40" viewBox="0 0 40 40">
  <g id="Group_1693" data-name="Group 1693" transform="translate(0.504 0.504)">
    <g id="Rectangle_519" data-name="Rectangle 519" transform="translate(-0.504 -0.504)" fill="#22577a" stroke="#22577a" stroke-width="0.5" opacity="0">
      <rect width="40" height="40" stroke="none"/>
      <rect x="0.25" y="0.25" width="39.5" height="39.5" fill="none"/>
    </g>
    <path id="_34_Online_Education_Computer_Distance_Learning_E_Learning" data-name="34 Online Education, Computer, Distance Learning, E Learning" d="M40.189,9.316h-2.1v1.439H40.2a2.215,2.215,0,0,1,2.2,2.215V30.9H40.966V12.912a.719.719,0,0,0-.719-.719H38.089v1.439h1.439V30.9H36.65V7.158A2.158,2.158,0,0,0,34.492,5H27.3a3.6,3.6,0,0,0-2.877,1.439A3.6,3.6,0,0,0,21.544,5H14.351a2.158,2.158,0,0,0-2.158,2.158V30.9H9.316V13.632h1.439V12.193H8.6a.719.719,0,0,0-.719.719V30.9H6.439V12.97a2.216,2.216,0,0,1,2.215-2.215h2.1V9.316H8.669A3.661,3.661,0,0,0,5,12.97V34.434a3.661,3.661,0,0,0,3.654,3.654H20.825V42.4H17.948v1.439H30.9V42.4H28.018V38.089H40.189a3.661,3.661,0,0,0,3.654-3.654V12.97a3.661,3.661,0,0,0-3.654-3.654ZM27.3,6.439h7.193a.719.719,0,0,1,.719.719V30.9H25.141V8.6A2.158,2.158,0,0,1,27.3,6.439Zm-7.193,0V9.726L19.2,8.812a.633.633,0,0,0-.532-.216.719.719,0,0,0-.511.209l-.928.942V6.439Zm-6.474.719a.719.719,0,0,1,.719-.719H15.79v5.035a.72.72,0,0,0,1.223.511l1.654-1.654L20.3,11.977a.719.719,0,0,0,.525.216.6.6,0,0,0,.273-.058.719.719,0,0,0,.446-.662V6.439A2.158,2.158,0,0,1,23.7,8.6V30.9H13.632ZM26.58,42.4H22.264V38.089H26.58ZM40.189,36.65H8.654a2.216,2.216,0,0,1-2.215-2.215v-2.1H42.4v2.1a2.215,2.215,0,0,1-2.216,2.215ZM21.544,33.773H27.3v1.439H21.544ZM15.79,15.07h5.755v1.439H15.79Zm0,4.316h5.755v1.439H15.79Zm0,4.316h5.755v1.439H15.79Zm17.264-7.193H27.3V15.07h5.755Zm0,4.316H27.3V19.386h5.755Zm0,4.316H27.3V23.7h5.755Z" transform="translate(-4.926 -4.927)" fill="#22577a" stroke="#22577a" stroke-width="0.5"/>
  </g>
</svg>
