<svg xmlns="http://www.w3.org/2000/svg" width="56" height="56" viewBox="0 0 56 56">
  <g id="Group_1186" data-name="Group 1186" transform="translate(-170.27 -1702.27)">
    <rect id="Rectangle" width="56" height="56" rx="28" transform="translate(170.27 1702.27)" fill="#ecf1f5"/>
    <g id="Group_1577" data-name="Group 1577" transform="translate(186.269 1718.269)">
      <rect id="Rectangle_519" data-name="Rectangle 519" width="23.301" height="23.301" transform="translate(0.35 0.35)" fill="#22577a" stroke="#22577a" stroke-width="0.5" opacity="0"/>
      <g id="maintenance" transform="translate(0)">
        <path id="Path_8456" data-name="Path 8456" d="M-994.011,56.37a4.142,4.142,0,0,0-4.425,1.964,4.142,4.142,0,0,0,.687,5.05,4.142,4.142,0,0,0,5.067.553,4.14,4.14,0,0,0,1.875-4.343.414.414,0,0,0-.488-.323.414.414,0,0,0-.323.488,3.307,3.307,0,0,1-1.5,3.473,3.306,3.306,0,0,1-4.053-.441,3.307,3.307,0,0,1-.55-4.04,3.308,3.308,0,0,1,3.539-1.571.414.414,0,0,0,.49-.319A.414.414,0,0,0-994.011,56.37Z" transform="translate(1006.863 -48.419)" fill="#22577a" stroke="#22577a" stroke-width="0.5"/>
        <path id="Path_8457" data-name="Path 8457" d="M-1003.193,65.7a.414.414,0,0,0-.22.074l-.444.3a4.182,4.182,0,0,0-3.83,1.086v0a4.235,4.235,0,0,0-1.093,4.09.414.414,0,0,0,.292.292.414.414,0,0,0,.4-.106l2.154-2.156,1.59.53.529,1.59-2.154,2.153a.414.414,0,0,0-.108.4.413.413,0,0,0,.294.293,4.241,4.241,0,0,0,4.092-1.092,4.181,4.181,0,0,0,1.086-3.819l.357-.453a.414.414,0,0,0-.069-.581.414.414,0,0,0-.581.069l-.435.551a.414.414,0,0,0-.074.362,3.392,3.392,0,0,1-.87,3.284,3.32,3.32,0,0,1-2.415.879l1.642-1.64a.414.414,0,0,0,.1-.423l-.676-2.03a.413.413,0,0,0-.262-.262l-2.028-.676a.414.414,0,0,0-.423.1l-1.644,1.644a3.311,3.311,0,0,1,.879-2.414,3.4,3.4,0,0,1,3.286-.871.413.413,0,0,0,.339-.058l.532-.364a.414.414,0,0,0,.164-.473.414.414,0,0,0-.411-.285Z" transform="translate(1008.925 -50.394)" fill="#22577a" stroke="#22577a" stroke-width="0.5"/>
        <path id="Path_8458" data-name="Path 8458" d="M-994.528,51.822a.4.4,0,0,0-.366.247l-.443,1.1a6.194,6.194,0,0,0-1.417.011l-.465-1.088a.4.4,0,0,0-.519-.208l-2.379,1.014a.4.4,0,0,0-.208.519l.465,1.09a6.187,6.187,0,0,0-.99,1.013l-1.1-.443a.4.4,0,0,0-.514.219l-.965,2.4a.4.4,0,0,0,.219.514l1.1.443a6.2,6.2,0,0,0,.009,1.417l-1.087.463a.4.4,0,0,0-.213.216.4.4,0,0,0,0,.3l1.016,2.381a.4.4,0,0,0,.517.208l1.092-.466a6.192,6.192,0,0,0,1.011.993l-.442,1.1a.4.4,0,0,0,.219.514l2.4.965a.4.4,0,0,0,.514-.219l.443-1.1a6.2,6.2,0,0,0,1.417-.011l.465,1.088a.4.4,0,0,0,.519.208l2.379-1.014a.4.4,0,0,0,.209-.519l-.465-1.09a6.191,6.191,0,0,0,.99-1.013l1.1.443a.4.4,0,0,0,.514-.219l.965-2.4a.4.4,0,0,0-.219-.514l-1.1-.443a6.2,6.2,0,0,0-.009-1.417l1.087-.463a.4.4,0,0,0,.209-.519l-.792-1.86a.4.4,0,0,0-.519-.208.4.4,0,0,0-.208.519l.638,1.5-.96.411a.4.4,0,0,0-.235.432,5.427,5.427,0,0,1,.012,1.817.4.4,0,0,0,.243.429l.977.394-.67,1.667-.974-.392a.4.4,0,0,0-.472.14,5.434,5.434,0,0,1-1.272,1.3.4.4,0,0,0-.131.476l.411.963-1.65.706-.411-.962a.4.4,0,0,0-.432-.233,5.424,5.424,0,0,1-1.817.012.4.4,0,0,0-.431.242l-.392.976-1.668-.67.392-.974a.4.4,0,0,0-.142-.472,5.426,5.426,0,0,1-1.3-1.271.4.4,0,0,0-.474-.131l-.963.411-.706-1.652.96-.409a.4.4,0,0,0,.235-.432,5.452,5.452,0,0,1-.013-1.819.4.4,0,0,0-.242-.429l-.977-.392.671-1.667.973.391a.4.4,0,0,0,.473-.14,5.431,5.431,0,0,1,1.272-1.3.4.4,0,0,0,.131-.476l-.411-.963,1.651-.706.411.962a.4.4,0,0,0,.432.235,5.425,5.425,0,0,1,1.817-.014.4.4,0,0,0,.431-.242l.392-.976,1.564.628a.4.4,0,0,0,.514-.219.4.4,0,0,0-.219-.514l-1.93-.777A.4.4,0,0,0-994.528,51.822Z" transform="translate(1007.982 -47.3)" fill="#22577a" stroke="#22577a" stroke-width="0.5"/>
        <path id="Path_8459" data-name="Path 8459" d="M-986.688,46.357a4.235,4.235,0,0,0-2.988,1.238,4.173,4.173,0,0,0-1.084,3.791l-7.714,7.79a.414.414,0,0,0,0,.586.414.414,0,0,0,.586,0l7.821-7.9a.414.414,0,0,0,.107-.4,3.389,3.389,0,0,1,.868-3.284,3.4,3.4,0,0,1,2.4-1c.038,0,.077.013.115.015l-1.745,1.745a.414.414,0,0,0-.1.422l.675,2.028a.414.414,0,0,0,.262.262l2.028.676a.414.414,0,0,0,.424-.1l1.643-1.644A3.314,3.314,0,0,1-984.265,53a3.4,3.4,0,0,1-3.286.871.414.414,0,0,0-.4.11l-7.893,8a.414.414,0,0,0-.123.409.414.414,0,0,0,.3.3.414.414,0,0,0,.407-.129l7.783-7.883a4.174,4.174,0,0,0,3.791-1.086,4.238,4.238,0,0,0,1.093-4.092.413.413,0,0,0-.292-.292.414.414,0,0,0-.4.107l-2.154,2.154-1.59-.53-.528-1.589,2.154-2.154a.414.414,0,0,0,.108-.4.414.414,0,0,0-.294-.293A4.234,4.234,0,0,0-986.688,46.357Z" transform="translate(1006.443 -46.357)" fill="#22577a" stroke="#22577a" stroke-width="0.5"/>
        <path id="Path_8460" data-name="Path 8460" d="M-998.069,58.508a.414.414,0,0,0-.367.21,4.142,4.142,0,0,0,.687,5.05,4.142,4.142,0,0,0,5.067.553.414.414,0,0,0,.134-.57.414.414,0,0,0-.57-.134,3.307,3.307,0,0,1-4.053-.441,3.307,3.307,0,0,1-.55-4.04.413.413,0,0,0,.007-.414A.414.414,0,0,0-998.069,58.508Z" transform="translate(1006.896 -48.839)" fill="#22577a" stroke="#22577a" stroke-width="0.5"/>
      </g>
    </g>
  </g>
</svg>
